<?xml version="1.0" standalone="no"?>
<!DOCTYPE svg PUBLIC "-//W3C//DTD SVG 20010904//EN"
 "http://www.w3.org/TR/2001/REC-SVG-20010904/DTD/svg10.dtd">
<svg version="1.0" xmlns="http://www.w3.org/2000/svg"
 width="1300.000000pt" height="1267.000000pt" viewBox="0 0 1300.000000 1267.000000"
 preserveAspectRatio="xMidYMid meet">

<g transform="translate(0.000000,1267.000000) scale(0.100000,-0.100000)"
fill="#427B7D" stroke="none">
<path d="M10592 12643 c-24 -10 -71 -39 -105 -64 -84 -63 -658 -626 -1199
-1174 -365 -371 -447 -459 -465 -500 -40 -96 -45 -192 -53 -1025 -5 -533 -10
-806 -18 -828 -6 -18 -21 -49 -33 -70 -12 -20 -624 -640 -1359 -1377 -1324
-1326 -1338 -1341 -1376 -1419 -38 -77 -39 -84 -39 -180 1 -116 21 -186 80
-272 74 -107 181 -156 345 -157 119 -1 169 12 260 70 36 23 516 497 1370 1352
851 853 1332 1327 1363 1345 26 16 71 38 100 49 51 22 60 22 912 27 l860 5 56
26 c48 23 169 139 847 814 895 890 852 840 860 999 10 185 -78 327 -237 387
-68 25 -197 36 -531 44 -855 19 -1064 26 -1081 36 -37 20 -48 53 -64 201 -11
108 -15 265 -16 580 -1 560 -9 774 -34 853 -17 52 -31 72 -110 151 -131 132
-229 169 -333 127z"/>
<path d="M5930 12203 c-1234 -44 -2507 -503 -3510 -1266 -396 -301 -772 -668
-1079 -1052 -736 -921 -1176 -2026 -1287 -3235 -24 -254 -24 -776 -1 -1030 34
-364 94 -713 183 -1062 232 -913 615 -1672 1193 -2368 124 -149 521 -547 681
-682 729 -614 1641 -1096 2495 -1319 483 -125 870 -177 1391 -186 523 -9 919
26 1419 123 1531 300 2689 1035 3510 2229 797 1161 1145 2558 1029 4145 -19
257 -80 721 -97 732 -6 4 -622 8 -1368 8 l-1355 0 -45 -29 c-48 -30 -389 -367
-1199 -1186 -765 -774 -845 -847 -1022 -930 -131 -62 -164 -67 -467 -71 -151
-2 -275 -5 -277 -7 -2 -1 0 -37 3 -80 l6 -77 1648 0 1649 0 0 -45 c0 -104
-110 -458 -210 -678 -210 -460 -494 -790 -970 -1124 -489 -343 -999 -543
-1585 -619 -163 -22 -606 -25 -775 -5 -1180 133 -2141 693 -2759 1606 -332
490 -532 1022 -617 1635 -21 156 -30 607 -15 781 82 951 517 1820 1236 2472
238 215 510 399 815 551 377 187 736 297 1160 353 169 22 648 25 810 5 340
-43 648 -121 931 -237 130 -53 235 -105 487 -242 106 -58 195 -103 196 -101 2
1 16 35 31 73 l28 70 8 740 c8 754 14 886 49 999 32 102 97 194 340 483 l61
72 -68 34 c-37 19 -140 62 -228 95 -677 256 -1301 388 -1980 422 -188 9 -266
10 -445 3z"/>
</g>
</svg>
