<svg version="1.1" id="Layer_1" xmlns="http://www.w3.org/2000/svg" xmlns:xlink="http://www.w3.org/1999/xlink" x="0px" y="0px"
	 width="100%" viewBox="0 0 1054 1054" enable-background="new 0 0 1054 1054" xml:space="preserve">
<path fill="none" opacity="1.000000" stroke="none" 
	d="
M694.000000,1055.000000 
	C462.693970,1055.000000 231.887924,1055.000000 1.040946,1055.000000 
	C1.040946,703.735535 1.040946,352.471039 1.040946,1.103267 
	C352.222900,1.103267 703.445862,1.103267 1054.834473,1.103267 
	C1054.834473,352.333282 1054.834473,703.666626 1054.834473,1055.000000 
	C934.803955,1055.000000 814.651978,1055.000000 694.000000,1055.000000 
M147.626724,727.833069 
	C148.408691,726.590088 149.238434,725.374390 149.964981,724.099854 
	C155.436813,714.500244 160.771515,704.820251 166.376404,695.299255 
	C173.089706,683.895264 180.099014,672.665771 186.850647,661.283997 
	C194.591400,648.234741 202.190125,635.101257 210.168137,622.633118 
	C213.810837,628.872192 217.471115,635.101074 221.092743,641.352356 
	C229.980957,656.693970 238.850510,672.046326 247.729095,687.393494 
	C254.944565,699.865784 262.017792,712.423340 269.431244,724.776855 
	C274.139984,732.623291 278.403412,741.051575 284.547180,747.655334 
	C296.507080,760.510742 311.699707,766.736450 329.701416,766.105347 
	C347.641113,765.476501 362.736816,759.298401 374.136780,745.305908 
	C390.532623,725.181213 392.730743,702.947876 382.096741,679.668213 
	C377.422058,669.434509 371.235382,659.883423 365.613800,650.092102 
	C354.319275,630.419922 342.925568,610.804871 331.602173,591.149231 
	C318.909485,569.116821 306.222321,547.081055 293.583801,525.017578 
	C283.941711,508.185028 274.269714,491.368042 264.816681,474.429352 
	C257.592590,461.484680 248.635818,450.649872 234.450394,444.670349 
	C218.037170,437.751740 201.455841,437.690247 185.373276,444.135223 
	C168.655594,450.834747 157.418594,463.548828 151.306381,481.308350 
	C148.377106,486.194855 145.366058,491.034485 142.533752,495.976562 
	C133.674210,511.435638 124.929276,526.960449 116.051666,542.409058 
	C105.555161,560.674927 94.989189,578.901123 84.411362,597.120117 
	C75.041115,613.259277 65.551888,629.329651 56.238613,645.501465 
	C51.999714,652.862000 48.058491,660.394043 43.366261,668.187622 
	C31.735909,683.773560 28.336306,701.302856 32.140697,720.067810 
	C34.646500,732.427551 40.720722,743.321106 50.368507,751.582092 
	C62.891628,762.305115 77.569305,766.418518 94.218658,766.217957 
	C118.446922,765.926147 138.984436,748.991089 147.626724,727.833069 
M442.526672,760.000000 
	C486.841583,760.000000 531.156555,759.951111 575.471313,760.030701 
	C588.223083,760.053589 600.856689,759.792480 613.462341,757.126526 
	C629.721008,753.687927 645.954773,750.438110 660.469116,741.818726 
	C685.991638,726.662231 703.290649,704.540955 713.955872,677.194214 
	C722.130127,656.234558 723.925720,634.005066 724.872620,611.793030 
	C725.295105,601.883301 724.823914,591.868530 723.882324,581.984863 
	C722.730835,569.899048 721.440552,557.728394 718.827698,545.899902 
	C713.011780,519.571411 701.848633,496.019562 682.303223,476.583710 
	C659.089966,453.500641 630.373840,443.168457 598.950623,442.377472 
	C544.840637,441.015442 490.671570,441.997925 436.527283,442.011108 
	C434.773499,442.011536 433.019775,442.171692 431.331512,442.254150 
	C431.331512,548.408264 431.331512,653.954590 431.331512,760.000000 
	C434.950134,760.000000 438.243591,760.000000 442.526672,760.000000 
M919.584473,561.976013 
	C915.535034,560.744202 911.485657,559.512329 907.209167,558.211426 
	C907.209167,538.553467 907.209167,518.772705 907.209167,497.240845 
	C912.402527,501.282471 917.493958,503.986694 920.784180,508.123474 
	C924.905273,513.304871 927.694580,519.586792 930.761230,525.546814 
	C932.132202,528.211365 933.177795,530.626587 936.834778,529.998169 
	C942.332458,529.053345 947.848145,528.213318 953.357361,527.336426 
	C966.656189,525.219727 979.957336,523.117188 993.254395,520.989380 
	C1000.314331,519.859497 1007.367737,518.688904 1014.747131,517.483887 
	C1011.556824,500.281036 1004.438354,485.592865 993.422485,473.082764 
	C977.346252,454.825836 956.061768,446.120728 932.617737,442.027618 
	C924.242737,440.565399 915.801880,439.480438 906.862671,438.144318 
	C906.862671,431.650970 906.862671,425.066742 906.862671,418.455200 
	C895.634216,418.455200 884.939575,418.455200 873.736206,418.455200 
	C873.736206,425.497223 873.736206,432.087646 873.736206,438.151306 
	C865.198181,439.484497 857.236755,440.664459 849.297607,441.979004 
	C823.755920,446.208099 801.122620,456.222565 785.377747,477.515625 
	C779.028687,486.101929 773.635986,496.021820 770.436768,506.164032 
	C765.640808,521.368652 765.722961,537.261230 768.871033,553.169495 
	C772.922485,573.642761 784.247314,589.261047 800.061951,601.880798 
	C812.493591,611.801025 827.707520,616.132751 842.545776,620.967590 
	C852.937378,624.353516 863.444580,627.384521 873.671448,630.504272 
	C873.671448,655.332520 873.671448,679.713684 873.671448,705.775452 
	C867.764587,701.335632 862.495178,698.038574 858.029236,693.879028 
	C848.899902,685.375977 846.629822,673.611206 843.907227,662.108032 
	C843.550598,660.601379 841.865784,658.192993 840.900024,658.242188 
	C834.171448,658.585022 827.460693,659.386230 820.762329,660.191345 
	C807.865356,661.741455 794.982361,663.407104 782.089783,664.994385 
	C772.825439,666.134949 763.554993,667.226074 753.714661,668.408020 
	C755.749084,676.265991 757.268677,683.836731 759.678101,691.112793 
	C766.122192,710.572815 777.635498,726.487305 793.705750,739.320557 
	C810.829834,752.995300 830.717407,759.492126 851.884827,762.978760 
	C859.128967,764.172058 866.419983,765.080627 874.109009,766.179199 
	C874.109009,779.619995 874.109009,792.542480 874.109009,805.569336 
	C885.316345,805.569336 896.010010,805.569336 907.202881,805.569336 
	C907.202881,792.217834 907.202881,779.290771 907.202881,766.413635 
	C913.902527,765.572998 920.083252,764.613586 926.299927,764.052795 
	C943.104980,762.536438 958.790649,757.670471 973.259766,748.938110 
	C997.815674,734.118225 1014.585510,713.208191 1021.708862,685.299805 
	C1026.033325,668.356934 1025.591675,650.976257 1020.463318,634.363708 
	C1013.270813,611.064575 997.878906,594.188416 976.149658,583.004883 
	C958.360291,573.849060 939.390015,567.931396 919.584473,561.976013 
M52.096333,307.259094 
	C52.729431,309.633667 53.445591,311.989624 53.982147,314.385803 
	C57.446636,329.857666 60.871910,345.338287 64.317055,360.847565 
	C76.304977,360.847565 87.775558,360.847565 99.699196,360.847565 
	C105.798042,338.884155 111.893501,316.932983 118.229782,294.114532 
	C119.151215,297.391693 119.776726,299.589081 120.386658,301.790771 
	C122.268402,308.583282 124.120064,315.384247 126.027580,322.169495 
	C129.445236,334.326447 132.808350,346.500641 136.475601,358.582245 
	C136.815063,359.700653 139.155930,360.850647 140.597275,360.889771 
	C148.757812,361.111420 156.928009,361.059998 165.093811,360.983643 
	C174.166412,360.898773 172.109024,361.921997 173.930084,353.883667 
	C179.799042,327.977814 185.322937,301.993835 191.003769,276.045258 
	C192.876678,267.490234 194.822266,258.951080 196.823196,250.008865 
	C186.131744,250.008865 175.976685,249.926208 165.826630,250.114059 
	C164.565460,250.137390 162.464172,251.396881 162.227615,252.423538 
	C160.902145,258.175964 160.082336,264.042694 158.991562,269.851929 
	C156.681351,282.155548 154.310471,294.447784 151.964478,306.744659 
	C149.812851,301.842010 148.382309,296.992157 147.013016,292.125061 
	C143.370682,279.178528 139.839951,266.199188 136.003311,253.310745 
	C135.596863,251.945343 133.481216,250.187729 132.117996,250.151855 
	C121.973541,249.884949 111.818855,250.006989 101.243080,250.006989 
	C95.939964,268.936157 90.689545,287.677246 85.040771,307.840240 
	C82.872009,297.222565 80.886490,287.876282 79.068657,278.497467 
	C77.239105,269.058228 75.576294,259.586670 73.877022,250.328674 
	C62.167095,250.328674 51.235279,250.328674 39.715492,250.328674 
	C41.872311,260.017853 43.955734,269.269257 45.986832,278.532104 
	C48.023895,287.822174 50.008770,297.123627 52.096333,307.259094 
M452.000000,276.500000 
	C452.000000,304.558014 452.000000,332.615997 452.000000,360.648438 
	C463.738434,360.648438 474.643494,360.648438 486.002014,360.648438 
	C486.002014,354.507721 485.919250,348.710968 486.057251,342.919495 
	C486.094177,341.371094 486.330017,339.367462 487.298950,338.389740 
	C489.934845,335.729858 493.011871,333.507141 495.892212,331.129211 
	C496.274048,331.370514 496.656342,331.473053 496.780121,331.710449 
	C501.232666,340.247833 505.576904,348.843597 510.170898,357.303741 
	C510.991302,358.814575 512.805786,360.786560 514.206177,360.823029 
	C525.305725,361.111908 536.416199,360.983795 548.522217,360.983795 
	C538.060120,342.987244 528.050964,325.769897 517.992065,308.467072 
	C527.689636,299.168427 537.007690,290.233704 546.325745,281.298981 
	C546.034119,280.865997 545.742493,280.432983 545.450867,280.000000 
	C535.662720,280.000000 525.849792,280.423187 516.095276,279.850311 
	C509.657623,279.472229 504.817902,281.201050 501.119446,286.372314 
	C500.451324,287.306549 499.732086,288.210724 498.971252,289.071106 
	C495.004486,293.556732 491.016663,298.023651 487.036194,302.497101 
	C486.637543,302.315948 486.238922,302.134827 485.840271,301.953674 
	C485.840271,284.759796 485.840271,267.565948 485.840271,250.325165 
	C474.318420,250.325165 463.414337,250.325165 452.000000,250.325165 
	C452.000000,258.927124 452.000000,267.213562 452.000000,276.500000 
M288.998444,313.594177 
	C288.668030,310.153442 288.443512,306.698669 287.988495,303.274475 
	C286.209045,289.883057 279.738647,282.491608 268.100342,280.058319 
	C251.390152,276.564636 234.584839,276.428802 218.120956,281.198212 
	C208.206833,284.070251 200.634628,294.166779 201.576385,303.432312 
	C210.557037,304.609528 219.495270,305.924194 228.475891,306.808624 
	C229.868362,306.945801 231.581284,305.267365 232.922043,304.157837 
	C234.980255,302.454590 236.593063,299.432953 238.844589,298.911194 
	C243.097580,297.925476 247.774765,297.702332 252.062408,298.425842 
	C253.945969,298.743713 255.635025,302.011749 256.653229,304.280914 
	C256.881775,304.790222 254.023361,306.856293 252.413315,307.951813 
	C251.509323,308.566925 250.264587,308.716217 249.151291,308.983429 
	C238.004242,311.658966 226.676620,313.746277 215.748108,317.125458 
	C202.947144,321.083588 198.966202,326.788086 198.073120,338.030121 
	C197.323349,347.468170 203.434830,356.988678 212.036423,360.489380 
	C220.759583,364.039581 230.026123,364.074860 238.890045,362.290497 
	C245.843658,360.890717 252.333084,357.185059 258.571930,354.686737 
	C260.027649,356.447540 261.756348,360.498077 263.781708,360.652252 
	C273.001343,361.354187 282.304443,360.960052 290.568573,360.960052 
	C290.024017,353.189484 289.293823,345.879028 289.057068,338.552643 
	C288.799011,330.566528 288.998413,322.565674 288.998444,313.594177 
M957.549255,285.961578 
	C955.972595,287.484131 954.395874,289.006714 951.849243,291.465912 
	C951.849243,286.776642 951.849243,283.664001 951.849243,280.403229 
	C941.741516,280.403229 932.047180,280.403229 922.328186,280.403229 
	C922.328186,307.369904 922.328186,333.932037 922.328186,360.555756 
	C933.351379,360.555756 944.040894,360.555756 954.998230,360.555756 
	C954.998230,358.789276 954.998108,357.466949 954.998230,356.144623 
	C954.999390,342.655487 954.949890,329.166077 955.023254,315.677338 
	C955.060181,308.874207 960.365234,303.321991 966.549316,303.356659 
	C973.041382,303.393066 975.987000,307.006927 975.995605,315.019897 
	C976.010071,328.509033 975.990601,341.998199 976.011658,355.487305 
	C976.014404,357.239441 976.172913,358.991272 976.253479,360.625366 
	C987.447083,360.625366 998.020020,360.625366 1008.999390,360.625366 
	C1008.999390,358.449860 1008.999390,356.646179 1008.999451,354.842499 
	C1008.999695,339.021912 1009.145020,323.199066 1008.902893,307.382202 
	C1008.838623,303.178558 1008.105042,298.816803 1006.756653,294.840332 
	C1004.688232,288.740631 1001.412109,283.448700 994.805969,280.830750 
	C981.621521,275.605896 969.408997,276.805481 957.549255,285.961578 
M879.500000,329.000000 
	C889.248474,329.000000 898.996948,329.000000 909.465820,329.000000 
	C908.934021,322.325500 908.660706,316.554047 907.981262,310.830872 
	C906.319092,296.828888 898.475647,286.803314 885.844849,281.688873 
	C873.073669,276.517578 859.405945,276.553711 845.889709,279.554810 
	C831.934937,282.653259 822.689819,291.061554 817.251770,304.238159 
	C813.991455,312.138306 814.412781,320.339264 815.224976,328.249573 
	C816.754761,343.148682 826.901367,356.964508 842.553345,361.035034 
	C854.468689,364.133789 866.504700,363.653168 878.495178,361.894470 
	C892.020874,359.910614 901.135620,351.840759 907.639465,340.084229 
	C906.825439,339.592926 906.434265,339.168091 906.005676,339.126251 
	C898.464844,338.390503 890.923218,337.656952 883.373657,337.018951 
	C878.841797,336.635986 875.012695,337.214569 871.241821,340.860687 
	C866.758728,345.195496 860.736389,345.001526 855.121582,342.019775 
	C850.550964,339.592499 848.030762,334.676483 848.615112,329.000000 
	C858.544739,329.000000 868.522339,329.000000 879.500000,329.000000 
M638.629944,336.802307 
	C639.419739,329.948853 640.957947,323.080994 640.826050,316.245331 
	C640.621765,305.664215 636.253296,296.402130 628.511230,289.094940 
	C613.383240,274.816589 580.249817,274.608124 564.223083,286.035431 
	C541.297546,302.381683 541.149109,339.402374 564.375977,355.171844 
	C574.653015,362.149200 586.005432,363.414398 597.914917,363.022217 
	C616.402527,362.413391 630.360535,354.809174 638.629944,336.802307 
M735.995239,330.939667 
	C734.440186,324.954712 732.158508,319.620941 726.701416,315.815460 
	C718.909729,310.382111 709.962891,309.409668 701.058411,308.007233 
	C696.351929,307.265930 691.525879,306.977600 686.975403,305.697144 
	C685.037170,305.151733 683.108582,302.823273 682.284058,300.843506 
	C681.900391,299.922333 683.824219,297.191345 685.280334,296.501831 
	C691.194214,293.701355 698.720764,296.320587 702.425049,301.733765 
	C703.174744,302.829437 705.006165,303.980438 706.200684,303.849091 
	C715.012451,302.880310 723.789124,301.592804 732.618530,300.399902 
	C734.148926,294.641754 723.876892,283.221893 717.146423,281.138763 
	C701.092468,276.169952 684.704468,275.762512 668.950256,281.289642 
	C649.731140,288.032349 647.310852,309.173950 660.402405,320.767731 
	C666.655396,326.305359 674.851013,327.420441 682.749268,329.030548 
	C689.631653,330.433624 696.565491,331.767120 703.260925,333.831024 
	C706.936829,334.964142 707.312683,339.926117 704.193604,342.191101 
	C696.493164,347.782867 685.144165,344.521606 682.474976,338.269348 
	C681.813965,336.721008 679.109497,335.290039 677.254456,335.167694 
	C673.682434,334.932068 670.036499,335.588409 666.438843,336.021515 
	C660.656982,336.717499 654.889404,337.532623 648.846558,338.333069 
	C652.140991,350.637054 659.163879,358.418549 671.130859,360.957977 
	C684.664062,363.829803 698.213074,364.080048 711.896484,361.206604 
	C727.257751,357.980835 737.774231,346.336548 735.995239,330.939667 
M315.104889,283.454193 
	C299.016571,292.976471 300.382843,315.712860 315.252167,323.394348 
	C320.953949,326.339874 327.697815,327.344757 334.036743,328.959320 
	C340.690399,330.654114 347.587585,331.538239 354.075531,333.689697 
	C358.805115,335.258057 358.900726,340.051819 354.606079,342.661224 
	C346.584778,347.534851 336.193329,344.444458 333.341125,338.058594 
	C332.693939,336.609589 330.097931,335.042206 328.520508,335.159790 
	C319.076385,335.863861 309.667755,337.044586 299.974091,338.095123 
	C303.610596,350.539032 310.259705,359.221649 323.094177,360.999481 
	C331.729950,362.195679 340.499237,362.544830 349.223755,362.952393 
	C358.638885,363.392151 367.434998,361.212585 375.545105,356.167145 
	C389.402496,347.546173 391.868805,324.835419 377.376892,315.573242 
	C369.546936,310.568909 360.878876,309.436859 352.153137,308.014679 
	C347.452087,307.248444 342.623230,306.994781 338.068115,305.731018 
	C336.108887,305.187500 334.145782,302.909180 333.282928,300.938141 
	C332.882294,300.022949 334.756439,297.255249 336.200226,296.539795 
	C342.022736,293.654419 349.701385,296.265320 353.367828,301.663422 
	C354.120361,302.771362 355.898376,303.935638 357.114227,303.846985 
	C362.680969,303.441132 368.221069,302.638031 373.760376,301.899689 
	C377.379333,301.417328 380.980469,300.801636 384.696228,300.229218 
	C380.954285,289.483917 374.814056,281.751617 363.740082,280.019012 
	C355.311096,278.700256 346.692261,278.542542 338.148438,278.024719 
	C330.225189,277.544464 322.822723,279.621857 315.104889,283.454193 
M805.999634,355.450623 
	C805.303955,349.666534 804.608276,343.882477 803.870483,337.748077 
	C801.429871,338.434784 799.860718,338.849976 798.307434,339.317810 
	C791.484375,341.372711 788.083374,338.974945 788.010620,331.974152 
	C787.960449,327.142426 788.000244,322.309753 788.000061,317.477509 
	C787.999878,313.061035 788.000000,308.644531 788.000000,303.738464 
	C794.144470,303.738464 799.394165,303.738464 804.659790,303.738464 
	C804.659790,295.629211 804.659790,288.052063 804.659790,279.955200 
	C799.081848,279.955200 793.825012,279.955200 787.967407,279.955200 
	C787.967407,269.731262 787.967407,260.020996 787.967407,250.306763 
	C786.860413,250.224991 786.276855,249.994919 785.898132,250.181244 
	C776.565735,254.772415 767.211975,259.325348 757.998596,264.146057 
	C756.925232,264.707703 756.191345,266.762054 756.092834,268.179474 
	C755.831421,271.940857 756.004028,275.732391 756.004028,279.726868 
	C751.662781,279.941315 747.947693,280.124817 744.013428,280.319153 
	C744.013428,287.377441 743.825500,293.876129 744.174438,300.345856 
	C744.242920,301.616394 746.218689,303.506592 747.609253,303.824951 
	C750.096558,304.394318 752.807739,303.985321 755.999939,303.985321 
	C755.999939,306.498383 755.954956,308.456207 756.007263,310.411499 
	C756.326599,322.349701 756.219116,334.323456 757.174561,346.211365 
	C757.727356,353.089386 761.687134,358.625305 768.655396,360.974243 
	C779.835571,364.742920 791.110291,363.094055 802.432068,361.412872 
	C806.055603,360.874756 806.198914,359.020386 805.999634,355.450623 
z"/>
<path fill="#427B7D" opacity="1.000000" stroke="none" 
	d="
M442.031860,760.000000 
	C438.243591,760.000000 434.950134,760.000000 431.331512,760.000000 
	C431.331512,653.954590 431.331512,548.408264 431.331512,442.254150 
	C433.019775,442.171692 434.773499,442.011536 436.527283,442.011108 
	C490.671570,441.997925 544.840637,441.015442 598.950623,442.377472 
	C630.373840,443.168457 659.089966,453.500641 682.303223,476.583710 
	C701.848633,496.019562 713.011780,519.571411 718.827698,545.899902 
	C721.440552,557.728394 722.730835,569.899048 723.882324,581.984863 
	C724.823914,591.868530 725.295105,601.883301 724.872620,611.793030 
	C723.925720,634.005066 722.130127,656.234558 713.955872,677.194214 
	C703.290649,704.540955 685.991638,726.662231 660.469116,741.818726 
	C645.954773,750.438110 629.721008,753.687927 613.462341,757.126526 
	C600.856689,759.792480 588.223083,760.053589 575.471313,760.030701 
	C531.156555,759.951111 486.841583,760.000000 442.031860,760.000000 
M530.999817,641.500000 
	C530.999817,656.576416 530.999817,671.652832 530.999817,687.929443 
	C547.961548,686.924133 563.989746,686.070374 580.003418,685.000671 
	C599.853271,683.674744 612.370544,672.098145 617.989807,654.189758 
	C621.974670,641.490417 623.971130,627.859253 624.722534,614.523743 
	C625.921326,593.248535 624.856079,571.943420 618.045776,551.360596 
	C613.231750,536.811218 604.302063,525.990173 589.626099,521.014160 
	C582.239014,518.509521 574.409241,516.582825 566.663513,516.033875 
	C555.003113,515.207520 543.240784,515.818604 530.999817,515.818604 
	C530.999817,557.262634 530.999817,598.881348 530.999817,641.500000 
z"/>
<path fill="#427B7D" opacity="1.000000" stroke="none" 
	d="
M919.991516,561.999390 
	C939.390015,567.931396 958.360291,573.849060 976.149658,583.004883 
	C997.878906,594.188416 1013.270813,611.064575 1020.463318,634.363708 
	C1025.591675,650.976257 1026.033325,668.356934 1021.708862,685.299805 
	C1014.585510,713.208191 997.815674,734.118225 973.259766,748.938110 
	C958.790649,757.670471 943.104980,762.536438 926.299927,764.052795 
	C920.083252,764.613586 913.902527,765.572998 907.202881,766.413635 
	C907.202881,779.290771 907.202881,792.217834 907.202881,805.569336 
	C896.010010,805.569336 885.316345,805.569336 874.109009,805.569336 
	C874.109009,792.542480 874.109009,779.619995 874.109009,766.179199 
	C866.419983,765.080627 859.128967,764.172058 851.884827,762.978760 
	C830.717407,759.492126 810.829834,752.995300 793.705750,739.320557 
	C777.635498,726.487305 766.122192,710.572815 759.678101,691.112793 
	C757.268677,683.836731 755.749084,676.265991 753.714661,668.408020 
	C763.554993,667.226074 772.825439,666.134949 782.089783,664.994385 
	C794.982361,663.407104 807.865356,661.741455 820.762329,660.191345 
	C827.460693,659.386230 834.171448,658.585022 840.900024,658.242188 
	C841.865784,658.192993 843.550598,660.601379 843.907227,662.108032 
	C846.629822,673.611206 848.899902,685.375977 858.029236,693.879028 
	C862.495178,698.038574 867.764587,701.335632 873.671448,705.775452 
	C873.671448,679.713684 873.671448,655.332520 873.671448,630.504272 
	C863.444580,627.384521 852.937378,624.353516 842.545776,620.967590 
	C827.707520,616.132751 812.493591,611.801025 800.061951,601.880798 
	C784.247314,589.261047 772.922485,573.642761 768.871033,553.169495 
	C765.722961,537.261230 765.640808,521.368652 770.436768,506.164032 
	C773.635986,496.021820 779.028687,486.101929 785.377747,477.515625 
	C801.122620,456.222565 823.755920,446.208099 849.297607,441.979004 
	C857.236755,440.664459 865.198181,439.484497 873.736206,438.151306 
	C873.736206,432.087646 873.736206,425.497223 873.736206,418.455200 
	C884.939575,418.455200 895.634216,418.455200 906.862671,418.455200 
	C906.862671,425.066742 906.862671,431.650970 906.862671,438.144318 
	C915.801880,439.480438 924.242737,440.565399 932.617737,442.027618 
	C956.061768,446.120728 977.346252,454.825836 993.422485,473.082764 
	C1004.438354,485.592865 1011.556824,500.281036 1014.747131,517.483887 
	C1007.367737,518.688904 1000.314331,519.859497 993.254395,520.989380 
	C979.957336,523.117188 966.656189,525.219727 953.357361,527.336426 
	C947.848145,528.213318 942.332458,529.053345 936.834778,529.998169 
	C933.177795,530.626587 932.132202,528.211365 930.761230,525.546814 
	C927.694580,519.586792 924.905273,513.304871 920.784180,508.123474 
	C917.493958,503.986694 912.402527,501.282471 907.209167,497.240845 
	C907.209167,518.772705 907.209167,538.553467 907.209167,558.211426 
	C911.485657,559.512329 915.535034,560.744202 919.991516,561.999390 
M907.000671,702.232422 
	C907.078918,703.703308 907.157166,705.174194 907.319092,708.217896 
	C913.959717,705.277222 920.102722,703.142822 925.656128,699.974976 
	C937.019226,693.493347 943.225403,680.044617 940.262634,667.306519 
	C937.013428,653.336975 920.963928,644.337891 907.338928,640.894348 
	C907.248718,641.212219 907.080078,641.529968 907.079529,641.847961 
	C907.044312,661.660339 907.022827,681.472656 907.000671,702.232422 
M856.459106,507.037445 
	C842.382202,524.114624 856.223938,545.522034 873.643738,548.370605 
	C873.643738,531.351501 873.643738,514.326355 873.643738,497.242432 
	C867.319031,498.382446 862.243835,501.252411 856.459106,507.037445 
z"/>
<path fill="#427B7D" opacity="1.000000" stroke="none" 
	d="
M151.893723,480.947174 
	C157.418594,463.548828 168.655594,450.834747 185.373276,444.135223 
	C201.455841,437.690247 218.037170,437.751740 234.450394,444.670349 
	C248.635818,450.649872 257.592590,461.484680 264.816681,474.429352 
	C274.269714,491.368042 283.941711,508.185028 293.583801,525.017578 
	C306.222321,547.081055 318.909485,569.116821 331.602173,591.149231 
	C342.925568,610.804871 354.319275,630.419922 365.613800,650.092102 
	C371.235382,659.883423 377.422058,669.434509 382.096741,679.668213 
	C392.730743,702.947876 390.532623,725.181213 374.136780,745.305908 
	C362.736816,759.298401 347.641113,765.476501 329.701416,766.105347 
	C311.699707,766.736450 296.507080,760.510742 284.547180,747.655334 
	C278.403412,741.051575 274.139984,732.623291 269.431244,724.776855 
	C262.017792,712.423340 254.944565,699.865784 247.729095,687.393494 
	C238.850510,672.046326 229.980957,656.693970 221.092743,641.352356 
	C217.471115,635.101074 213.810837,628.872192 210.036789,621.946411 
	C208.842789,618.852051 207.990631,616.323242 206.685394,614.055176 
	C191.183350,587.117676 175.728607,560.151672 160.008850,533.341309 
	C153.139282,521.625183 148.646408,509.443512 150.023392,495.648987 
	C150.513901,490.735107 151.262787,485.847015 151.893723,480.947174 
z"/>
<path fill="#B85D25" opacity="1.000000" stroke="none" 
	d="
M151.600052,481.127747 
	C151.262787,485.847015 150.513901,490.735107 150.023392,495.648987 
	C148.646408,509.443512 153.139282,521.625183 160.008850,533.341309 
	C175.728607,560.151672 191.183350,587.117676 206.685394,614.055176 
	C207.990631,616.323242 208.842789,618.852051 209.877991,621.632080 
	C202.190125,635.101257 194.591400,648.234741 186.850647,661.283997 
	C180.099014,672.665771 173.089706,683.895264 166.376404,695.299255 
	C160.771515,704.820251 155.436813,714.500244 149.964981,724.099854 
	C149.238434,725.374390 148.408691,726.590088 147.045654,727.766724 
	C146.409317,727.380432 146.220367,727.011047 146.317856,726.747620 
	C152.128464,711.046326 151.218948,695.470398 144.389694,680.460022 
	C128.543976,645.631653 80.529083,635.292175 51.642132,661.762817 
	C49.243866,663.960510 46.542667,665.827576 43.982231,667.848267 
	C48.058491,660.394043 51.999714,652.862000 56.238613,645.501465 
	C65.551888,629.329651 75.041115,613.259277 84.411362,597.120117 
	C94.989189,578.901123 105.555161,560.674927 116.051666,542.409058 
	C124.929276,526.960449 133.674210,511.435638 142.533752,495.976562 
	C145.366058,491.034485 148.377106,486.194855 151.600052,481.127747 
z"/>
<path fill="#427B7D" opacity="1.000000" stroke="none" 
	d="
M52.056427,306.839600 
	C50.008770,297.123627 48.023895,287.822174 45.986832,278.532104 
	C43.955734,269.269257 41.872311,260.017853 39.715492,250.328674 
	C51.235279,250.328674 62.167095,250.328674 73.877022,250.328674 
	C75.576294,259.586670 77.239105,269.058228 79.068657,278.497467 
	C80.886490,287.876282 82.872009,297.222565 85.040771,307.840240 
	C90.689545,287.677246 95.939964,268.936157 101.243080,250.006989 
	C111.818855,250.006989 121.973541,249.884949 132.117996,250.151855 
	C133.481216,250.187729 135.596863,251.945343 136.003311,253.310745 
	C139.839951,266.199188 143.370682,279.178528 147.013016,292.125061 
	C148.382309,296.992157 149.812851,301.842010 151.964478,306.744659 
	C154.310471,294.447784 156.681351,282.155548 158.991562,269.851929 
	C160.082336,264.042694 160.902145,258.175964 162.227615,252.423538 
	C162.464172,251.396881 164.565460,250.137390 165.826630,250.114059 
	C175.976685,249.926208 186.131744,250.008865 196.823196,250.008865 
	C194.822266,258.951080 192.876678,267.490234 191.003769,276.045258 
	C185.322937,301.993835 179.799042,327.977814 173.930084,353.883667 
	C172.109024,361.921997 174.166412,360.898773 165.093811,360.983643 
	C156.928009,361.059998 148.757812,361.111420 140.597275,360.889771 
	C139.155930,360.850647 136.815063,359.700653 136.475601,358.582245 
	C132.808350,346.500641 129.445236,334.326447 126.027580,322.169495 
	C124.120064,315.384247 122.268402,308.583282 120.386658,301.790771 
	C119.776726,299.589081 119.151215,297.391693 118.229782,294.114532 
	C111.893501,316.932983 105.798042,338.884155 99.699196,360.847565 
	C87.775558,360.847565 76.304977,360.847565 64.317055,360.847565 
	C60.871910,345.338287 57.446636,329.857666 53.982147,314.385803 
	C53.445591,311.989624 52.729431,309.633667 52.056427,306.839600 
z"/>
<path fill="#427B7D" opacity="1.000000" stroke="none" 
	d="
M43.674240,668.017944 
	C46.542667,665.827576 49.243866,663.960510 51.642132,661.762817 
	C80.529083,635.292175 128.543976,645.631653 144.389694,680.460022 
	C151.218948,695.470398 152.128464,711.046326 146.317856,726.747620 
	C146.220367,727.011047 146.409317,727.380432 146.731949,727.933716 
	C138.984436,748.991089 118.446922,765.926147 94.218658,766.217957 
	C77.569305,766.418518 62.891628,762.305115 50.368507,751.582092 
	C40.720722,743.321106 34.646500,732.427551 32.140697,720.067810 
	C28.336306,701.302856 31.735909,683.773560 43.674240,668.017944 
z"/>
<path fill="#427B7D" opacity="1.000000" stroke="none" 
	d="
M452.000000,276.000000 
	C452.000000,267.213562 452.000000,258.927124 452.000000,250.325165 
	C463.414337,250.325165 474.318420,250.325165 485.840271,250.325165 
	C485.840271,267.565948 485.840271,284.759796 485.840271,301.953674 
	C486.238922,302.134827 486.637543,302.315948 487.036194,302.497101 
	C491.016663,298.023651 495.004486,293.556732 498.971252,289.071106 
	C499.732086,288.210724 500.451324,287.306549 501.119446,286.372314 
	C504.817902,281.201050 509.657623,279.472229 516.095276,279.850311 
	C525.849792,280.423187 535.662720,280.000000 545.450867,280.000000 
	C545.742493,280.432983 546.034119,280.865997 546.325745,281.298981 
	C537.007690,290.233704 527.689636,299.168427 517.992065,308.467072 
	C528.050964,325.769897 538.060120,342.987244 548.522217,360.983795 
	C536.416199,360.983795 525.305725,361.111908 514.206177,360.823029 
	C512.805786,360.786560 510.991302,358.814575 510.170898,357.303741 
	C505.576904,348.843597 501.232666,340.247833 496.780121,331.710449 
	C496.656342,331.473053 496.274048,331.370514 495.892212,331.129211 
	C493.011871,333.507141 489.934845,335.729858 487.298950,338.389740 
	C486.330017,339.367462 486.094177,341.371094 486.057251,342.919495 
	C485.919250,348.710968 486.002014,354.507721 486.002014,360.648438 
	C474.643494,360.648438 463.738434,360.648438 452.000000,360.648438 
	C452.000000,332.615997 452.000000,304.558014 452.000000,276.000000 
z"/>
<path fill="#427B7D" opacity="1.000000" stroke="none" 
	d="
M288.998413,314.082703 
	C288.998413,322.565674 288.799011,330.566528 289.057068,338.552643 
	C289.293823,345.879028 290.024017,353.189484 290.568573,360.960052 
	C282.304443,360.960052 273.001343,361.354187 263.781708,360.652252 
	C261.756348,360.498077 260.027649,356.447540 258.571930,354.686737 
	C252.333084,357.185059 245.843658,360.890717 238.890045,362.290497 
	C230.026123,364.074860 220.759583,364.039581 212.036423,360.489380 
	C203.434830,356.988678 197.323349,347.468170 198.073120,338.030121 
	C198.966202,326.788086 202.947144,321.083588 215.748108,317.125458 
	C226.676620,313.746277 238.004242,311.658966 249.151291,308.983429 
	C250.264587,308.716217 251.509323,308.566925 252.413315,307.951813 
	C254.023361,306.856293 256.881775,304.790222 256.653229,304.280914 
	C255.635025,302.011749 253.945969,298.743713 252.062408,298.425842 
	C247.774765,297.702332 243.097580,297.925476 238.844589,298.911194 
	C236.593063,299.432953 234.980255,302.454590 232.922043,304.157837 
	C231.581284,305.267365 229.868362,306.945801 228.475891,306.808624 
	C219.495270,305.924194 210.557037,304.609528 201.576385,303.432312 
	C200.634628,294.166779 208.206833,284.070251 218.120956,281.198212 
	C234.584839,276.428802 251.390152,276.564636 268.100342,280.058319 
	C279.738647,282.491608 286.209045,289.883057 287.988495,303.274475 
	C288.443512,306.698669 288.668030,310.153442 288.998413,314.082703 
M235.730927,344.047455 
	C248.159912,348.060730 258.815857,337.939789 256.341858,323.655273 
	C249.585999,325.769409 242.696274,327.361084 236.287369,330.084320 
	C229.406723,333.007965 229.068604,339.211060 235.730927,344.047455 
z"/>
<path fill="#427B7D" opacity="1.000000" stroke="none" 
	d="
M957.798340,285.704224 
	C969.408997,276.805481 981.621521,275.605896 994.805969,280.830750 
	C1001.412109,283.448700 1004.688232,288.740631 1006.756653,294.840332 
	C1008.105042,298.816803 1008.838623,303.178558 1008.902893,307.382202 
	C1009.145020,323.199066 1008.999695,339.021912 1008.999451,354.842499 
	C1008.999390,356.646179 1008.999390,358.449860 1008.999390,360.625366 
	C998.020020,360.625366 987.447083,360.625366 976.253479,360.625366 
	C976.172913,358.991272 976.014404,357.239441 976.011658,355.487305 
	C975.990601,341.998199 976.010071,328.509033 975.995605,315.019897 
	C975.987000,307.006927 973.041382,303.393066 966.549316,303.356659 
	C960.365234,303.321991 955.060181,308.874207 955.023254,315.677338 
	C954.949890,329.166077 954.999390,342.655487 954.998230,356.144623 
	C954.998108,357.466949 954.998230,358.789276 954.998230,360.555756 
	C944.040894,360.555756 933.351379,360.555756 922.328186,360.555756 
	C922.328186,333.932037 922.328186,307.369904 922.328186,280.403229 
	C932.047180,280.403229 941.741516,280.403229 951.849243,280.403229 
	C951.849243,283.664001 951.849243,286.776642 951.849243,291.465912 
	C954.395874,289.006714 955.972595,287.484131 957.798340,285.704224 
z"/>
<path fill="#427B7D" opacity="1.000000" stroke="none" 
	d="
M879.000000,329.000000 
	C868.522339,329.000000 858.544739,329.000000 848.615112,329.000000 
	C848.030762,334.676483 850.550964,339.592499 855.121582,342.019775 
	C860.736389,345.001526 866.758728,345.195496 871.241821,340.860687 
	C875.012695,337.214569 878.841797,336.635986 883.373657,337.018951 
	C890.923218,337.656952 898.464844,338.390503 906.005676,339.126251 
	C906.434265,339.168091 906.825439,339.592926 907.639465,340.084229 
	C901.135620,351.840759 892.020874,359.910614 878.495178,361.894470 
	C866.504700,363.653168 854.468689,364.133789 842.553345,361.035034 
	C826.901367,356.964508 816.754761,343.148682 815.224976,328.249573 
	C814.412781,320.339264 813.991455,312.138306 817.251770,304.238159 
	C822.689819,291.061554 831.934937,282.653259 845.889709,279.554810 
	C859.405945,276.553711 873.073669,276.517578 885.844849,281.688873 
	C898.475647,286.803314 906.319092,296.828888 907.981262,310.830872 
	C908.660706,316.554047 908.934021,322.325500 909.465820,329.000000 
	C898.996948,329.000000 889.248474,329.000000 879.000000,329.000000 
M852.776367,312.999359 
	C860.558838,312.999359 868.341248,312.999359 876.127136,312.999359 
	C875.904297,302.868561 869.842285,298.678436 864.981140,298.044250 
	C856.562378,296.945892 851.210144,300.721191 848.563904,308.754395 
	C847.355469,312.422943 848.596619,313.254669 852.776367,312.999359 
z"/>
<path fill="#427B7D" opacity="1.000000" stroke="none" 
	d="
M638.394531,337.124146 
	C630.360535,354.809174 616.402527,362.413391 597.914917,363.022217 
	C586.005432,363.414398 574.653015,362.149200 564.375977,355.171844 
	C541.149109,339.402374 541.297546,302.381683 564.223083,286.035431 
	C580.249817,274.608124 613.383240,274.816589 628.511230,289.094940 
	C636.253296,296.402130 640.621765,305.664215 640.826050,316.245331 
	C640.957947,323.080994 639.419739,329.948853 638.394531,337.124146 
M581.076477,310.052246 
	C580.720459,315.466766 580.024475,320.885681 580.094238,326.294708 
	C580.182251,333.110931 585.660645,339.499481 591.885864,340.871857 
	C597.253357,342.055145 604.698547,339.096161 606.106262,332.857574 
	C607.781982,325.431732 607.039185,317.368927 606.625549,309.620514 
	C606.507324,307.405914 604.323303,304.747498 602.350647,303.285583 
	C595.227478,298.006622 586.749084,299.459259 581.076477,310.052246 
z"/>
<path fill="#427B7D" opacity="1.000000" stroke="none" 
	d="
M735.996948,331.383789 
	C737.774231,346.336548 727.257751,357.980835 711.896484,361.206604 
	C698.213074,364.080048 684.664062,363.829803 671.130859,360.957977 
	C659.163879,358.418549 652.140991,350.637054 648.846558,338.333069 
	C654.889404,337.532623 660.656982,336.717499 666.438843,336.021515 
	C670.036499,335.588409 673.682434,334.932068 677.254456,335.167694 
	C679.109497,335.290039 681.813965,336.721008 682.474976,338.269348 
	C685.144165,344.521606 696.493164,347.782867 704.193604,342.191101 
	C707.312683,339.926117 706.936829,334.964142 703.260925,333.831024 
	C696.565491,331.767120 689.631653,330.433624 682.749268,329.030548 
	C674.851013,327.420441 666.655396,326.305359 660.402405,320.767731 
	C647.310852,309.173950 649.731140,288.032349 668.950256,281.289642 
	C684.704468,275.762512 701.092468,276.169952 717.146423,281.138763 
	C723.876892,283.221893 734.148926,294.641754 732.618530,300.399902 
	C723.789124,301.592804 715.012451,302.880310 706.200684,303.849091 
	C705.006165,303.980438 703.174744,302.829437 702.425049,301.733765 
	C698.720764,296.320587 691.194214,293.701355 685.280334,296.501831 
	C683.824219,297.191345 681.900391,299.922333 682.284058,300.843506 
	C683.108582,302.823273 685.037170,305.151733 686.975403,305.697144 
	C691.525879,306.977600 696.351929,307.265930 701.058411,308.007233 
	C709.962891,309.409668 718.909729,310.382111 726.701416,315.815460 
	C732.158508,319.620941 734.440186,324.954712 735.996948,331.383789 
z"/>
<path fill="#427B7D" opacity="1.000000" stroke="none" 
	d="
M315.432434,283.267456 
	C322.822723,279.621857 330.225189,277.544464 338.148438,278.024719 
	C346.692261,278.542542 355.311096,278.700256 363.740082,280.019012 
	C374.814056,281.751617 380.954285,289.483917 384.696228,300.229218 
	C380.980469,300.801636 377.379333,301.417328 373.760376,301.899689 
	C368.221069,302.638031 362.680969,303.441132 357.114227,303.846985 
	C355.898376,303.935638 354.120361,302.771362 353.367828,301.663422 
	C349.701385,296.265320 342.022736,293.654419 336.200226,296.539795 
	C334.756439,297.255249 332.882294,300.022949 333.282928,300.938141 
	C334.145782,302.909180 336.108887,305.187500 338.068115,305.731018 
	C342.623230,306.994781 347.452087,307.248444 352.153137,308.014679 
	C360.878876,309.436859 369.546936,310.568909 377.376892,315.573242 
	C391.868805,324.835419 389.402496,347.546173 375.545105,356.167145 
	C367.434998,361.212585 358.638885,363.392151 349.223755,362.952393 
	C340.499237,362.544830 331.729950,362.195679 323.094177,360.999481 
	C310.259705,359.221649 303.610596,350.539032 299.974091,338.095123 
	C309.667755,337.044586 319.076385,335.863861 328.520508,335.159790 
	C330.097931,335.042206 332.693939,336.609589 333.341125,338.058594 
	C336.193329,344.444458 346.584778,347.534851 354.606079,342.661224 
	C358.900726,340.051819 358.805115,335.258057 354.075531,333.689697 
	C347.587585,331.538239 340.690399,330.654114 334.036743,328.959320 
	C327.697815,327.344757 320.953949,326.339874 315.252167,323.394348 
	C300.382843,315.712860 299.016571,292.976471 315.432434,283.267456 
z"/>
<path fill="#427B7D" opacity="1.000000" stroke="none" 
	d="
M805.999390,355.906616 
	C806.198914,359.020386 806.055603,360.874756 802.432068,361.412872 
	C791.110291,363.094055 779.835571,364.742920 768.655396,360.974243 
	C761.687134,358.625305 757.727356,353.089386 757.174561,346.211365 
	C756.219116,334.323456 756.326599,322.349701 756.007263,310.411499 
	C755.954956,308.456207 755.999939,306.498383 755.999939,303.985321 
	C752.807739,303.985321 750.096558,304.394318 747.609253,303.824951 
	C746.218689,303.506592 744.242920,301.616394 744.174438,300.345856 
	C743.825500,293.876129 744.013428,287.377441 744.013428,280.319153 
	C747.947693,280.124817 751.662781,279.941315 756.004028,279.726868 
	C756.004028,275.732391 755.831421,271.940857 756.092834,268.179474 
	C756.191345,266.762054 756.925232,264.707703 757.998596,264.146057 
	C767.211975,259.325348 776.565735,254.772415 785.898132,250.181244 
	C786.276855,249.994919 786.860413,250.224991 787.967407,250.306763 
	C787.967407,260.020996 787.967407,269.731262 787.967407,279.955200 
	C793.825012,279.955200 799.081848,279.955200 804.659790,279.955200 
	C804.659790,288.052063 804.659790,295.629211 804.659790,303.738464 
	C799.394165,303.738464 794.144470,303.738464 788.000000,303.738464 
	C788.000000,308.644531 787.999878,313.061035 788.000061,317.477509 
	C788.000244,322.309753 787.960449,327.142426 788.010620,331.974152 
	C788.083374,338.974945 791.484375,341.372711 798.307434,339.317810 
	C799.860718,338.849976 801.429871,338.434784 803.870483,337.748077 
	C804.608276,343.882477 805.303955,349.666534 805.999390,355.906616 
z"/>
<path fill="none" opacity="1.000000" stroke="none" 
	d="
M530.999817,641.000000 
	C530.999817,598.881348 530.999817,557.262634 530.999817,515.818604 
	C543.240784,515.818604 555.003113,515.207520 566.663513,516.033875 
	C574.409241,516.582825 582.239014,518.509521 589.626099,521.014160 
	C604.302063,525.990173 613.231750,536.811218 618.045776,551.360596 
	C624.856079,571.943420 625.921326,593.248535 624.722534,614.523743 
	C623.971130,627.859253 621.974670,641.490417 617.989807,654.189758 
	C612.370544,672.098145 599.853271,683.674744 580.003418,685.000671 
	C563.989746,686.070374 547.961548,686.924133 530.999817,687.929443 
	C530.999817,671.652832 530.999817,656.576416 530.999817,641.000000 
z"/>
<path fill="none" opacity="1.000000" stroke="none" 
	d="
M907.000366,701.758728 
	C907.022827,681.472656 907.044312,661.660339 907.079529,641.847961 
	C907.080078,641.529968 907.248718,641.212219 907.340881,640.894897 
	C920.963928,644.337891 937.013428,653.336975 940.262634,667.306519 
	C943.225403,680.044617 937.019226,693.493347 925.656128,699.974976 
	C920.102722,703.142822 913.959717,705.277222 907.319092,708.217896 
	C907.157166,705.174194 907.078918,703.703308 907.000366,701.758728 
z"/>
<path fill="none" opacity="1.000000" stroke="none" 
	d="
M856.718628,506.783325 
	C862.243835,501.252411 867.319031,498.382446 873.643738,497.242432 
	C873.643738,514.326355 873.643738,531.351501 873.643738,548.370605 
	C856.223938,545.522034 842.382202,524.114624 856.718628,506.783325 
z"/>
<path fill="none" opacity="1.000000" stroke="none" 
	d="
M235.329346,343.978882 
	C229.068604,339.211060 229.406723,333.007965 236.287369,330.084320 
	C242.696274,327.361084 249.585999,325.769409 256.341858,323.655273 
	C258.815857,337.939789 248.159912,348.060730 235.329346,343.978882 
z"/>
<path fill="none" opacity="1.000000" stroke="none" 
	d="
M852.314026,312.998474 
	C848.596619,313.254669 847.355469,312.422943 848.563904,308.754395 
	C851.210144,300.721191 856.562378,296.945892 864.981140,298.044250 
	C869.842285,298.678436 875.904297,302.868561 876.127136,312.999359 
	C868.341248,312.999359 860.558838,312.999359 852.314026,312.998474 
z"/>
<path fill="none" opacity="1.000000" stroke="none" 
	d="
M581.192505,309.666809 
	C586.749084,299.459259 595.227478,298.006622 602.350647,303.285583 
	C604.323303,304.747498 606.507324,307.405914 606.625549,309.620514 
	C607.039185,317.368927 607.781982,325.431732 606.106262,332.857574 
	C604.698547,339.096161 597.253357,342.055145 591.885864,340.871857 
	C585.660645,339.499481 580.182251,333.110931 580.094238,326.294708 
	C580.024475,320.885681 580.720459,315.466766 581.192505,309.666809 
z"/>
</svg>