<svg version="1.1" id="Layer_1" xmlns="http://www.w3.org/2000/svg" xmlns:xlink="http://www.w3.org/1999/xlink" x="0px" y="0px"
	 width="100%" viewBox="0 0 840 840" enable-background="new 0 0 840 840" xml:space="preserve">
<path fill="#427B7D" opacity="1.000000" stroke="none" 
	d="
M280.069824,480.778229 
	C277.336975,464.516174 273.656677,448.754913 272.223145,432.791901 
	C270.491180,413.505951 270.444153,394.052673 270.115875,374.664276 
	C269.979706,366.621368 271.003601,358.558807 271.583221,349.153595 
	C275.468506,353.978485 278.749237,358.064301 282.042603,362.139862 
	C288.252045,369.824066 294.067047,377.874481 300.766113,385.105621 
	C314.712463,400.159668 332.779205,408.590607 351.896515,414.821411 
	C369.073242,420.419678 386.967224,422.591797 404.903931,422.548309 
	C417.010193,422.518982 429.230530,420.923187 441.186737,418.817963 
	C459.944641,415.515076 477.473785,408.687622 493.593384,398.239807 
	C504.344910,391.271240 512.435730,381.897705 520.075317,371.895416 
	C525.769409,364.440369 531.796875,357.240051 538.402161,349.022827 
	C538.724670,351.179382 538.962097,352.076691 538.978394,352.977997 
	C539.333740,372.582184 540.596069,392.225098 539.791870,411.782806 
	C538.422058,445.097412 532.733521,477.707672 520.589722,509.044098 
	C513.284668,527.894348 504.183685,545.651184 492.042297,561.808655 
	C473.976807,585.849976 451.484436,603.645691 421.365997,609.648865 
	C404.011200,613.108093 386.937988,610.856995 370.457367,604.181641 
	C357.932831,599.108704 347.058105,591.715515 337.036255,582.668640 
	C317.556458,565.083923 303.857910,543.607056 293.961945,519.627930 
	C288.772217,507.052490 284.696533,494.017242 280.069824,480.778229 
M409.167877,432.003876 
	C391.868317,430.668243 379.870270,437.974884 372.947113,453.913452 
	C372.471191,455.009125 370.196228,455.886078 368.744537,455.906219 
	C357.091064,456.068024 345.434387,455.986328 333.778748,456.014526 
	C332.012238,456.018799 330.246216,456.205963 328.401886,456.313049 
	C328.234070,457.606750 328.038940,458.412445 328.038177,459.218323 
	C328.016602,482.363129 327.947968,505.508301 328.085480,528.652283 
	C328.104736,531.889954 328.842926,535.213623 329.775665,538.340210 
	C333.976288,552.420898 346.814178,561.942993 361.665558,561.978943 
	C389.805542,562.047058 417.946289,561.899963 446.085846,562.032654 
	C467.157837,562.132019 481.972473,547.875122 481.994659,526.405457 
	C482.016815,504.925720 482.005646,483.445923 481.987610,461.966156 
	C481.986115,460.184479 481.820465,458.402954 481.704865,456.099243 
	C466.734680,456.099243 452.149597,456.099243 437.650604,456.099243 
	C432.800110,442.571136 424.019165,434.275085 409.167877,432.003876 
z"/>
<path fill="#427B7D" opacity="1.000000" stroke="none" 
	d="
M479.354645,386.312561 
	C464.298462,392.358612 449.180389,396.753510 433.336029,397.955658 
	C420.643707,398.918640 407.866669,400.348236 395.203522,399.801910 
	C363.042480,398.414368 332.290894,391.198853 305.138794,372.941864 
	C289.050232,362.123932 276.498444,348.412567 271.761658,328.667267 
	C267.140625,309.404388 271.778595,292.446472 283.438782,277.151825 
	C297.900085,258.182983 318.111359,247.647797 340.088043,240.125305 
	C355.377930,234.891647 371.113129,231.553864 387.345886,230.987778 
	C396.452911,230.670212 405.596069,229.639969 414.659058,230.124664 
	C446.791412,231.843185 477.549957,238.761703 504.749359,256.993988 
	C520.593628,267.614746 533.002991,281.100098 538.038147,300.221893 
	C543.011169,319.107483 538.818787,336.223846 527.602844,351.600342 
	C515.473328,368.229340 498.526642,378.583374 479.354645,386.312561 
M372.491821,347.018951 
	C384.335480,338.313019 388.519684,326.535339 388.206818,312.020935 
	C387.848297,295.388123 373.612762,278.794464 355.716278,275.682281 
	C329.585907,271.138184 303.038086,291.977570 309.558014,323.678436 
	C315.454041,352.345459 347.994232,364.230774 372.491821,347.018951 
M471.437286,348.035095 
	C485.726959,337.889374 490.506836,323.555725 487.743469,307.029358 
	C483.867798,283.850922 459.301239,269.732178 436.683197,276.681580 
	C420.633575,281.612854 408.392761,296.910522 408.701019,315.811218 
	C408.978973,332.855530 420.342590,348.456543 436.788757,353.348938 
	C448.877869,356.945160 460.198822,354.864807 471.437286,348.035095 
z"/>
<path fill="#427B7D" opacity="1.000000" stroke="none" 
	d="
M107.000000,601.000000 
	C80.197296,601.000000 53.894596,601.000000 27.492430,601.000000 
	C28.344236,563.960144 35.473766,529.436279 60.057125,500.092651 
	C46.954948,485.537598 40.245968,468.436676 42.317173,448.660309 
	C43.965595,432.920837 50.445415,419.060730 62.300987,408.448730 
	C89.961830,383.689331 131.087204,387.658173 153.546951,413.870300 
	C171.282349,434.568848 177.185699,470.863861 150.932678,500.145294 
	C174.896240,529.226746 182.967529,563.589050 183.207932,601.000000 
	C158.072113,601.000000 132.786057,601.000000 107.000000,601.000000 
M114.423790,518.000671 
	C103.553619,520.609009 93.260239,517.492065 82.856865,515.021362 
	C81.203903,514.628845 78.268951,515.115906 77.497940,516.257568 
	C72.274178,523.992310 66.885712,531.714355 62.675606,540.011414 
	C56.733189,551.722473 53.860664,564.482056 52.155781,577.664429 
	C87.930290,577.664429 123.283165,577.664429 158.891068,577.664429 
	C157.884979,572.647583 157.017380,567.988647 156.010376,563.359985 
	C152.436646,546.933594 145.935791,531.812439 135.706085,518.392700 
	C133.160675,515.053528 130.639801,512.614990 125.756279,515.418213 
	C122.766014,517.134766 118.822983,517.191528 114.423790,518.000671 
M122.235092,491.926056 
	C138.728653,483.840637 148.552902,466.122803 144.994492,448.006500 
	C141.426224,429.840027 125.262642,415.562622 106.422302,415.051239 
	C94.199165,414.719543 84.187317,419.545319 75.821899,428.556458 
	C66.115974,439.011566 62.158768,454.923126 67.658035,469.260895 
	C75.314552,489.223053 99.111229,502.400604 122.235092,491.926056 
z"/>
<path fill="#427B7D" opacity="1.000000" stroke="none" 
	d="
M656.229614,549.754028 
	C645.273804,533.674622 640.279602,516.054443 641.145935,497.154816 
	C642.057983,477.259827 648.955566,459.511414 662.184998,444.146912 
	C676.034729,428.062042 693.509216,418.480438 714.013428,415.311676 
	C739.015564,411.447845 761.933167,417.509247 782.013672,433.457703 
	C798.632996,446.657196 808.680481,463.909637 812.553772,484.434998 
	C817.243286,509.285858 811.880188,532.317139 796.722290,552.681213 
	C783.596558,570.315308 765.977051,581.572937 744.436707,585.601746 
	C719.265503,590.309753 695.729797,585.304993 675.322144,569.512024 
	C668.248596,564.037903 662.711365,556.578613 656.229614,549.754028 
M751.256409,442.079254 
	C739.330261,437.670105 727.279236,436.006256 714.594788,438.858002 
	C701.207825,441.867737 690.122681,448.389374 681.024231,458.488647 
	C667.133423,473.907501 661.437195,491.941345 665.343567,512.342407 
	C668.494995,528.800598 677.084656,542.377625 690.819824,552.179077 
	C703.777649,561.425781 718.528137,565.793640 734.314758,563.783752 
	C752.727722,561.439514 768.155945,552.803833 778.967896,537.395142 
	C791.633789,519.344299 794.632751,499.622498 786.873901,478.771973 
	C780.521667,461.701569 768.690796,449.643616 751.256409,442.079254 
z"/>
<path fill="#B85D25" opacity="1.000000" stroke="none" 
	d="
M231.832474,485.999725 
	C233.752350,485.894501 235.190292,485.789429 236.962555,485.659973 
	C236.962555,478.720337 236.962555,472.117706 236.962555,466.793304 
	C248.343231,478.180450 260.194641,490.038574 271.780853,501.631378 
	C261.408386,512.026123 249.475067,523.985046 237.254028,536.232361 
	C237.254028,529.762817 237.254028,523.256470 237.254028,516.000061 
	C234.927460,516.000061 233.174210,516.000061 231.420975,516.000061 
	C217.609680,516.000000 203.793533,515.790466 189.989700,516.111206 
	C185.017563,516.226685 183.703629,514.505127 183.909622,509.816620 
	C184.245087,502.181793 184.000153,494.521454 184.000153,485.999908 
	C199.917603,485.999908 215.634064,485.999908 231.832474,485.999725 
z"/>
<path fill="#B85D25" opacity="1.000000" stroke="none" 
	d="
M592.166626,518.000000 
	C590.577881,517.333435 588.995056,516.104553 587.399475,516.087769 
	C572.244202,515.928650 557.086853,515.975342 541.465149,515.440063 
	C541.000305,505.333710 541.000366,495.750183 541.000366,486.166656 
	C556.065491,486.111115 571.130615,486.065125 586.195618,485.987396 
	C588.006165,485.978058 589.815735,485.796234 592.155640,485.082520 
	C593.123352,482.072815 593.654541,479.687378 593.976746,477.274048 
	C594.434692,473.844299 594.738953,470.394073 595.108887,466.952606 
	C606.100464,478.310913 617.092102,489.669220 628.236084,501.184875 
	C617.787964,511.647797 606.744446,522.707031 595.234253,533.529419 
	C594.511658,530.839783 594.383728,528.364746 593.965515,525.939880 
	C593.504944,523.269287 592.777649,520.644653 592.166626,518.000000 
z"/>
<path fill="#B85D25" opacity="1.000000" stroke="none" 
	d="
M540.573242,486.146149 
	C541.000366,495.750183 541.000305,505.333710 541.000488,515.375305 
	C540.337341,514.843933 539.114807,513.863586 539.098450,512.863525 
	C538.960388,504.415253 539.025330,495.963196 539.104919,487.512970 
	C539.109314,487.047333 539.783630,486.587952 540.573242,486.146149 
z"/>
<path fill="#B85D25" opacity="1.000000" stroke="none" 
	d="
M594.929077,466.620636 
	C594.738953,470.394073 594.434692,473.844299 593.976746,477.274048 
	C593.654541,479.687378 593.123352,482.072815 592.426086,484.735016 
	C592.113403,479.180054 592.055542,473.360809 592.009216,467.541473 
	C591.989807,465.109955 592.716553,464.257904 594.929077,466.620636 
z"/>
<path fill="#B85D25" opacity="1.000000" stroke="none" 
	d="
M592.101929,518.463928 
	C592.777649,520.644653 593.504944,523.269287 593.965515,525.939880 
	C594.383728,528.364746 594.511658,530.839783 594.935242,533.672913 
	C594.653992,534.912903 594.205139,535.772644 593.756287,536.632446 
	C593.183289,536.366394 592.610229,536.100342 592.037231,535.834290 
	C592.037231,530.198853 592.037231,524.563354 592.101929,518.463928 
z"/>
<path fill="#B85D25" opacity="1.000000" stroke="none" 
	d="
M409.620911,432.007935 
	C424.019165,434.275085 432.800110,442.571136 437.650604,456.099243 
	C452.149597,456.099243 466.734680,456.099243 481.704865,456.099243 
	C481.820465,458.402954 481.986115,460.184479 481.987610,461.966156 
	C482.005646,483.445923 482.016815,504.925720 481.994659,526.405457 
	C481.972473,547.875122 467.157837,562.132019 446.085846,562.032654 
	C417.946289,561.899963 389.805542,562.047058 361.665558,561.978943 
	C346.814178,561.942993 333.976288,552.420898 329.775665,538.340210 
	C328.842926,535.213623 328.104736,531.889954 328.085480,528.652283 
	C327.947968,505.508301 328.016602,482.363129 328.038177,459.218323 
	C328.038940,458.412445 328.234070,457.606750 328.401886,456.313049 
	C330.246216,456.205963 332.012238,456.018799 333.778748,456.014526 
	C345.434387,455.986328 357.091064,456.068024 368.744537,455.906219 
	C370.196228,455.886078 372.471191,455.009125 372.947113,453.913452 
	C379.870270,437.974884 391.868317,430.668243 409.620911,432.007935 
M357.015717,541.907532 
	C359.619385,542.271606 362.222107,542.944519 364.826843,542.952087 
	C391.484528,543.030029 418.142578,543.004883 444.800507,542.997681 
	C456.839813,542.994446 462.956390,536.989807 462.989105,525.054749 
	C463.029755,510.226379 463.010315,495.397766 462.983490,480.569366 
	C462.980316,478.818848 462.767303,477.068756 462.661926,475.475464 
	C423.810303,475.475464 385.596924,475.475464 347.034790,475.475464 
	C347.034790,493.259857 346.853455,510.574158 347.131622,527.880981 
	C347.231110,534.068726 350.606842,538.786926 357.015717,541.907532 
M412.532959,455.991608 
	C413.350037,455.770996 414.167114,455.550415 415.305420,455.243073 
	C407.456604,449.304596 399.670532,449.597839 395.040436,455.997589 
	C400.769318,455.997589 406.248413,455.997589 412.532959,455.991608 
z"/>
<path fill="#427B7D" opacity="1.000000" stroke="none" 
	d="
M356.638916,541.776184 
	C350.606842,538.786926 347.231110,534.068726 347.131622,527.880981 
	C346.853455,510.574158 347.034790,493.259857 347.034790,475.475464 
	C385.596924,475.475464 423.810303,475.475464 462.661926,475.475464 
	C462.767303,477.068756 462.980316,478.818848 462.983490,480.569366 
	C463.010315,495.397766 463.029755,510.226379 462.989105,525.054749 
	C462.956390,536.989807 456.839813,542.994446 444.800507,542.997681 
	C418.142578,543.004883 391.484528,543.030029 364.826843,542.952087 
	C362.222107,542.944519 359.619385,542.271606 356.638916,541.776184 
z"/>
<path fill="#427B7D" opacity="1.000000" stroke="none" 
	d="
M412.130249,455.994598 
	C406.248413,455.997589 400.769318,455.997589 395.040436,455.997589 
	C399.670532,449.597839 407.456604,449.304596 415.305420,455.243073 
	C414.167114,455.550415 413.350037,455.770996 412.130249,455.994598 
z"/>
<path fill="#427B7D" opacity="1.000000" stroke="none" 
	d="
M777.042419,492.114502 
	C769.468567,498.711609 761.930786,505.350769 754.310913,511.894318 
	C746.186401,518.871277 738.015869,525.795776 729.805603,532.671753 
	C723.594910,537.873169 717.290100,542.962280 710.899841,548.205872 
	C700.549927,535.640076 690.825439,523.833557 680.885681,511.765717 
	C686.760620,506.894928 692.553467,502.092194 698.734131,496.967896 
	C702.548157,501.405029 706.458313,505.628754 709.986328,510.150574 
	C713.468201,514.613159 713.980225,514.815308 718.342285,511.176697 
	C728.334106,502.842102 738.342957,494.527985 748.940552,486.181519 
	C753.297546,487.114807 753.472656,484.358032 753.940735,481.904663 
	C753.940735,481.904663 753.964722,481.964142 754.325378,481.942993 
	C758.089233,481.979248 759.715942,480.176056 759.940796,476.904633 
	C759.940796,476.904633 759.964783,476.964142 760.370789,476.961121 
	C762.517883,476.972046 764.258911,476.986023 766.197693,477.270935 
	C768.303467,479.608917 770.455383,481.504028 772.062927,483.782990 
	C774.512939,487.256287 776.666931,487.154205 779.044922,483.888336 
	C779.370361,484.681244 779.695801,485.474121 779.768555,486.795959 
	C778.691345,488.921387 777.866882,490.517944 777.042419,492.114502 
z"/>
<path fill="#427B7D" opacity="1.000000" stroke="none" 
	d="
M778.895752,483.591339 
	C776.666931,487.154205 774.512939,487.256287 772.062927,483.782990 
	C770.455383,481.504028 768.303467,479.608917 766.372925,477.006073 
	C767.511414,475.314117 768.672363,474.157990 769.833374,473.001862 
	C772.804443,476.432678 775.775513,479.863495 778.895752,483.591339 
z"/>
<path fill="#427B7D" opacity="1.000000" stroke="none" 
	d="
M769.759277,472.661682 
	C768.672363,474.157990 767.511414,475.314117 766.175171,476.735107 
	C764.258911,476.986023 762.517883,476.972046 760.341187,476.948822 
	C761.800232,475.268707 763.537964,473.340179 765.661926,472.045319 
	C766.598694,471.474243 768.320007,472.190002 769.759277,472.661682 
z"/>
<path fill="#427B7D" opacity="1.000000" stroke="none" 
	d="
M759.638489,477.050720 
	C759.715942,480.176056 758.089233,481.979248 754.295776,481.930756 
	C755.715698,480.358704 757.525940,478.777771 759.638489,477.050720 
z"/>
<path fill="#427B7D" opacity="1.000000" stroke="none" 
	d="
M753.643677,482.046661 
	C753.472656,484.358032 753.297546,487.114807 749.242188,486.026794 
	C750.414307,484.660248 751.880493,483.424438 753.643677,482.046661 
z"/>
<path fill="#427B7D" opacity="1.000000" stroke="none" 
	d="
M777.337402,491.972046 
	C777.866882,490.517944 778.691345,488.921387 779.811096,487.137573 
	C781.819519,489.346710 781.800598,489.384064 777.337402,491.972046 
z"/>
</svg>