<?xml version="1.0" standalone="no"?>
<!DOCTYPE svg PUBLIC "-//W3C//DTD SVG 20010904//EN"
 "http://www.w3.org/TR/2001/REC-SVG-20010904/DTD/svg10.dtd">
<svg version="1.0" xmlns="http://www.w3.org/2000/svg"
 width="800.000000pt" height="800.000000pt" viewBox="0 0 800.000000 800.000000"
 preserveAspectRatio="xMidYMid meet">

<g transform="translate(0.000000,800.000000) scale(0.100000,-0.100000)"
fill="#427b7d" stroke="none">
<path d="M1018 7529 c-227 -33 -425 -224 -473 -454 -22 -106 -22 -5394 0
-5500 46 -220 228 -405 444 -451 98 -20 2884 -20 2982 0 107 23 194 71 280
156 76 75 110 128 153 240 l21 55 3 2713 c2 3007 7 2786 -64 2931 -24 49 -58
96 -103 141 -75 76 -130 111 -234 149 l-72 26 -1440 1 c-792 1 -1465 -2 -1497
-7z m1867 -259 l0 -25 -403 -3 c-352 -2 -403 0 -408 13 -4 8 -4 22 0 30 5 13
56 15 408 13 l403 -3 0 -25z m1066 -289 l29 -29 0 -2431 c0 -1585 -3 -2439
-10 -2456 -22 -58 47 -55 -1490 -55 -1537 0 -1468 -3 -1490 55 -7 17 -10 871
-10 2456 l0 2431 29 29 29 29 1442 0 1442 0 29 -29z m-1377 -5235 c116 -68
119 -231 7 -311 -35 -25 -52 -30 -101 -30 -49 0 -66 5 -101 30 -150 106 -82
335 100 335 39 0 66 -7 95 -24z"/>
<path d="M1575 5783 c-87 -14 -250 -88 -301 -137 -6 -6 -24 -23 -40 -37 -64
-58 -123 -151 -160 -255 -26 -71 -29 -92 -29 -204 0 -96 4 -136 18 -175 38
-102 68 -165 81 -165 5 0 7 -3 3 -6 -7 -8 16 -37 84 -104 73 -73 82 -79 169
-122 104 -50 157 -62 285 -61 87 0 126 5 185 24 137 43 253 128 334 244 40 57
47 70 76 140 65 157 51 365 -37 532 -29 55 -46 76 -124 154 -116 115 -241 168
-409 174 -58 2 -118 1 -135 -2z"/>
<path d="M3155 5784 c-47 -7 -170 -52 -221 -81 -43 -24 -156 -127 -197 -181
-117 -151 -151 -418 -77 -597 29 -70 36 -83 76 -140 81 -116 197 -201 334
-244 59 -19 98 -24 185 -24 128 -1 181 11 285 61 87 43 96 49 169 122 68 67
91 96 84 104 -4 3 -2 6 3 6 13 0 43 63 81 165 14 39 18 79 18 175 0 112 -3
133 -29 204 -32 90 -89 185 -142 240 -115 118 -273 186 -439 191 -55 2 -113 1
-130 -1z"/>
<path d="M2380 4441 c-72 -9 -165 -39 -212 -68 -21 -13 -40 -23 -43 -23 -14 0
-139 -118 -176 -166 -16 -21 -58 -99 -77 -144 -44 -107 -51 -308 -13 -425 13
-38 28 -77 35 -85 7 -8 17 -27 23 -42 15 -35 37 -61 103 -128 90 -90 129 -113
275 -167 71 -26 279 -26 350 0 146 54 185 77 275 167 67 68 88 94 106 134 8
17 18 38 23 46 39 68 54 139 55 260 1 149 -15 213 -88 344 -32 57 -178 206
-201 206 -3 0 -22 10 -43 23 -86 53 -262 84 -392 68z"/>
<path d="M4900 6246 c-36 -13 -92 -38 -125 -57 -71 -40 -182 -150 -219 -215
l-26 -47 0 -296 c0 -278 2 -297 20 -321 11 -14 20 -30 20 -36 0 -19 124 -140
183 -177 218 -140 486 -140 704 0 57 36 183 158 183 176 0 5 8 21 19 35 36 51
72 158 82 243 26 206 -37 392 -180 537 -74 75 -151 123 -255 158 -60 21 -88
24 -205 23 -115 0 -146 -4 -201 -23z"/>
<path d="M7140 5012 c-14 -2 -79 -20 -145 -39 -66 -19 -145 -41 -175 -48 -30
-6 -84 -20 -120 -29 -123 -33 -255 -65 -375 -91 -66 -14 -160 -34 -210 -45
-49 -11 -124 -25 -165 -30 -41 -6 -91 -15 -110 -20 -19 -5 -96 -16 -170 -25
-74 -8 -162 -20 -195 -25 -33 -6 -168 -13 -300 -16 -237 -6 -291 -3 -582 34
l-63 8 -2 -1570 -3 -1571 -21 -55 c-51 -133 -95 -204 -178 -285 -94 -93 -208
-156 -328 -181 -40 -8 -73 -16 -74 -17 -11 -14 -34 -165 -34 -225 0 -66 4 -87
26 -128 37 -72 91 -123 161 -155 57 -27 72 -29 177 -29 160 0 217 27 297 140
31 44 75 160 84 220 7 46 26 147 70 356 14 66 25 128 25 138 0 10 11 71 25
135 14 64 37 168 51 231 13 63 32 144 40 180 9 36 22 92 29 125 43 207 134
490 182 568 55 89 101 15 206 -333 74 -248 218 -889 306 -1375 35 -190 105
-307 216 -359 48 -23 66 -26 168 -26 105 0 121 3 179 29 72 32 132 91 167 164
21 43 23 59 19 140 -3 51 -14 137 -26 192 -34 164 -61 297 -67 340 -6 42 -44
245 -75 405 -10 52 -30 163 -45 245 -15 83 -38 202 -51 265 -13 63 -24 124
-24 135 0 11 -11 74 -24 140 -40 195 -57 286 -66 355 -41 295 -51 376 -60 455
-5 50 -15 126 -21 170 -19 137 1 267 48 306 30 26 111 69 156 84 23 8 80 28
127 45 47 17 105 38 130 46 25 7 83 27 130 45 47 17 110 39 140 49 30 10 100
35 155 55 55 20 114 40 132 44 18 5 56 18 85 29 29 11 91 35 138 52 192 72
284 135 335 232 22 41 25 61 25 145 0 82 -4 108 -26 165 -52 131 -184 225
-294 210z"/>
</g>
</svg>
