<svg version="1.1" id="Layer_1" xmlns="http://www.w3.org/2000/svg" xmlns:xlink="http://www.w3.org/1999/xlink" x="0px" y="0px"
	 width="100%" viewBox="0 0 1080 1080" enable-background="new 0 0 1080 1080" xml:space="preserve">
<path fill="#427B7D" opacity="1.000000" stroke="none" 
	d="
M904.776489,414.751221 
	C911.965027,409.691681 918.774231,404.710114 925.832275,400.110474 
	C932.505188,395.761688 939.191650,397.373566 945.047180,401.735046 
	C952.571167,407.339386 960.305054,412.899536 966.799500,419.593536 
	C976.924927,430.030182 978.769653,437.164246 968.414673,450.091827 
	C957.815063,463.324829 947.272583,476.604187 936.590881,489.770660 
	C925.794006,503.079041 914.815308,516.239807 903.994263,529.528748 
	C894.535583,541.144592 885.421021,553.050049 875.697754,564.437622 
	C869.928772,571.193970 865.431946,579.673462 856.019836,582.370544 
	C853.230774,583.169739 849.933228,583.531555 847.178528,582.846985 
	C840.573669,581.205566 834.727600,577.449463 832.289978,571.044312 
	C829.781860,564.453918 830.726501,557.741089 835.590576,551.812378 
	C848.016724,536.666199 860.153076,521.282593 872.507874,506.077301 
	C883.314880,492.777008 894.280212,479.605530 905.136963,466.345520 
	C909.386963,461.154755 913.531921,455.877960 917.093140,449.856750 
	C913.345642,452.468231 909.539551,455.000183 905.862061,457.706848 
	C896.634094,464.498505 887.458191,471.360992 878.272461,478.209869 
	C858.564941,492.903809 838.879211,507.627045 819.149780,522.291382 
	C814.711914,525.589844 810.201721,528.802063 805.599915,531.866394 
	C798.541809,536.566345 788.157288,536.789001 782.124939,532.553772 
	C770.682739,524.520203 766.054810,516.136047 769.722046,506.005615 
	C774.783997,492.022461 780.961365,478.422424 787.080444,464.847351 
	C796.651245,443.614746 806.516296,422.513794 816.377197,401.413391 
	C819.879639,393.918701 823.733887,386.588379 827.427551,379.183044 
	C826.991577,378.878174 826.555603,378.573334 826.119629,378.268463 
	C822.145691,383.014435 818.120178,387.718414 814.207886,392.514679 
	C804.425049,404.507874 794.683411,416.534729 784.944092,428.563385 
	C774.271973,441.744171 763.738098,455.039276 752.906921,468.087738 
	C748.168152,473.796661 743.957825,479.979401 736.644592,483.289825 
	C728.750916,486.863037 722.846558,484.403351 716.822021,479.409668 
	C706.830383,471.127686 709.084290,460.108307 714.899658,452.802704 
	C728.649902,435.529022 742.946106,418.691315 756.882141,401.563904 
	C770.597961,384.707092 784.121277,367.693634 797.769775,350.781891 
	C805.115173,341.680328 812.505005,332.613892 819.950378,323.594055 
	C827.086609,314.948761 839.503845,315.124969 849.152588,323.568207 
	C855.714539,329.310242 862.574829,334.720734 869.437195,340.106842 
	C874.137329,343.795837 877.117920,351.568390 874.839600,357.071503 
	C869.976379,368.818085 864.664551,380.378265 859.603210,392.043732 
	C854.616394,403.537506 849.822998,415.116211 844.743164,426.568298 
	C838.443604,440.770233 831.930603,454.877472 825.539185,469.038849 
	C825.234375,469.714264 825.213379,470.517761 824.811462,472.469940 
	C851.986023,452.872131 878.245911,433.934052 904.776489,414.751221 
z"/>
<path fill="#427B7D" opacity="1.000000" stroke="none" 
	d="
M337.941711,332.999908 
	C332.308899,332.157990 327.068878,331.580536 321.962860,330.415771 
	C313.025482,328.376984 303.735474,326.697083 295.957916,332.306976 
	C289.709167,336.814148 284.169617,342.819061 279.693298,349.135834 
	C274.355164,356.668701 270.504974,365.270660 274.526611,374.996094 
	C277.934235,383.236725 285.192047,386.443146 294.130005,384.510101 
	C306.580383,381.817383 315.943634,373.694733 326.343658,367.274323 
	C338.407959,359.826477 350.579956,352.437134 363.257965,346.134216 
	C374.404846,340.592468 386.751831,338.146393 399.090820,341.262726 
	C415.895508,345.506866 428.999512,355.864716 437.433044,370.686768 
	C445.699799,385.215637 447.240540,401.181427 442.753510,417.726746 
	C438.137543,434.747375 428.512665,448.322968 416.617065,460.938934 
	C408.521027,469.525208 399.824432,477.013428 389.636963,482.901764 
	C370.021332,494.239594 349.525635,495.269806 329.016113,486.630493 
	C321.270630,483.367828 313.306580,478.250854 311.866180,468.378632 
	C311.342133,464.787109 311.236633,460.665802 312.486389,457.373077 
	C316.069763,447.932159 327.074097,442.997162 337.126343,445.563965 
	C345.681213,447.748383 354.144470,450.740234 362.837860,451.762451 
	C367.937408,452.362122 373.827942,450.711731 378.621857,448.481201 
	C387.986420,444.123962 394.349365,436.241547 399.848511,427.586853 
	C404.648224,420.032959 406.005798,411.863464 404.938629,403.271149 
	C403.674469,393.092377 393.959442,385.085297 383.036621,385.296692 
	C373.335846,385.484467 365.840759,390.554871 358.206726,395.341797 
	C347.489288,402.062317 337.285583,409.642700 326.338959,415.946808 
	C312.681976,423.811737 298.189148,429.729767 281.836670,427.970795 
	C272.496429,426.966064 264.314819,423.481415 256.738037,417.571289 
	C245.656235,408.927094 238.794754,398.020752 236.046432,384.464142 
	C233.370590,371.265045 236.441376,358.775787 242.092682,346.939087 
	C249.746841,330.907379 262.031158,318.656555 274.901276,306.690002 
	C281.716797,300.352997 289.188782,295.638214 297.521942,292.334076 
	C314.425842,285.631531 331.165863,285.646820 346.896790,296.002838 
	C356.092133,302.056335 358.016083,313.132233 354.897430,322.091766 
	C352.982635,327.592621 344.392181,332.964844 337.941711,332.999908 
z"/>
<path fill="#427B7D" opacity="1.000000" stroke="none" 
	d="
M268.029785,522.153442 
	C265.953369,516.790405 263.712280,511.883820 262.090332,506.780457 
	C260.289368,501.113861 270.532166,489.672699 276.623169,487.911041 
	C287.557678,484.748627 294.980713,490.453522 300.255859,498.124573 
	C314.853241,519.351685 318.076355,542.615723 309.934784,567.271912 
	C305.520905,580.639099 297.664154,591.622498 287.995636,601.777283 
	C279.962463,610.214539 271.580017,618.079651 261.531036,623.846619 
	C244.975006,633.347717 227.169830,636.626099 208.062805,634.273743 
	C195.573181,632.736084 184.077148,628.503174 173.273865,622.776306 
	C157.218750,614.265381 143.402435,602.784485 131.666168,588.650513 
	C124.465477,579.978699 118.754204,570.644348 114.166397,560.480164 
	C109.803268,550.813660 108.011467,540.611389 106.834892,530.102600 
	C105.277977,516.196716 107.698753,503.043365 112.932945,490.410461 
	C120.164223,472.957550 131.427368,458.209869 146.195145,446.518250 
	C155.790192,438.921906 166.764938,433.675690 178.769073,430.337738 
	C194.385132,425.995422 209.628189,425.978088 224.614136,432.090515 
	C234.240280,436.016785 242.463791,444.358337 242.255142,454.892883 
	C242.032074,466.155457 229.991165,474.927917 219.417023,472.801880 
	C210.246643,470.958038 200.941422,469.527588 191.625977,468.723694 
	C178.083603,467.555084 167.762894,474.387695 158.887283,483.707336 
	C150.909698,492.084015 145.968536,502.133942 146.686813,513.780090 
	C147.160141,521.454651 148.893814,529.274048 151.429794,536.552307 
	C156.613510,551.429688 167.917831,561.924744 178.986237,572.527039 
	C186.914307,580.121277 195.661789,586.454590 205.871140,590.344482 
	C224.916962,597.601074 242.357101,595.510986 257.762634,580.973511 
	C265.530548,573.643311 271.154022,565.382019 273.615936,554.967834 
	C275.850067,545.517212 273.264709,536.690857 270.322266,527.899048 
	C269.709595,526.068481 268.872070,524.313110 268.029785,522.153442 
z"/>
<path fill="#427B7D" opacity="1.000000" stroke="none" 
	d="
M442.431641,146.061768 
	C457.608643,143.928787 471.317200,147.341492 483.093658,155.945801 
	C498.045715,166.870331 511.469727,179.764359 514.683777,199.123459 
	C516.486877,209.983978 515.130249,221.124527 509.891754,231.256409 
	C506.352325,238.102097 502.523315,244.798050 498.753387,251.689621 
	C487.230682,243.870941 478.626526,234.179214 474.913147,220.619370 
	C473.535522,215.588882 472.068604,210.490814 469.842316,205.803619 
	C464.953644,195.511230 456.172943,190.248001 445.100861,189.210785 
	C439.320984,188.669327 434.353088,191.579803 429.628906,194.916382 
	C416.771637,203.997162 406.754974,215.911087 396.067261,227.136505 
	C410.836792,240.469101 425.211823,253.445602 439.214264,266.085754 
	C440.756470,264.584473 442.439850,262.945770 443.589691,261.826477 
	C452.037415,269.798889 459.996735,277.310364 468.192657,285.045135 
	C467.263092,286.093231 465.884796,287.647186 464.013245,289.757294 
	C472.511017,297.242645 481.128571,304.541870 489.403412,312.210907 
	C496.571289,318.854034 503.739502,325.572906 510.199066,332.884247 
	C517.578613,341.236938 516.534851,352.134155 508.472870,360.346100 
	C499.112000,369.881195 488.671753,370.869141 478.753204,362.453705 
	C467.461639,352.873322 456.541351,342.852448 445.539490,332.934479 
	C435.680481,324.046783 425.862915,315.110779 416.145477,306.068878 
	C396.156830,287.469635 376.020386,269.019897 356.399841,250.038208 
	C346.427826,240.390884 349.401123,229.540237 356.950378,220.912064 
	C373.401489,202.109772 390.602234,183.931580 408.097534,166.087555 
	C417.445129,156.553650 428.684021,149.344025 442.431641,146.061768 
z"/>
<path fill="#427B7D" opacity="1.000000" stroke="none" 
	d="
M782.357910,269.701416 
	C789.424072,275.412598 796.424927,280.661530 802.896362,286.497589 
	C812.569763,295.221161 809.849365,307.912201 799.300781,314.272247 
	C791.156982,319.182373 785.240479,317.333374 775.863281,309.438812 
	C765.166016,300.432983 754.201477,291.744507 742.758057,282.433990 
	C738.686218,287.516113 734.856323,292.376160 730.941101,297.166412 
	C722.701904,307.246918 714.378906,317.258972 706.163696,327.358765 
	C698.373108,336.936493 690.719238,346.625488 682.926147,356.201172 
	C674.707703,366.299622 666.395630,376.321899 658.124695,386.377594 
	C654.984009,390.195984 651.808838,393.986603 648.710632,397.839111 
	C641.822632,406.404053 629.222900,408.848358 620.077942,400.640167 
	C609.492126,391.138672 608.748291,380.764954 617.876282,369.559326 
	C631.601990,352.709381 645.069458,335.649200 658.783081,318.789337 
	C674.067200,299.998627 689.509521,281.336792 704.865906,262.604858 
	C706.537170,260.566162 708.094910,258.434418 710.068420,255.874954 
	C700.780701,248.302689 691.323486,240.743896 682.050049,232.965958 
	C677.590027,229.225189 673.145874,225.364517 669.295898,221.024658 
	C665.078430,216.270523 665.028503,209.262268 668.663452,203.950516 
	C672.629089,198.155746 677.248291,193.805222 685.335388,194.559372 
	C691.312805,195.116776 695.231689,198.535461 699.406372,201.925293 
	C712.960999,212.931564 726.499817,223.957336 740.015625,235.011200 
	C754.046692,246.486481 768.043823,258.003235 782.357910,269.701416 
z"/>
<path fill="#427B7D" opacity="1.000000" stroke="none" 
	d="
M434.931976,234.058502 
	C430.647980,224.374725 428.833099,214.510284 428.054230,204.414764 
	C427.998047,203.686447 428.253510,202.503555 428.750061,202.228302 
	C435.196472,198.655090 440.955597,192.352081 449.356079,195.297073 
	C458.422852,198.475616 464.837067,204.337402 467.090942,214.289780 
	C470.679871,230.137360 478.637085,242.995071 491.515778,253.572037 
	C504.304871,264.075409 518.883362,269.243805 534.364136,273.163391 
	C536.909302,273.807770 538.553833,273.566345 540.336243,271.300507 
	C545.428101,264.827393 550.847351,258.610992 556.169373,252.320251 
	C557.906738,250.266556 557.677490,248.846237 555.459106,247.115051 
	C545.997498,239.731293 536.629150,232.225174 527.327454,224.640198 
	C521.424377,219.826599 520.845337,209.983871 525.283936,204.098724 
	C532.283264,194.818466 542.225952,196.726898 547.749329,201.208969 
	C561.034729,211.989609 574.431946,222.632355 587.735718,233.390472 
	C590.550598,235.666718 593.595825,237.859039 595.782776,240.674255 
	C603.125610,250.126633 602.059875,257.739685 593.613525,267.921570 
	C583.630554,279.955841 573.976929,292.267059 563.838379,304.166656 
	C560.173035,308.468658 555.042175,310.653961 549.095215,310.607452 
	C529.911499,310.457397 512.364441,303.996948 495.555023,295.776611 
	C486.876343,291.532410 479.085663,285.334137 471.246002,279.542023 
	C455.805206,268.134003 443.852051,253.735687 435.701691,236.277435 
	C435.425293,235.685410 435.228302,235.056305 434.931976,234.058502 
z"/>
<path fill="#427B7D" opacity="1.000000" stroke="none" 
	d="
M464.254944,122.255447 
	C476.457092,109.351456 490.504028,99.593880 506.981537,94.187256 
	C524.929077,88.298286 543.314880,87.885452 561.232178,94.746582 
	C570.821716,98.418739 580.431641,102.365997 589.316589,107.441895 
	C595.946716,111.229599 601.341125,117.138634 607.442200,121.902779 
	C620.355408,131.986298 629.164185,145.159348 635.376892,160.002670 
	C641.750244,175.229889 642.196228,190.961868 635.696655,206.296768 
	C631.696899,215.733643 619.792542,220.753799 611.175476,217.593658 
	C600.502747,213.679672 595.396484,203.360565 597.279907,192.180176 
	C599.865662,176.830963 599.567017,161.583038 588.002869,149.331894 
	C573.878296,134.368088 556.917053,125.175064 535.665588,128.423508 
	C524.758362,130.090759 515.014099,135.550476 506.273102,142.329865 
	C501.132599,146.316757 496.406372,150.837830 491.538940,155.079315 
	C479.506256,145.455963 465.613586,140.449631 448.413208,139.881516 
	C454.144775,133.496094 459.073761,128.004822 464.254944,122.255447 
z"/>
<path fill="#B85D25" opacity="1.000000" stroke="none" 
	d="
M602.000244,875.993896 
	C602.000244,846.360352 601.963989,817.225525 602.046509,788.091064 
	C602.056702,784.495422 602.340088,780.819824 603.135010,777.326416 
	C604.296936,772.219849 608.266846,769.567749 613.142761,769.224426 
	C617.756714,768.899353 621.973755,770.653320 624.025269,775.319153 
	C625.125427,777.821106 625.751099,780.531738 626.640808,783.303650 
	C629.240173,781.170593 632.236084,779.131958 634.724854,776.595581 
	C644.365112,766.770691 669.944580,768.441467 680.258789,777.495667 
	C691.166382,787.070618 695.965332,799.041443 696.926636,812.883667 
	C697.868469,826.446045 696.051575,839.691467 687.883911,851.007568 
	C680.736145,860.910583 671.258301,866.682495 658.316223,867.214661 
	C645.071960,867.759216 634.988892,862.929016 626.000244,852.080688 
	C626.000244,864.576843 626.073914,875.945251 625.949585,887.311523 
	C625.917542,890.238342 625.561951,893.236023 624.829529,896.065063 
	C623.423218,901.497131 618.213074,903.844971 610.179260,902.983215 
	C604.984009,902.425903 603.516724,898.533142 603.075562,894.284912 
	C602.462463,888.380676 602.335388,882.425903 602.000244,875.993896 
M671.999939,819.395447 
	C671.656067,815.467163 671.802979,811.417664 670.869202,807.635010 
	C668.729431,798.967712 664.312927,791.675964 655.089478,789.219543 
	C645.753235,786.733154 636.915955,790.633789 631.618896,799.815857 
	C625.098633,811.118225 624.986816,823.509705 630.693237,834.744507 
	C637.147156,847.451050 649.191589,851.105164 660.944275,843.832581 
	C669.294189,838.665527 671.433472,829.643250 671.999939,819.395447 
z"/>
<path fill="#B85D25" opacity="1.000000" stroke="none" 
	d="
M583.373535,826.298218 
	C581.200684,844.473267 573.665710,858.814026 556.143066,865.142517 
	C544.159668,869.470398 528.600037,868.707764 518.479126,857.909912 
	C517.034912,856.369080 516.038635,854.408386 514.835022,852.642029 
	C514.223450,853.041870 513.611877,853.441772 513.000305,853.841614 
	C513.000305,864.571289 513.051086,875.301453 512.959412,886.030334 
	C512.939941,888.300232 512.583313,890.608337 512.067505,892.825623 
	C509.905823,902.118042 504.751434,905.250916 495.804382,902.854553 
	C491.912964,901.812256 489.177124,896.739319 489.029816,889.802063 
	C488.899048,883.643494 489.000214,877.480042 489.000183,871.318726 
	C488.999969,842.177429 488.899231,813.035339 489.131104,783.895874 
	C489.159332,780.350952 490.382904,776.488770 492.121002,773.368835 
	C494.182251,769.668945 498.500732,768.626892 502.399750,769.359253 
	C507.020142,770.227234 511.089630,772.516663 512.017395,777.958008 
	C512.317871,779.720093 512.850403,781.442566 513.461121,783.935669 
	C515.287109,782.149109 516.965881,780.677734 518.447693,779.029236 
	C528.501648,767.843628 550.324829,767.519043 561.581970,774.076599 
	C574.668396,781.699707 581.471985,793.339233 582.954285,808.157227 
	C583.542542,814.037292 583.410278,819.989502 583.373535,826.298218 
M529.786621,789.931152 
	C526.668640,792.000000 522.768616,793.452881 520.569397,796.245361 
	C511.522125,807.733521 511.483917,827.993774 520.401123,839.678955 
	C527.861389,849.455017 545.413208,850.365295 552.789917,838.865112 
	C559.899292,827.781616 560.364563,816.161316 556.498657,803.924927 
	C553.045166,792.994324 542.886658,786.328003 529.786621,789.931152 
z"/>
<path fill="#B85D25" opacity="1.000000" stroke="none" 
	d="
M277.037750,824.177856 
	C275.984222,823.713074 274.583099,823.114868 274.122192,823.538757 
	C270.692596,826.693359 267.339020,829.950989 264.219971,833.409363 
	C263.363495,834.359070 263.083191,836.092957 263.053650,837.477905 
	C262.929291,843.307251 263.038483,849.141052 262.989563,854.972656 
	C262.926453,862.488586 258.434875,866.978943 251.049332,867.000061 
	C243.484024,867.021729 239.034317,862.850952 239.023987,855.352234 
	C238.973434,818.694275 238.971481,782.036011 239.027435,745.378052 
	C239.038086,738.406860 243.882812,733.993652 251.088074,734.000061 
	C258.478882,734.006714 262.937958,738.151123 262.969391,745.456848 
	C263.054016,765.113892 262.998322,784.771545 262.998322,805.152893 
	C264.427460,803.892334 265.482056,803.057983 266.426971,802.113892 
	C276.091858,792.458191 285.848114,782.890076 295.337830,773.064697 
	C299.213989,769.051453 304.040955,769.206421 308.240234,770.488770 
	C310.912445,771.304871 313.499756,774.840393 314.613678,777.737671 
	C316.231812,781.946167 313.825592,785.744934 310.720032,788.753906 
	C304.887543,794.405212 298.971863,799.970642 292.928528,805.726257 
	C302.061981,820.128906 311.162994,834.485352 320.269775,848.838074 
	C322.938843,853.044678 322.593079,859.952942 319.507141,863.733704 
	C317.307220,866.428955 308.758881,868.900635 305.825104,866.636108 
	C302.270020,863.891846 299.295593,860.118164 296.822815,856.302063 
	C290.046112,845.843933 283.663910,835.130249 277.037750,824.177856 
z"/>
<path fill="#B85D25" opacity="1.000000" stroke="none" 
	d="
M465.232727,866.855469 
	C454.394928,868.880066 450.461700,860.890015 445.613739,854.068665 
	C432.479645,865.600037 417.425873,869.563660 400.546997,865.985840 
	C388.961700,863.530212 380.580475,853.134460 379.885437,842.563599 
	C378.789642,825.897644 389.570831,816.760193 400.502869,814.062256 
	C414.317291,810.653015 428.167511,807.388611 442.000671,804.055176 
	C442.610016,803.908386 443.203766,803.696899 443.752441,803.531372 
	C443.101593,793.600220 441.139984,786.967529 427.388794,786.698364 
	C416.022095,786.475891 408.509155,790.651733 402.931366,800.012085 
	C399.949585,805.015869 395.558746,806.133301 390.151611,803.951416 
	C385.603546,802.116333 383.072174,796.906799 384.137787,791.764893 
	C385.678528,784.330017 389.973969,778.655701 396.518738,775.373779 
	C414.762512,766.225159 433.717224,766.534424 452.623016,773.005676 
	C463.928589,776.875427 467.185547,786.726074 467.878235,797.357544 
	C468.465790,806.375183 467.525848,815.493530 468.133972,824.508423 
	C468.738464,833.469910 470.001526,842.444092 471.768494,851.253723 
	C473.480469,859.788818 472.823914,862.533325 465.232727,866.855469 
M422.300781,850.000916 
	C436.951385,849.679138 445.840790,837.302002 443.559143,820.197388 
	C437.197906,821.704712 430.807434,823.045959 424.519867,824.763733 
	C419.533142,826.126160 414.326294,827.306885 409.838806,829.722900 
	C403.458801,833.157837 403.263397,839.958923 407.928040,845.573059 
	C411.682648,850.091980 416.332581,850.276428 422.300781,850.000916 
z"/>
<path fill="#B85D25" opacity="1.000000" stroke="none" 
	d="
M642.936279,605.371765 
	C642.911743,617.836670 641.300171,629.456970 634.105103,639.572327 
	C625.843384,651.187256 614.485168,657.347290 600.299866,657.945557 
	C590.914185,658.341370 581.538757,658.451111 572.646179,654.276062 
	C558.630188,647.695496 550.409485,636.735413 547.387756,621.754089 
	C544.341858,606.653076 546.115295,592.270020 554.959839,579.335815 
	C563.101562,567.429443 574.813782,561.358337 589.048401,561.168213 
	C597.020203,561.061646 605.487305,561.260681 612.904663,563.767761 
	C630.573364,569.739624 640.059143,583.013611 642.032349,601.597351 
	C642.151733,602.721497 642.600647,603.810669 642.936279,605.371765 
M574.879639,592.497375 
	C570.780273,601.644897 570.180847,610.926880 572.770874,620.699707 
	C574.687805,627.932434 577.896118,634.270081 584.777649,637.117981 
	C597.652588,642.446228 609.600891,638.262634 614.956116,624.640625 
	C618.031311,616.817993 618.566162,608.688538 616.919617,600.491821 
	C615.187378,591.868896 611.286560,584.011780 602.608459,581.240662 
	C590.979675,577.527283 581.420105,579.894958 574.879639,592.497375 
z"/>
<path fill="#B85D25" opacity="1.000000" stroke="none" 
	d="
M453.660492,575.780884 
	C459.066101,566.900513 467.441284,562.512207 476.658112,561.504578 
	C489.732056,560.075317 503.140686,559.530640 515.256653,566.694458 
	C521.857361,570.597229 527.464478,575.063049 527.084656,583.932434 
	C526.909607,588.017212 525.631348,590.951782 521.843201,592.608337 
	C517.637329,594.447693 513.528381,594.716370 509.913483,591.374695 
	C507.101715,588.775513 504.453735,585.998596 501.746582,583.287109 
	C495.773926,577.304810 485.135559,575.645996 478.121765,580.102234 
	C475.978729,581.463806 473.251343,584.286804 473.393677,586.252014 
	C473.565582,588.625122 476.053253,591.958801 478.329193,592.843872 
	C485.749908,595.729675 493.553741,597.616760 501.166351,600.026489 
	C508.950806,602.490479 516.716980,604.679626 523.529663,609.800171 
	C533.713867,617.454834 533.758179,629.600891 529.861755,639.083679 
	C526.430298,647.434875 519.921143,653.091858 511.120758,655.358398 
	C494.815033,659.557922 478.528076,660.431396 462.990021,652.417542 
	C455.191528,648.395447 449.408447,642.460693 449.042053,632.999939 
	C448.818665,627.231567 451.113800,624.464172 456.729279,622.660889 
	C461.746124,621.049805 465.296448,622.834167 468.042633,627.086792 
	C471.797363,632.901184 475.623810,639.044495 483.025909,640.362305 
	C489.282043,641.476135 496.083313,642.807190 501.778900,638.865173 
	C504.471588,637.001465 507.320679,633.517151 507.629883,630.512939 
	C508.037567,626.552002 504.667755,623.362549 500.623474,622.071289 
	C492.849945,619.589111 484.883759,617.669556 477.216125,614.909363 
	C471.120819,612.715149 464.748566,610.456787 459.565369,606.740112 
	C449.543823,599.553955 446.618835,588.232483 453.660492,575.780884 
z"/>
<path fill="#B85D25" opacity="1.000000" stroke="none" 
	d="
M831.822754,844.668762 
	C835.294434,838.571838 833.394592,833.470520 826.499023,831.085022 
	C818.792603,828.419067 810.848755,826.448059 803.072754,823.971863 
	C795.409546,821.531555 788.033813,818.808716 782.061523,812.756958 
	C773.816162,804.402100 774.021301,790.814941 781.781006,781.799988 
	C788.865723,773.569092 798.194458,770.122742 808.959106,769.966858 
	C820.233643,769.803650 831.376343,769.804321 841.566040,775.855469 
	C848.151855,779.766541 853.081238,784.453186 853.057068,792.827759 
	C853.045288,796.902832 851.755310,799.883972 847.929749,801.553101 
	C843.546753,803.465515 839.349304,803.769531 835.630371,800.104553 
	C832.901855,797.415710 830.183899,794.715942 827.476135,792.006226 
	C821.828613,786.354553 811.636536,784.727234 804.697632,788.906921 
	C802.388062,790.298096 799.299316,793.140137 799.427551,795.134888 
	C799.585693,797.593140 802.266174,801.032227 804.674255,801.988464 
	C811.911865,804.862244 819.566467,806.672913 827.021118,809.016663 
	C834.970520,811.516113 842.907593,813.764221 849.790405,819.063843 
	C858.080200,825.446777 859.322815,833.766541 857.467590,842.866211 
	C855.251038,853.738342 848.333557,860.974365 837.655945,864.064453 
	C821.225525,868.819336 804.819580,869.452087 789.106079,861.481873 
	C781.127136,857.434814 775.254517,851.343018 775.039551,841.641663 
	C774.910400,835.813782 777.131836,833.098816 783.043945,831.489990 
	C787.747498,830.209961 791.365051,831.893738 793.999878,835.962708 
	C797.757446,841.765381 801.460510,848.072388 808.912903,849.275635 
	C816.797546,850.548706 825.146301,852.209473 831.822754,844.668762 
z"/>
<path fill="#B85D25" opacity="1.000000" stroke="none" 
	d="
M744.999756,759.019775 
	C744.999695,763.474182 744.999695,767.436523 744.999695,772.000916 
	C748.725281,772.000916 752.004456,771.962341 755.282471,772.009583 
	C760.773132,772.088684 763.804504,774.876465 763.996887,779.947998 
	C764.199097,785.278320 761.296082,788.568542 755.723267,788.947998 
	C752.422058,789.172729 749.093018,788.989075 744.999695,788.989075 
	C744.999695,791.038574 744.999695,792.792236 744.999695,794.545898 
	C744.999817,808.039856 744.999084,821.533875 745.000366,835.027832 
	C745.001465,847.005737 747.603027,849.048218 759.368469,846.312256 
	C764.661926,845.081299 768.779785,846.598328 770.798462,850.523132 
	C773.172058,855.138062 772.298645,858.928650 767.733765,862.688354 
	C766.235596,863.922363 764.428833,865.493347 762.684814,865.597534 
	C753.815125,866.127502 744.567932,867.884583 736.114868,866.091553 
	C723.143311,863.340149 720.542786,855.704041 720.125183,842.860352 
	C719.605713,826.884338 720.000122,810.878662 719.999939,794.885803 
	C719.999939,793.090881 720.000000,791.296021 720.000000,789.609619 
	C708.257751,787.712524 705.863892,786.078308 706.011169,780.334778 
	C706.147705,775.012512 708.864014,773.225525 720.002563,771.380127 
	C720.002563,764.013672 719.892700,756.554321 720.035339,749.099731 
	C720.162048,742.476990 724.214844,737.439575 729.429199,737.007996 
	C738.020752,736.296875 742.398865,739.050903 743.963684,746.764160 
	C744.741394,750.597656 744.681030,754.601135 744.999756,759.019775 
z"/>
<path fill="#B85D25" opacity="1.000000" stroke="none" 
	d="
M340.355225,864.838257 
	C338.709106,861.542114 336.199982,858.517395 336.177399,855.474243 
	C335.905487,818.846375 335.979156,782.215759 336.022644,745.585876 
	C336.030243,739.186768 340.253754,734.328796 345.765869,734.003723 
	C354.585571,733.483582 358.928253,736.477661 359.977814,744.080383 
	C360.516815,747.984741 360.946198,751.941589 360.956024,755.875854 
	C361.034088,787.177551 361.083130,818.480042 360.895752,849.780823 
	C360.871826,853.780090 360.262756,858.200012 358.464447,861.667786 
	C355.572815,867.243774 348.077545,869.227966 340.355225,864.838257 
z"/>
</svg>