<svg version="1.1" id="Layer_1" xmlns="http://www.w3.org/2000/svg" xmlns:xlink="http://www.w3.org/1999/xlink" x="0px" y="0px"
	 width="100%" viewBox="0 0 1080 1080" enable-background="new 0 0 1080 1080" xml:space="preserve">
<path fill="#427B7D" opacity="1.000000" stroke="none" 
	d="
M144.000000,481.000000 
	C144.000000,546.454407 144.000000,611.408752 144.000000,676.680908 
	C366.093750,676.680908 587.666077,676.680908 809.764221,676.680908 
	C809.764221,652.363831 809.764221,628.115540 809.764221,603.940369 
	C818.337708,602.826477 826.396240,601.779541 834.999939,600.661804 
	C834.999939,602.278992 835.000000,604.227966 835.000000,606.176941 
	C835.000061,654.508667 834.708069,702.843018 835.155457,751.170593 
	C835.316162,768.530518 821.849304,786.914978 803.580933,790.900085 
	C800.387451,791.596680 797.053833,791.952637 793.784485,791.955383 
	C724.786865,792.014343 655.789124,792.000000 586.791443,792.000000 
	C584.662903,792.000000 582.534363,792.000000 579.805664,792.000000 
	C581.329590,800.185730 582.673889,807.737122 584.148621,815.263000 
	C587.743713,833.609375 591.462036,851.931946 594.985962,870.291809 
	C595.853027,874.809326 597.182800,877.481750 602.804626,877.160034 
	C612.771667,876.589661 622.817139,877.418945 632.788513,876.887451 
	C643.752258,876.303040 654.541809,886.875122 654.946899,897.201843 
	C655.248962,904.901917 656.089844,912.802795 654.812744,920.294006 
	C652.570618,933.445923 642.232483,940.994263 628.651917,940.995422 
	C527.655273,941.003784 426.658661,941.006836 325.662048,940.959229 
	C323.225708,940.958069 320.761353,940.487671 318.358246,939.999207 
	C305.966797,937.480103 300.557281,929.182129 299.337585,919.401184 
	C298.286530,910.972595 298.944916,902.120300 300.238068,893.668152 
	C301.571259,884.954285 311.634094,876.281128 321.369720,876.842163 
	C332.662598,877.493042 344.024506,876.948730 355.356415,876.909180 
	C355.673828,876.908081 355.990631,876.747375 357.052643,876.458313 
	C363.138062,848.845215 369.298615,820.891113 375.665680,792.000000 
	C372.637207,792.000000 370.545807,792.000000 368.454376,792.000000 
	C298.956696,792.000000 229.458633,792.126343 159.961548,791.922180 
	C139.417953,791.861816 124.212082,777.201355 120.094948,757.932739 
	C119.207054,753.777283 119.044106,749.404175 119.042587,745.131165 
	C118.991325,600.969299 118.969826,456.807434 119.050072,312.645630 
	C119.057549,299.226532 123.655273,287.478455 135.536377,280.287262 
	C140.369217,277.362122 146.477600,275.783203 152.167648,275.215332 
	C160.535660,274.380219 169.048874,275.000031 177.436279,275.000031 
	C178.559631,283.548615 179.603500,291.492340 180.721466,300.000000 
	C178.367142,300.000000 176.071365,299.999603 173.775589,300.000092 
	C140.709122,300.007080 144.009033,296.755524 144.002563,330.006500 
	C143.992783,380.170990 144.000000,430.335510 144.000000,481.000000 
z"/>
<path fill="#B85D25" opacity="1.000000" stroke="none" 
	d="
M775.225952,145.057220 
	C795.493469,140.103622 815.792114,139.928406 835.881958,141.258514 
	C862.750183,143.037460 888.079895,150.787125 910.793274,165.958221 
	C928.445679,177.748901 942.357361,192.842072 951.425659,212.045944 
	C956.827759,223.485947 959.936462,235.560242 961.247986,248.347443 
	C963.207397,267.452240 960.504028,285.529633 951.718567,302.388824 
	C942.465942,320.144623 929.380676,334.961975 913.911560,347.704224 
	C909.064514,351.696777 904.615295,356.175903 900.027588,360.478912 
	C888.786804,371.022278 877.672241,381.702545 866.318787,392.122803 
	C853.841003,403.575134 848.083923,418.223083 844.910217,434.406555 
	C843.095764,443.658936 841.723511,453.173492 835.085876,460.797119 
	C831.055908,465.425781 826.283386,468.557251 820.452820,470.130127 
	C805.316101,474.213379 791.779053,471.781036 780.601135,460.098175 
	C775.258423,454.514252 772.523193,447.515472 772.154053,440.114288 
	C771.337708,423.746643 771.734924,407.407990 777.932800,391.797302 
	C782.949158,379.162109 789.325256,367.378754 798.929016,357.603363 
	C807.632568,348.744354 816.302734,339.839966 825.307495,331.292542 
	C838.152771,319.099670 851.832703,307.743835 864.183960,295.082062 
	C886.656128,272.044891 885.134888,241.426941 863.559753,220.280350 
	C852.659790,209.596893 839.023621,203.739746 823.491089,204.112045 
	C813.637207,204.348221 803.589111,204.657196 794.019165,206.734604 
	C777.966125,210.219315 767.239868,221.405457 760.053711,235.499649 
	C753.974731,247.422333 749.204773,260.021912 744.043152,272.400238 
	C739.083923,284.293549 732.783508,294.893036 719.570984,299.114349 
	C695.533997,306.794006 672.037964,291.754547 668.290710,268.491180 
	C666.114929,254.983292 669.708313,241.623581 674.611938,228.876266 
	C682.224487,209.087021 694.167969,192.140869 710.221252,178.470398 
	C728.549805,162.862335 749.313965,151.446899 772.993835,145.897629 
	C773.625000,145.749710 774.201965,145.370377 775.225952,145.057220 
z"/>
<path fill="#427B7D" opacity="1.000000" stroke="none" 
	d="
M562.893677,463.471741 
	C562.971252,456.358093 562.817871,449.688995 563.028381,443.031403 
	C564.078735,409.817749 579.297729,385.298584 608.672913,369.800476 
	C617.488159,365.149658 626.955139,362.305389 637.155884,362.999390 
	C646.362854,363.625793 655.841980,363.063293 664.723999,365.102814 
	C687.250183,370.275238 703.053162,384.632599 714.203918,404.514709 
	C722.568420,419.428955 724.676453,435.579010 724.022949,452.334259 
	C723.868042,456.305084 724.000000,460.287109 724.000000,462.906342 
	C729.209900,465.712128 734.140442,467.386230 737.664368,470.601837 
	C740.111267,472.834656 741.798035,477.180206 741.820801,480.595215 
	C742.096741,521.910095 742.013794,563.227478 741.988464,604.544189 
	C741.982849,613.794006 736.798157,618.999084 727.765930,618.999329 
	C671.621826,619.000671 615.477783,619.000549 559.333679,618.999390 
	C550.248657,618.999207 545.019653,613.830627 545.013123,604.643799 
	C544.984192,563.826843 544.999268,523.009949 545.000732,482.193024 
	C545.001099,472.979401 548.941101,467.921814 557.891907,465.537689 
	C559.563049,465.092621 561.185547,464.464996 562.893677,463.471741 
M679.513550,415.068817 
	C674.934265,411.128784 670.794678,406.460052 665.694702,403.382935 
	C649.210144,393.436584 631.307922,395.192535 616.668335,406.109161 
	C600.226624,418.369629 592.718079,445.026123 598.860413,464.609772 
	C628.810669,464.609772 658.717896,464.609772 688.875000,464.609772 
	C688.944275,447.462708 691.232483,430.353149 679.513550,415.068817 
M663.697449,532.701965 
	C664.675659,525.938904 664.193848,519.555908 659.530945,513.990723 
	C652.393677,505.472443 638.787476,504.975311 630.753418,510.880524 
	C621.925476,517.369263 620.441528,529.526855 626.502869,539.284119 
	C627.961975,541.632874 628.809937,544.722473 628.890015,547.501587 
	C629.172852,557.325012 628.972473,567.161621 629.012878,576.992981 
	C629.033386,581.985657 630.940857,583.935059 635.813843,583.986328 
	C640.979004,584.040649 646.145447,583.966492 651.310852,584.007507 
	C655.812073,584.043274 658.028442,581.896667 658.006775,577.368225 
	C657.973328,570.369690 657.994080,563.370850 658.001404,556.372131 
	C658.008911,549.175354 656.832275,541.726379 662.584229,535.773865 
	C663.082092,535.258545 663.019287,534.201538 663.697449,532.701965 
z"/>
<path fill="#BF6D3B" opacity="1.000000" stroke="none" 
	d="
M428.017761,222.378021 
	C430.079132,217.471664 434.008057,216.170685 438.437775,216.037354 
	C443.597260,215.882050 448.765228,216.031937 453.929077,215.991348 
	C459.154694,215.950287 462.687683,218.131302 464.109497,223.359802 
	C468.049713,237.849182 472.067017,252.317688 475.973877,266.816010 
	C478.136078,274.839783 480.138062,282.906769 482.516296,292.133972 
	C483.232056,289.925781 483.685272,288.729401 484.008942,287.498901 
	C489.447144,266.825409 494.819672,246.134491 500.320496,225.477737 
	C502.347290,217.866623 505.044952,216.001114 513.069519,215.999817 
	C517.900513,215.999039 522.732971,215.924103 527.562073,216.019775 
	C534.339172,216.154022 537.991333,219.826401 537.994141,226.440384 
	C538.007690,258.258209 538.009155,290.076019 537.991699,321.893829 
	C537.988647,327.455444 535.367981,331.671143 531.330872,332.836761 
	C525.944458,334.391907 520.120300,332.708984 518.010254,328.288727 
	C516.727173,325.600891 516.103149,322.350464 516.083557,319.346893 
	C515.932068,296.032196 515.999939,272.716064 515.266296,249.244751 
	C513.180664,257.418884 511.134308,265.603241 509.001099,273.764954 
	C504.753967,290.014801 500.692230,306.318542 496.094910,322.469360 
	C493.411499,331.896454 491.250000,333.049561 481.572174,333.000061 
	C474.931763,332.966095 471.255890,330.141144 469.017639,322.041504 
	C464.800964,306.782257 460.956909,291.419464 457.017395,276.084412 
	C454.551117,266.484070 452.193268,256.855865 449.000122,247.268799 
	C449.000122,248.952103 449.000122,250.635422 449.000122,252.318726 
	C449.000092,275.140930 449.005066,297.963135 448.997650,320.785339 
	C448.994476,330.514191 443.956146,334.725983 434.462372,332.966339 
	C430.004730,332.140167 427.023132,327.475128 427.012909,321.013489 
	C426.979187,299.690613 427.000061,278.367645 427.000000,257.044708 
	C426.999969,247.549332 426.947083,238.053436 427.044159,228.559052 
	C427.063873,226.633057 427.649384,224.712875 428.017761,222.378021 
z"/>
<path fill="#BF6D3B" opacity="1.000000" stroke="none" 
	d="
M293.737732,227.238815 
	C296.739258,231.875351 300.070343,236.010315 302.087250,240.709351 
	C304.671051,246.729248 302.331268,251.995743 297.123718,254.400009 
	C290.853912,257.294708 285.454468,255.863708 281.756348,250.410843 
	C277.495209,244.127823 273.431763,237.365356 265.519592,235.258926 
	C246.754623,230.263245 227.895813,237.245804 222.788437,259.424469 
	C219.461090,273.873413 219.680969,287.861237 227.979599,300.650299 
	C233.582916,309.285583 241.673172,313.793243 252.339157,314.126007 
	C262.476807,314.442230 272.013519,312.897400 280.833252,307.932800 
	C282.290833,307.112335 283.719574,304.962128 283.857483,303.317139 
	C284.259277,298.523010 284.000122,293.673462 284.000122,287.998718 
	C276.597015,287.998718 269.349518,288.067871 262.104126,287.973969 
	C257.425995,287.913330 253.574768,284.819794 253.084946,280.603333 
	C252.576263,276.224640 255.020721,273.384613 258.814880,271.758484 
	C260.253113,271.142059 261.992767,271.041473 263.597198,271.031036 
	C273.260315,270.968170 282.924103,270.998932 292.587646,270.999908 
	C302.883606,271.000977 306.428955,273.806213 306.849365,284.151917 
	C307.204407,292.887726 306.237000,301.670654 306.064392,310.436859 
	C305.947113,316.394653 302.063660,319.352783 297.632721,322.096436 
	C281.027832,332.378265 262.533508,335.347290 243.846603,332.685028 
	C216.606522,328.804291 200.017090,311.203888 196.836426,282.720856 
	C195.639542,272.002594 196.788193,261.847778 199.690231,251.679855 
	C204.482849,234.887848 215.545349,223.481674 231.781006,218.390671 
	C249.727386,212.763245 268.079407,212.231293 285.513153,221.272873 
	C288.385315,222.762451 290.837189,225.062439 293.737732,227.238815 
z"/>
<path fill="#B85D25" opacity="1.000000" stroke="none" 
	d="
M818.574951,498.010376 
	C832.637451,500.424011 843.226379,507.476837 849.807312,519.568054 
	C852.465027,524.450989 854.218384,530.218933 854.803406,535.751160 
	C855.847839,545.629822 855.371887,555.588257 849.820007,564.465515 
	C842.087158,576.829956 830.837402,583.652039 816.404175,584.944946 
	C805.708069,585.903015 795.443726,584.455872 786.024048,578.589050 
	C774.832642,571.618835 768.623535,561.926208 766.826843,548.732605 
	C765.509460,539.058716 766.461548,529.955444 770.952332,521.565002 
	C778.918030,506.682037 791.288452,498.204376 808.627258,498.005249 
	C811.790588,497.968903 814.954712,498.002441 818.574951,498.010376 
z"/>
<path fill="#427B7D" opacity="1.000000" stroke="none" 
	d="
M338.729156,533.381226 
	C341.341553,541.065796 345.267395,547.696777 352.982025,549.793152 
	C364.492340,552.921082 378.068726,552.112000 383.839386,540.333008 
	C386.749725,534.392456 384.556549,526.439209 378.342041,523.921021 
	C370.471954,520.731934 362.165283,518.627441 354.068939,515.987549 
	C345.357513,513.147034 336.553650,510.936951 329.077759,504.819000 
	C313.207703,491.831726 317.087311,465.044434 334.580078,457.057068 
	C341.576904,453.862244 349.517883,452.073975 357.204803,451.211426 
	C367.917053,450.009430 378.647675,450.833069 388.572632,456.184937 
	C396.098297,460.243073 401.158417,466.158844 403.602997,474.286316 
	C405.052612,479.105743 403.056854,485.370453 399.541626,487.738617 
	C393.769470,491.627319 388.432434,490.513397 384.209473,484.485046 
	C381.390472,480.460815 379.182068,475.801147 375.666290,472.541107 
	C373.038361,470.104309 368.842682,468.550568 365.195221,468.210266 
	C359.726410,467.700104 353.964783,466.982086 348.810577,470.535980 
	C344.958679,473.191864 341.671204,475.864594 341.982758,481.131073 
	C342.278778,486.134705 345.441681,489.212250 349.548676,490.662292 
	C357.574158,493.495728 365.962158,495.297333 374.005188,498.087769 
	C381.567627,500.711517 389.248138,503.390076 396.218231,507.237457 
	C408.013702,513.748413 410.594025,528.218262 408.568085,538.778076 
	C404.615112,559.382263 388.115601,567.784241 369.802643,568.879822 
	C359.442688,569.499512 348.967682,569.794617 339.066376,565.143494 
	C327.623047,559.767944 320.087494,551.288574 317.138519,538.975830 
	C315.781097,533.308167 318.962952,526.122864 323.489441,525.371033 
	C329.604248,524.355469 334.384094,523.630737 338.729156,533.381226 
z"/>
<path fill="#427B7D" opacity="1.000000" stroke="none" 
	d="
M273.173096,453.617249 
	C286.114746,458.842529 296.339142,466.337189 300.488281,480.021851 
	C303.249512,489.128967 298.120544,496.564545 289.565704,495.980835 
	C284.625854,495.643768 282.076385,492.178131 280.092010,488.243530 
	C276.286957,480.698975 271.624176,473.622162 263.138916,471.275360 
	C246.243027,466.602417 231.493958,472.264130 225.413895,492.573700 
	C221.375168,506.064392 221.652267,519.860352 226.929489,533.312195 
	C230.764389,543.087524 240.057571,549.452637 250.411072,550.099609 
	C267.499603,551.167542 275.825378,542.296265 280.399384,529.655029 
	C281.604370,526.324707 284.754974,522.635071 287.922577,521.343811 
	C292.000549,519.681396 296.727020,520.809509 299.741608,525.210632 
	C302.799622,529.675110 301.767181,534.612915 300.446136,538.873596 
	C295.178345,555.863770 279.006927,568.329468 260.541382,568.939575 
	C249.160385,569.315552 237.840820,569.496704 227.074860,564.140991 
	C215.081573,558.174744 207.297302,548.712341 203.120697,536.488159 
	C195.971664,515.564148 196.324493,494.815979 207.476746,475.135223 
	C214.645874,462.483643 226.168549,455.271606 239.998840,452.133667 
	C250.910660,449.657959 262.002350,450.264954 273.173096,453.617249 
z"/>
<path fill="#427B7D" opacity="1.000000" stroke="none" 
	d="
M427.998901,537.999939 
	C427.999237,513.697571 427.989349,489.895172 428.004730,466.092773 
	C428.011322,455.887726 431.904022,452.003845 442.051941,452.000977 
	C455.534424,451.997131 469.017883,452.102509 482.499176,451.975800 
	C502.072571,451.791901 516.406921,465.504761 516.101685,485.394775 
	C515.972168,493.833038 515.173584,501.810333 509.790680,508.698944 
	C502.553253,517.960999 492.449860,521.357300 481.314514,521.904175 
	C471.858765,522.368530 462.362122,521.999939 452.272522,521.999939 
	C452.174072,523.986755 452.016968,525.735779 452.012451,527.485168 
	C451.987518,537.139221 452.034576,546.793579 451.988434,556.447449 
	C451.950958,564.287720 447.603668,568.532898 440.525146,569.110352 
	C432.340576,569.778076 428.260132,563.704529 428.039246,556.475220 
	C427.856293,550.488586 427.999939,544.492065 427.998901,537.999939 
M490.642242,493.806213 
	C494.676453,484.744171 489.628845,472.426849 479.640686,470.885681 
	C474.142151,470.037231 468.588654,469.473877 463.039398,469.051147 
	C459.484833,468.780365 455.892914,469.000427 452.319519,469.000427 
	C452.319519,481.379425 452.319519,492.931824 452.319519,505.381470 
	C461.038208,504.794708 469.470673,504.776031 477.700104,503.474060 
	C482.900513,502.651337 488.324707,500.623840 490.642242,493.806213 
z"/>
<path fill="#BF6D3B" opacity="1.000000" stroke="none" 
	d="
M389.027466,235.000015 
	C385.230347,235.000015 381.928650,235.000015 378.000214,235.000015 
	C378.000214,237.157852 378.000183,238.926743 378.000183,240.695633 
	C378.000092,267.011688 377.971802,293.327789 378.018799,319.643768 
	C378.031372,326.682068 374.130768,333.925690 365.369781,333.123474 
	C358.240723,332.470673 354.025452,328.239471 354.013855,319.904510 
	C353.977173,293.588501 354.000000,267.272430 353.999817,240.956360 
	C353.999817,239.159012 353.999817,237.361649 353.999817,234.999969 
	C344.951569,234.999969 336.345367,235.009750 327.739197,234.996841 
	C320.955048,234.986679 317.013184,231.497055 317.001221,225.527817 
	C316.989197,219.557785 320.946564,216.006302 327.683167,216.003815 
	C353.333008,215.994339 378.982819,215.989624 404.632660,216.007080 
	C411.485565,216.011734 415.018616,219.314621 414.999878,225.577377 
	C414.981506,231.722000 411.381012,234.968765 404.513184,234.996017 
	C399.516479,235.015839 394.519653,234.999969 389.027466,235.000015 
z"/>
<path fill="#427B7D" opacity="1.000000" stroke="none" 
	d="
M637.982727,275.000000 
	C642.455627,275.000000 646.431946,275.000000 650.172485,275.000000 
	C652.071167,279.620758 653.567078,283.969574 655.614807,288.040771 
	C657.570496,291.929047 660.100769,295.528290 662.657288,299.710815 
	C626.944153,299.710815 591.799561,299.710815 556.327271,299.710815 
	C556.327271,291.599518 556.327271,283.697174 556.327271,275.000000 
	C583.402771,275.000000 610.444397,275.000000 637.982727,275.000000 
z"/>
<path fill="#427B7D" opacity="1.000000" stroke="none" 
	d="
M830.316711,302.184570 
	C823.675842,308.100616 817.302002,313.762726 809.998840,320.250366 
	C809.998840,315.989380 810.036926,312.903778 809.990784,309.819458 
	C809.898315,303.633942 806.301270,300.031250 800.047180,300.015137 
	C783.734558,299.973114 767.421692,300.000977 751.000366,300.000977 
	C755.011414,291.702820 758.907471,283.642426 763.076233,275.017944 
	C777.577271,275.017944 792.723999,274.679535 807.846069,275.142792 
	C817.167603,275.428314 831.030090,287.897308 832.735840,296.838776 
	C833.023132,298.344421 831.350647,300.223907 830.316711,302.184570 
z"/>
<path fill="#427B7D" opacity="1.000000" stroke="none" 
	d="
M408.999451,294.821655 
	C408.886566,296.738800 408.774048,298.176086 408.653595,299.714661 
	C404.377869,299.714661 400.479065,299.714661 396.292297,299.714661 
	C396.292297,291.548065 396.292297,283.662994 396.292297,275.387512 
	C400.394531,275.387512 404.408325,275.387512 408.999817,275.387512 
	C408.999817,281.829559 408.999817,288.085693 408.999451,294.821655 
z"/>
<path fill="#427B7D" opacity="1.000000" stroke="none" 
	d="
M325.000092,293.863312 
	C325.000000,287.465393 325.000000,281.548401 325.000000,275.308990 
	C327.949371,275.308990 331.552521,275.308990 335.579407,275.308990 
	C335.579407,283.311646 335.579407,291.337372 335.579407,299.683960 
	C332.244141,299.683960 329.000549,299.683960 325.000183,299.683960 
	C325.000183,297.862244 325.000183,296.103241 325.000092,293.863312 
z"/>
</svg>