<?xml version="1.0" standalone="no"?>
<!DOCTYPE svg PUBLIC "-//W3C//DTD SVG 20010904//EN"
 "http://www.w3.org/TR/2001/REC-SVG-20010904/DTD/svg10.dtd">
<svg version="1.0" xmlns="http://www.w3.org/2000/svg"
 width="2283.000000pt" height="2283.000000pt" viewBox="0 0 2283.000000 2283.000000"
 preserveAspectRatio="xMidYMid meet">

<g transform="translate(0.000000,2283.000000) scale(0.100000,-0.100000)"
fill="#427b7d" stroke="none">
<path d="M1473 20396 c-198 -48 -371 -227 -412 -424 -16 -75 -16 -9209 0
-9284 42 -203 224 -385 427 -427 38 -8 768 -11 2517 -11 l2465 0 0 1965 0
1965 -660 0 -660 0 0 770 0 770 660 0 660 0 0 538 c0 629 10 861 44 1062 88
514 321 919 684 1188 247 183 554 302 917 354 216 31 1226 6 1493 -38 l32 -5
0 -689 0 -689 -522 -4 c-585 -4 -588 -5 -746 -77 -106 -50 -179 -121 -227
-222 -71 -151 -69 -127 -73 -805 l-3 -613 756 0 755 0 0 -22 c0 -13 -43 -354
-95 -758 -52 -404 -95 -740 -95 -747 0 -10 -135 -13 -660 -13 l-660 0 0 -1965
0 -1965 1325 0 c922 0 1340 3 1377 11 203 42 385 224 427 427 16 75 16 9209 0
9284 -42 203 -224 385 -427 427 -83 17 -9229 14 -9299 -3z"/>
<path d="M21028 15690 c-542 -52 -871 -367 -953 -915 -8 -55 -15 -129 -15
-165 0 -36 -3 -102 -7 -147 l-6 -83 -183 0 -184 0 0 -230 0 -230 185 0 185 0
0 -1405 0 -1405 275 0 275 0 0 1405 0 1405 485 0 485 0 0 230 0 230 -495 0
-495 0 0 103 c0 359 90 571 280 663 118 57 184 69 385 69 183 0 223 -5 423
-51 57 -13 106 -24 108 -24 2 0 4 112 4 249 l0 249 -67 12 c-213 37 -525 55
-685 40z"/>
<path d="M12890 15215 l0 -285 285 0 285 0 0 285 0 285 -285 0 -285 0 0 -285z"/>
<path d="M14100 15215 l0 -285 285 0 285 0 0 285 0 285 -285 0 -285 0 0 -285z"/>
<path d="M17735 14459 c-279 -28 -570 -152 -856 -365 -55 -41 -101 -74 -104
-74 -3 0 -5 81 -5 180 l0 180 -270 0 -270 0 0 -1635 0 -1635 270 0 270 0 2
1227 3 1227 115 78 c217 147 464 259 647 294 110 20 346 15 438 -10 211 -58
331 -183 385 -401 42 -172 43 -200 47 -1327 l4 -1088 270 0 270 0 -3 1198 -3
1197 -23 108 c-101 476 -371 758 -795 831 -113 20 -284 26 -392 15z"/>
<path d="M12403 13213 c3 -1056 5 -1178 21 -1271 66 -394 243 -661 531 -803
285 -141 708 -152 1025 -28 142 56 380 196 540 317 30 23 58 42 62 42 5 0 8
-81 8 -180 l0 -180 270 0 270 0 0 1635 0 1635 -270 0 -270 0 0 -1223 0 -1224
-92 -65 c-232 -162 -473 -273 -681 -313 -99 -19 -297 -19 -402 0 -269 48 -418
248 -454 610 -7 71 -11 471 -11 1162 l0 1053 -275 0 -276 0 4 -1167z"/>
<path d="M9770 5100 l0 -2590 345 0 344 0 4 1302 c3 1464 -2 1357 79 1528 69
143 191 246 376 316 152 57 233 69 457 69 162 0 212 -4 264 -18 113 -32 190
-76 267 -152 83 -83 139 -188 179 -336 54 -203 55 -220 55 -1515 l0 -1194 351
0 350 0 -4 1228 c-5 1271 -5 1293 -48 1507 -118 588 -465 883 -1114 946 -168
16 -387 7 -495 -21 -109 -29 -239 -85 -337 -146 -103 -64 -246 -207 -317 -316
-32 -49 -61 -88 -66 -88 -5 0 -6 452 -3 1035 l6 1035 -346 0 -347 0 0 -2590z"/>
<path d="M13990 5100 l0 -2590 350 0 350 0 0 2590 0 2590 -350 0 -350 0 0
-2590z"/>
<path d="M2220 4960 l0 -2450 345 0 345 0 0 1095 0 1095 1025 0 1025 0 0 290
0 290 -1025 0 -1025 0 2 773 3 772 1128 3 1127 2 0 290 0 290 -1475 0 -1475 0
0 -2450z"/>
<path d="M7157 6189 c-442 -51 -781 -253 -1016 -604 -277 -414 -389 -1003
-315 -1645 75 -643 386 -1135 855 -1354 366 -170 862 -202 1423 -90 231 46
656 183 656 212 0 10 -128 394 -133 399 -3 2 -74 -16 -158 -41 -357 -103 -586
-139 -894 -140 -227 -1 -274 4 -405 46 -388 123 -602 483 -627 1056 l-6 142
1183 0 1183 0 -6 258 c-9 344 -28 510 -82 724 -160 622 -555 968 -1187 1037
-110 12 -368 12 -471 0z m413 -469 c287 -46 459 -203 553 -505 49 -158 77
-345 77 -522 l0 -103 -831 0 -832 0 7 103 c24 360 109 643 246 816 76 96 245
184 400 210 77 12 302 13 380 1z"/>
<path d="M16977 6189 c-442 -51 -781 -253 -1016 -604 -277 -414 -389 -1003
-315 -1645 75 -643 386 -1135 855 -1354 366 -170 862 -202 1423 -90 231 46
656 183 656 212 0 10 -128 394 -133 399 -3 2 -74 -16 -158 -41 -357 -103 -586
-139 -894 -140 -227 -1 -274 4 -405 46 -388 123 -602 483 -627 1056 l-6 142
1183 0 1183 0 -6 258 c-9 344 -28 510 -82 724 -160 622 -555 968 -1187 1037
-110 12 -368 12 -471 0z m413 -469 c287 -46 459 -203 553 -505 49 -158 77
-345 77 -522 l0 -103 -831 0 -832 0 7 103 c24 360 109 643 246 816 76 96 245
184 400 210 77 12 302 13 380 1z"/>
<path d="M20945 6189 c-91 -13 -232 -56 -296 -90 -84 -45 -182 -130 -247 -214
l-57 -74 -60 2 -60 2 -56 105 c-67 125 -119 186 -185 220 -47 24 -58 25 -256
28 -171 3 -208 1 -208 -11 0 -7 34 -173 75 -368 l75 -354 0 -1462 0 -1463 350
0 350 0 0 1444 0 1444 53 40 c96 73 206 119 367 153 76 17 148 22 363 26 l267
5 0 283 0 283 -22 6 c-34 9 -383 5 -453 -5z"/>
</g>
</svg>
