<?xml version="1.0" encoding="UTF-8"?>
<svg version="1.1" xmlns="http://www.w3.org/2000/svg" width="1080" height="1080">
<path d="M0 0 C2.16691589 0.00052028 4.33383225 -0.00000389 6.50074768 -0.00151062 C11.02848421 -0.00142134 15.55604106 0.00890897 20.08374023 0.02709961 C25.81844165 0.04966164 31.55287848 0.05034801 37.28761196 0.04358196 C41.76215362 0.04019861 46.23663767 0.04695493 50.71116829 0.0567112 C52.82175454 0.06049809 54.93234729 0.06173927 57.04293633 0.06012535 C94.66909524 0.05531752 133.3412769 3.16291019 162.56640625 29.36328125 C164.04753906 30.62978516 164.04753906 30.62978516 165.55859375 31.921875 C193.51655025 56.17139555 205.59355122 91.67275656 210.56640625 127.36328125 C210.67098145 128.09377686 210.77555664 128.82427246 210.88330078 129.5769043 C216.41604899 175.05134376 210.57083392 227.11665533 183.53515625 265.2265625 C181.61461008 267.67678311 179.62583255 270.02899921 177.56640625 272.36328125 C176.86902344 273.18054688 176.17164063 273.9978125 175.453125 274.83984375 C161.35453204 291.01691489 144.91497234 302.46849758 124.56640625 309.36328125 C123.48746094 309.7396875 122.40851563 310.11609375 121.296875 310.50390625 C101.95368224 316.65334357 81.63579628 316.8291289 61.53515625 316.796875 C58.99938825 316.80145072 56.46362148 316.80676035 53.92785645 316.8127594 C47.98824737 316.82274077 42.04879436 316.81681735 36.10919237 316.80550581 C30.72569836 316.79726784 25.34252225 316.81498114 19.95908689 316.83872265 C14.06973316 316.86369906 8.18054884 316.86603502 2.29115295 316.85960579 C-0.18693275 316.85945352 -2.66502738 316.86541869 -5.14308167 316.87789726 C-38.41440411 317.0220301 -38.41440411 317.0220301 -49.43359375 306.36328125 C-50.26117188 305.59371094 -50.26117188 305.59371094 -51.10546875 304.80859375 C-64.50684834 290.94280992 -61.7294895 265.51324254 -61.69238281 247.7199707 C-61.6950997 245.50522752 -61.69866452 243.29048523 -61.70300293 241.07574463 C-61.71204465 235.11522674 -61.70861734 229.15477884 -61.70224476 223.19425988 C-61.69714378 216.92729026 -61.70188734 210.66032621 -61.70501709 204.39335632 C-61.70887565 193.20558393 -61.70270376 182.017837 -61.69249842 170.8300707 C-61.68355865 160.71702048 -61.68512354 150.60401619 -61.69433594 140.4909668 C-61.70507358 128.69831325 -61.70900513 116.90568203 -61.70311141 105.11302346 C-61.70000714 98.88818173 -61.69953987 92.66337153 -61.70618439 86.43853188 C-61.71199564 80.58690391 -61.70789228 74.73536203 -61.69639587 68.88374329 C-61.69376977 66.74694142 -61.69447895 64.61013222 -61.6989212 62.47333336 C-61.77166125 23.90515046 -61.77166125 23.90515046 -48.90625 10.55859375 C-35.62046333 -1.237002 -16.62205299 -0.0796952 0 0 Z M17.56640625 65.36328125 C17.56640625 126.41328125 17.56640625 187.46328125 17.56640625 250.36328125 C66.31159659 254.42970004 66.31159659 254.42970004 109.56640625 235.36328125 C131.8645436 210.46978693 134.08824377 174.52654959 132.42578125 142.66845703 C131.14381744 123.17313801 127.82565085 104.08218997 115.56640625 88.36328125 C114.94636719 87.56535156 114.32632813 86.76742187 113.6875 85.9453125 C101.75362323 71.55233385 84.08391867 67.88696464 66.29882812 66.140625 C50.12155464 64.81945757 33.74151293 65.36328125 17.56640625 65.36328125 Z " fill="#427A7C" transform="translate(483.43359375,628.63671875)"/>
<path d="M0 0 C15.01047936 13.61371675 25.73106101 30.53015991 27.45166016 51.15087891 C27.59669616 63.83347154 23.50127876 73.66823705 14.86181641 82.83837891 C6.98922034 90.24788109 -1.52401667 91.73614278 -11.99584961 91.62573242 C-19.93635556 91.32434217 -26.14013081 89.17512761 -32.10302734 83.71728516 C-37.7132074 77.63706299 -41.52149812 70.43917764 -45.42333984 63.21337891 C-51.33219719 52.3524644 -57.70030827 41.66116959 -69.90039062 37.3125 C-77.20190709 35.16370124 -83.96304952 34.6957526 -91.54833984 34.77587891 C-92.64662109 34.76427734 -93.74490234 34.75267578 -94.87646484 34.74072266 C-107.77620244 34.7865748 -120.12357276 37.94031107 -129.54833984 47.15087891 C-133.41745335 52.24181773 -134.19304951 56.18728672 -133.93115234 62.56884766 C-133.12338835 68.01713338 -129.714037 71.60934499 -125.44677734 74.87744141 C-111.75893591 84.0589976 -95.03247649 87.29470903 -79.26318359 91.24462891 C7.41261714 112.96331445 7.41261714 112.96331445 29.45166016 149.15087891 C41.56339182 169.46132124 43.31110093 196.95789176 37.70166016 219.65087891 C30.82357582 245.25369285 15.21284711 266.39230722 -7.54052734 279.99414062 C-16.9154628 285.39521604 -26.54337324 289.41396253 -36.92333984 292.46337891 C-37.6995166 292.69379883 -38.47569336 292.92421875 -39.27539062 293.16162109 C-54.25672123 297.27627572 -69.34268975 298.65301405 -84.82739258 298.54199219 C-87.48164374 298.52590434 -90.13436839 298.5419595 -92.78857422 298.56103516 C-108.26222874 298.58091856 -123.92231695 297.20344105 -138.73583984 292.46337891 C-139.55133301 292.2084668 -140.36682617 291.95355469 -141.20703125 291.69091797 C-170.26617499 282.25444724 -192.77982642 263.51160944 -206.86083984 236.27587891 C-212.11668895 225.5429491 -214.85529458 215.20794916 -214.98583984 203.27587891 C-214.99615234 202.50332764 -215.00646484 201.73077637 -215.01708984 200.93481445 C-214.86231958 190.9145147 -211.37829033 183.40428632 -204.54833984 176.15087891 C-196.68444991 168.93182794 -187.56495362 165.81282799 -176.93896484 166.00634766 C-167.07747988 166.60254854 -159.8781554 170.46164618 -152.98583984 177.52587891 C-147.95231403 183.62641941 -144.9100927 191.05259942 -141.54833984 198.15087891 C-133.89212551 214.13408282 -127.11254468 226.91987565 -109.54833984 233.15087891 C-92.84980855 237.99529709 -72.10230754 236.79990136 -56.54833984 228.83837891 C-55.18909753 227.98236753 -53.85440428 227.08602104 -52.54833984 226.15087891 C-51.84193359 225.64814453 -51.13552734 225.14541016 -50.40771484 224.62744141 C-44.08460818 219.63921281 -40.16151956 213.07012479 -38.54833984 205.15087891 C-37.93648121 197.34968129 -40.10442259 189.96865686 -44.92724609 183.77197266 C-58.58404868 170.11517007 -84.37622875 166.63554903 -102.37866211 162.23413086 C-137.20725835 153.7167037 -177.50893105 142.83138608 -197.68554688 110.31835938 C-204.84813958 97.99444058 -208.98174688 84.43887549 -209.54833984 70.15087891 C-209.60828125 69.02939453 -209.60828125 69.02939453 -209.66943359 67.88525391 C-210.28763401 45.92095669 -203.4024663 24.52018038 -188.54833984 8.15087891 C-187.80970703 7.31943359 -187.07107422 6.48798828 -186.31005859 5.63134766 C-143.28306528 -40.2124701 -46.44685605 -40.70259498 0 0 Z " fill="#427A7C" transform="translate(951.54833984375,651.84912109375)"/>
<path d="M0 0 C10.73308337 9.08690494 16.34250878 20.46279285 21.61035156 33.17138672 C22.80970445 36.01245309 24.11389875 38.80132451 25.421875 41.59375 C27.68778541 46.45790434 29.85311256 51.35729886 31.984375 56.28125 C33.86079813 60.61083237 35.76838622 64.89268173 37.921875 69.09375 C40.05248155 73.25052161 41.94254131 77.49596104 43.796875 81.78125 C47.86833132 91.18259277 52.20366477 100.45030528 56.6171875 109.6953125 C60.5074863 117.85316626 64.31484228 126.02719062 67.90283203 134.32275391 C71.6087289 142.87301624 75.60280818 151.28639109 79.6171875 159.6953125 C83.20557637 167.22083392 86.75188228 174.74693558 90.046875 182.40625 C92.15348641 187.30144771 94.37892742 192.09104112 96.796875 196.84375 C99.72616703 202.6097605 102.45367386 208.4468044 105.109375 214.34375 C105.47788574 215.1594043 105.84639648 215.97505859 106.22607422 216.81542969 C111.20134603 227.93292927 114.50881998 238.06001678 116.421875 250.09375 C116.59074219 250.96902344 116.75960938 251.84429688 116.93359375 252.74609375 C119.4283634 268.43899961 112.68122644 286.02756068 104.109375 298.79296875 C102.09172707 301.54388224 99.99045616 303.84624148 97.421875 306.09375 C96.87660156 306.59519531 96.33132813 307.09664062 95.76953125 307.61328125 C87.05691007 315.44892086 75.98269723 318.86739422 64.265625 318.4296875 C51.91940673 316.97120567 42.0554381 311.66326899 33.953125 302.21484375 C28.23394553 294.39014444 24.28990111 285.90157759 20.34082031 277.09716797 C19.03874812 274.25848454 17.60567026 271.49283214 16.171875 268.71875 C12.05407858 260.57803725 8.43044759 252.21707034 4.77246094 243.86181641 C2.20457286 238.01517986 -0.45188708 232.25286727 -3.34521484 226.56054688 C-5.62376761 222.00163654 -7.71575478 217.35637492 -9.828125 212.71875 C-10.30048584 211.68596924 -10.77284668 210.65318848 -11.25952148 209.58911133 C-13.59959601 204.46497229 -15.92330049 199.3339488 -18.22265625 194.19140625 C-18.63161133 193.2772998 -19.04056641 192.36319336 -19.46191406 191.42138672 C-20.23090436 189.69896314 -20.99730379 187.97537983 -21.76074219 186.25048828 C-22.10395508 185.48075684 -22.44716797 184.71102539 -22.80078125 183.91796875 C-23.24562866 182.91382935 -23.24562866 182.91382935 -23.69946289 181.8894043 C-24.65743094 179.83120753 -24.65743094 179.83120753 -26.578125 177.09375 C-27.01568115 178.02421143 -27.4532373 178.95467285 -27.90405273 179.91333008 C-31.78361623 188.16263624 -35.66484198 196.41115765 -39.5484314 204.65856934 C-41.48825564 208.77816752 -43.42647054 212.89851514 -45.36328125 217.01953125 C-48.36311556 223.38965177 -51.38112473 229.73955592 -54.58056641 236.01220703 C-58.5128139 243.72464742 -61.98302527 251.57321139 -65.34350586 259.55102539 C-68.16153063 266.21332776 -71.19928974 272.6938385 -74.578125 279.09375 C-75.238125 279.09375 -75.898125 279.09375 -76.578125 279.09375 C-76.68769531 279.96257812 -76.79726562 280.83140625 -76.91015625 281.7265625 C-79.45154736 294.53755162 -88.03701869 304.72762725 -98.37109375 312.10546875 C-108.39740086 318.32153491 -118.62067357 319.49594408 -130.125 317.46875 C-143.07621854 314.30163979 -153.22026512 306.74485708 -160.23046875 295.42578125 C-169.79488851 278.47173645 -172.77301215 258.81206435 -168.80859375 239.578125 C-166.10027547 230.27605655 -161.66774326 221.63413637 -157.40625 212.9609375 C-153.63950957 205.24364824 -150.22088811 197.3718952 -146.77709961 189.5065918 C-144.28211907 183.83302216 -141.69542028 178.24421082 -138.88891602 172.71850586 C-136.21152822 167.35724749 -133.7216146 161.90594571 -131.203125 156.46875 C-130.91677185 155.85191345 -130.6304187 155.2350769 -130.33538818 154.59954834 C-126.75344314 146.8816874 -123.24620357 139.13889069 -119.88793945 131.32104492 C-118.18902403 127.39784666 -116.34130826 123.58484958 -114.390625 119.78125 C-110.15838141 111.49029444 -106.47537314 102.95118098 -102.75317383 94.42260742 C-102.00910278 92.72648315 -102.00910278 92.72648315 -101.25 90.99609375 C-100.58629395 89.47230103 -100.58629395 89.47230103 -99.90917969 87.91772461 C-98.62173492 85.1862731 -97.13493882 82.67757612 -95.578125 80.09375 C-94.90182368 78.26773643 -94.22777252 76.44085083 -93.56640625 74.609375 C-92.08996526 70.85116156 -90.34462194 67.22623257 -88.62255859 63.57543945 C-80.41131577 46.16110292 -80.41131577 46.16110292 -72.828125 28.46875 C-66.71735232 13.70104936 -60.1581394 2.62052666 -45.578125 -4.90625 C-44.505625 -5.504375 -43.433125 -6.1025 -42.328125 -6.71875 C-28.43570176 -12.71775095 -11.71594787 -8.66270085 0 0 Z " fill="#427A7C" transform="translate(256.578125,633.90625)"/>
<path d="M0 0 C0.33 0 0.66 0 1 0 C0.95286865 1.31266846 0.95286865 1.31266846 0.90478516 2.65185547 C0.80062835 5.99586026 0.72642213 9.33807024 0.67041016 12.68310547 C0.64079853 14.11242371 0.6003007 15.54157034 0.54736328 16.97021484 C-0.10251098 35.00103986 6.49058587 49.77086691 14.28915405 65.71405029 C16.2933846 69.8128453 18.26075924 73.92937005 20.234375 78.04296875 C20.6344426 78.87431335 21.03451019 79.70565796 21.44670105 80.56219482 C25.4750897 88.94794315 29.35040626 97.40035549 33.1875 105.875 C33.48502167 106.53025665 33.78254333 107.18551331 34.08908081 107.86062622 C35.50426047 110.9781256 36.9121247 114.09856787 38.30615234 117.22558594 C39.50492085 119.91308898 40.73523453 122.58401967 41.97900391 125.25097656 C42.628227 126.66978587 43.27716013 128.0887279 43.92578125 129.5078125 C44.2333989 130.15394501 44.54101654 130.80007751 44.85795593 131.46578979 C47.49724314 137.30854886 47.8872614 141.58147345 45.67407227 147.61425781 C45.06866252 148.90047257 44.44864827 150.17988527 43.81640625 151.453125 C43.48551498 152.1467514 43.15462372 152.84037781 42.81370544 153.55502319 C41.74256047 155.79299266 40.65284018 158.0213289 39.5625 160.25 C38.81967995 161.79283969 38.07814797 163.33630018 37.33789062 164.88037109 C35.8855984 167.90554992 34.42669949 170.92737732 32.96142578 173.94628906 C30.59855022 178.81941112 28.2978143 183.72095412 26 188.625 C23.73592249 193.42726918 21.40988477 198.18898169 18.99755859 202.91845703 C15.0653111 210.63089742 11.59509973 218.47946139 8.23461914 226.45727539 C5.41659437 233.11957776 2.37883526 239.6000885 -1 246 C-1.66 246 -2.32 246 -3 246 C-3.10957031 246.86882812 -3.21914062 247.73765625 -3.33203125 248.6328125 C-5.87342236 261.44380162 -14.45889369 271.63387725 -24.79296875 279.01171875 C-34.81927586 285.22778491 -45.04254857 286.40219408 -56.546875 284.375 C-69.49809354 281.20788979 -79.64214012 273.65110708 -86.65234375 262.33203125 C-96.21676351 245.37798645 -99.19488715 225.71831435 -95.23046875 206.484375 C-92.52215047 197.18230655 -88.08961826 188.54038637 -83.828125 179.8671875 C-80.06138457 172.14989824 -76.64276311 164.2781452 -73.19897461 156.4128418 C-70.70399407 150.73927216 -68.11729528 145.15046082 -65.31079102 139.62475586 C-62.63340322 134.26349749 -60.1434896 128.81219571 -57.625 123.375 C-57.33864685 122.75816345 -57.0522937 122.1413269 -56.75726318 121.50579834 C-53.17531814 113.7879374 -49.66807857 106.04514069 -46.30981445 98.22729492 C-44.61089903 94.30409666 -42.76318326 90.49109958 -40.8125 86.6875 C-36.58025641 78.39654444 -32.89724814 69.85743098 -29.17504883 61.32885742 C-28.67900146 60.19810791 -28.1829541 59.0673584 -27.671875 57.90234375 C-27.2294043 56.88648193 -26.78693359 55.87062012 -26.33105469 54.82397461 C-25.04360992 52.0925231 -23.55681382 49.58382612 -22 47 C-21.32369868 45.17398643 -20.64964752 43.34710083 -19.98828125 41.515625 C-18.51462973 37.76451203 -16.77587296 34.14479584 -15.05102539 30.50366211 C-13.12197017 26.4229876 -11.23829703 22.32529587 -9.390625 18.20703125 C-8.94340088 17.21203613 -8.49617676 16.21704102 -8.03540039 15.19189453 C-7.14567943 13.20875631 -6.25937577 11.22408095 -5.37670898 9.23779297 C-4.76291382 7.87291748 -4.76291382 7.87291748 -4.13671875 6.48046875 C-3.77280029 5.66473389 -3.40888184 4.84899902 -3.03393555 4.00854492 C-2 2 -2 2 0 0 Z " fill="#B75D25" transform="translate(183,667)"/>
<path d="M0 0 C4.29 0 8.58 0 13 0 C13.55945313 1.12792969 14.11890625 2.25585938 14.6953125 3.41796875 C25.5527448 24.89042842 39.10039951 44.70077326 55.515625 62.3046875 C57.44022101 64.39269261 59.29671884 66.50596233 61.14453125 68.66015625 C65.67636816 73.85754183 70.55307685 78.69890595 75.4375 83.5625 C76.34048828 84.46935547 77.24347656 85.37621094 78.17382812 86.31054688 C82.08331878 90.2143757 86.00230511 94.07482023 90.16015625 97.71484375 C90.78736572 98.2670459 91.4145752 98.81924805 92.06079102 99.38818359 C94.00873699 101.05193727 94.00873699 101.05193727 96.25366211 102.58056641 C99.47931165 104.97180622 101.66537941 106.60981771 102.62890625 110.61279297 C102.78649039 113.59527477 102.7015899 116.45823391 102.5 119.4375 C102.46390625 120.45521484 102.4278125 121.47292969 102.390625 122.52148438 C102.29684854 125.01828272 102.16583025 127.50712488 102 130 C74.7012754 118.89278254 48.35760668 103.49482342 26.3112793 83.84301758 C25.50321335 83.12318192 24.6951474 82.40334625 23.8625946 81.66169739 C23.24793839 81.11333725 22.63328217 80.56497711 22 80 C21.97710613 112.98628786 21.95948778 145.97257365 21.94893467 178.95886764 C21.94768398 182.85408886 21.94638966 186.74931006 21.94506836 190.64453125 C21.94480605 191.41999261 21.94454374 192.19545396 21.94427348 192.99441415 C21.93992337 205.54700644 21.93203943 218.09959414 21.9228472 230.65218371 C21.91349237 243.53436342 21.90794051 256.41654073 21.90591151 269.2987237 C21.90454009 277.24631574 21.90021008 285.19389483 21.89208353 293.14148289 C21.88616775 299.23791232 21.88554568 305.33433062 21.88689232 311.43076324 C21.88661714 313.93009267 21.8846271 316.42942258 21.88079453 318.92874908 C21.87581762 322.34163689 21.87701652 325.7544693 21.87974548 329.1673584 C21.87683264 330.15570222 21.8739198 331.14404605 21.87091869 332.16233969 C21.88254533 337.54404674 22.26855699 342.67034772 23 348 C23.08175989 349.73952537 23.13015512 351.48118365 23.13371277 353.22262573 C23.14011024 354.65626465 23.14011024 354.65626465 23.14663696 356.11886597 C23.14595718 357.65113327 23.14595718 357.65113327 23.14526367 359.21435547 C23.14862228 360.3113678 23.1519809 361.40838013 23.15544128 362.53863525 C23.16490377 366.14816433 23.16689194 369.7576468 23.16796875 373.3671875 C23.17118427 375.88770568 23.17454856 378.40822367 23.17805481 380.92874146 C23.18403408 386.20591533 23.1859389 391.48307746 23.18530273 396.76025391 C23.18470225 402.83825734 23.19525431 408.91617194 23.2110464 414.9941529 C23.22575631 420.86743702 23.22928923 426.7406863 23.22869301 432.61398697 C23.22986966 435.10095711 23.23427371 437.58792798 23.24202538 440.07488632 C23.25186956 443.5589502 23.24892979 447.04278761 23.24291992 450.52685547 C23.24853943 451.54431854 23.25415894 452.56178162 23.25994873 453.6100769 C23.22788035 460.96032012 23.10617315 468.63012296 19.125 475 C14.59844001 479.26029175 10.65717894 479.3824595 4.625 479.24609375 C1.27632762 478.93215571 -0.50212606 478.27079449 -3 476 C-7.77021031 470.03723711 -8.12547282 464.69967709 -8.12304783 457.26464272 C-8.12420167 456.60938415 -8.12535552 455.95412559 -8.12654433 455.27901071 C-8.12918855 453.08609731 -8.12470696 450.89325752 -8.12025452 448.7003479 C-8.12069067 447.11124605 -8.12156638 445.52214428 -8.12284368 443.93304288 C-8.12508003 439.56838544 -8.12107909 435.20375253 -8.11606562 430.83909822 C-8.11174899 426.13159324 -8.11320841 421.42408965 -8.1139679 416.71658325 C-8.11449236 408.56118059 -8.11135364 400.40578593 -8.10573006 392.25038528 C-8.09760458 380.4590303 -8.09499876 368.66767919 -8.09374207 356.87632172 C-8.0915532 337.74583338 -8.08489757 318.6153493 -8.07543945 299.48486328 C-8.06626107 280.90087912 -8.05918232 262.31689612 -8.05493164 243.73291016 C-8.05466892 242.5874802 -8.05440619 241.44205023 -8.05413551 240.26191027 C-8.05283048 234.51565073 -8.05156677 228.76939117 -8.05032361 223.02313161 C-8.03995613 175.34875146 -8.02234229 127.67437594 -8 80 C-9.10924835 80.91144775 -9.10924835 80.91144775 -10.24090576 81.84130859 C-11.21940491 82.64391113 -12.19790405 83.44651367 -13.20605469 84.2734375 C-14.17242859 85.06669434 -15.13880249 85.85995117 -16.13446045 86.67724609 C-37.42732251 103.93685032 -61.53195134 118.7091315 -87 129 C-87.29403783 125.5226634 -87.46907471 122.04854405 -87.625 118.5625 C-87.70878906 117.58861328 -87.79257813 116.61472656 -87.87890625 115.61132812 C-88.02146143 111.34892823 -87.99098612 108.26231237 -85.29418945 104.82714844 C-83.14202603 102.92604443 -80.92281919 101.14727822 -78.66210938 99.37802124 C-75.35487526 96.63606038 -72.37256262 93.54577488 -69.33984375 90.5078125 C-68.65986328 89.83090866 -67.97988281 89.15400482 -67.27929688 88.45658875 C-65.87413685 87.05696883 -64.47042709 85.65589152 -63.06811523 84.25341797 C-60.94339313 82.13088705 -58.81077855 80.01650709 -56.67773438 77.90234375 C-49.31688884 70.57148512 -42.40406561 63.19009405 -36 55 C-34.5671845 53.28773577 -33.1301423 51.57899302 -31.6875 49.875 C-21.80857873 37.74148171 -13.49855478 24.95768875 -6.15673828 11.15625 C-4.14862939 7.41297905 -2.07004928 3.70929465 0 0 Z " fill="#B75C24" transform="translate(273,127)"/>
<path d="M0 0 C0.66513611 0.00054382 1.33027222 0.00108765 2.01556396 0.00164795 C12.05311092 0.03942968 20.94184802 0.51366587 30.3125 4.375 C31.36824219 4.79910156 32.42398438 5.22320312 33.51171875 5.66015625 C45.06766865 10.86540846 54.06591659 19.28145414 59.4453125 30.80078125 C61.37729841 36.53582051 61.22439065 42.41092782 58.6875 47.875 C54.15134862 52.64989618 50.01613946 53.69827067 43.65625 53.87109375 C37.11074624 52.48562879 33.80447802 47.73686824 30.375 42.5 C25.26437655 35.04631428 25.26437655 35.04631428 18.3125 29.375 C17.66925781 28.96765625 17.02601563 28.5603125 16.36328125 28.140625 C6.99846725 23.36832886 -5.52498955 24.02422751 -15.5546875 26.22265625 C-25.82244872 29.78617338 -33.14374555 36.12124199 -38.40625 45.59375 C-46.42350196 62.99705303 -46.76798915 83.08523906 -41.6875 101.375 C-37.52569466 112.49907782 -31.18387008 121.3392475 -20.27734375 126.40234375 C-13.51832388 128.94079917 -7.65594634 129.73254642 -0.5 129.6875 C0.43328125 129.68186035 1.3665625 129.6762207 2.328125 129.67041016 C13.70851051 129.47058072 22.50355813 126.60458646 32.6953125 121.58203125 C35.3125 120.375 35.3125 120.375 37.3125 120.375 C37.3125 112.455 37.3125 104.535 37.3125 96.375 C35.07210937 96.40980469 32.83171875 96.44460938 30.5234375 96.48046875 C28.33904289 96.50390546 26.15466262 96.52209849 23.97021484 96.53979492 C22.45908273 96.55482543 20.94799382 96.57525564 19.43701172 96.60131836 C17.25737813 96.63795689 15.07832425 96.65478338 12.8984375 96.66796875 C11.5892334 96.6836792 10.2800293 96.69938965 8.93115234 96.71557617 C4.08934564 96.25988056 0.75367363 94.81617363 -2.6875 91.375 C-3.85619075 86.98142574 -4.00217928 83.31903785 -2.5625 79 C-0.3451653 75.89573143 0.80828128 74.92139499 4.3125 73.375 C8.05080914 72.92994346 11.76627495 72.95479081 15.52734375 72.9765625 C16.61584122 72.97369232 17.70433868 72.97082214 18.82582092 72.96786499 C21.12468995 72.96582617 23.4235764 72.97134323 25.72241211 72.98388672 C29.23395776 72.99992672 32.7443497 72.98403905 36.25585938 72.96484375 C38.49219003 72.96682652 40.72851997 72.97067088 42.96484375 72.9765625 C44.53539772 72.96745346 44.53539772 72.96745346 46.13768005 72.9581604 C51.60337713 73.0106633 55.62202578 73.24049362 60.3125 76.375 C64.2787033 80.55559267 65.4183976 83.83226004 65.47363281 89.48168945 C65.48324036 90.27964432 65.4928479 91.07759918 65.50274658 91.8997345 C65.5091214 93.18106514 65.5091214 93.18106514 65.515625 94.48828125 C65.52132507 95.37605759 65.52702515 96.26383392 65.53289795 97.17851257 C65.542333 99.05543837 65.54887599 100.93238062 65.55273438 102.80932617 C65.56242977 105.66680113 65.59346295 108.5235534 65.625 111.38085938 C65.63153172 113.20832908 65.63678153 115.03580391 65.640625 116.86328125 C65.6529718 117.71142899 65.6653186 118.55957672 65.67803955 119.4334259 C65.65359405 126.01020809 64.46933102 130.69530086 60.25 135.9375 C38.91058014 153.64467818 10.87387024 156.11367532 -15.6875 154.375 C-33.93074763 152.44194065 -50.27554162 142.8186911 -61.8046875 128.80078125 C-76.55625202 108.63608897 -79.52039693 83.22324758 -76.19140625 58.87890625 C-75.5357574 55.61547894 -74.72835985 52.53520098 -73.6875 49.375 C-73.33558594 48.27671875 -72.98367188 47.1784375 -72.62109375 46.046875 C-66.44559367 28.519053 -55.25446171 15.83753221 -38.6875 7.375 C-25.78821626 1.85876658 -13.96239859 -0.01921992 0 0 Z " fill="#427A7C" transform="translate(407.6875,277.625)"/>
<path d="M0 0 C1.64355469 -0.10828125 1.64355469 -0.10828125 3.3203125 -0.21875 C10.47061985 1.22702643 14.55168973 6.77840799 18.57421875 12.54296875 C19.91551129 14.58339519 21.24406168 16.6322321 22.5625 18.6875 C23.31210214 19.83599682 24.06296535 20.98367133 24.81494141 22.13061523 C26.52108202 24.73612938 28.22053931 27.34585946 29.91650391 29.95800781 C35.18155425 38.05555756 40.51970489 46.10535654 45.83999634 54.16665649 C47.70200481 56.98973231 49.56179282 59.81425554 51.4206543 62.6394043 C57.66002955 72.12077932 63.91409187 81.59120392 70.23947144 91.01551819 C70.70459137 91.71027756 71.1697113 92.40503693 71.64892578 93.12084961 C72.0565213 93.72803329 72.46411682 94.33521698 72.88406372 94.96080017 C73.875 96.5 73.875 96.5 74.875 98.5 C74.88379936 96.91052551 74.88379936 96.91052551 74.89277649 95.28894043 C74.95008328 85.28430655 75.02288648 75.27988838 75.11071491 65.27547455 C75.15537033 60.13255898 75.19463715 54.98972176 75.22143555 49.84667969 C75.24751661 44.87984669 75.2879531 39.91331592 75.33818626 34.94667053 C75.3548225 33.05538198 75.36635692 31.16404119 75.37261391 29.27268982 C75.38229035 26.61571858 75.41039151 23.95951491 75.44262695 21.30273438 C75.44047432 20.13963242 75.44047432 20.13963242 75.4382782 18.95303345 C75.5465736 12.607967 76.83862623 7.12757906 80.8125 2 C85.72976979 -0.40845867 90.51610876 -0.3339276 95.875 0.5 C99.43742078 2.10070532 101.34468162 4.36231797 103.00627136 7.92689514 C104.27312482 13.13749835 104.16130982 18.20063663 104.1496582 23.54467773 C104.15476913 24.75350616 104.15988007 25.96233459 104.16514587 27.20779419 C104.17664049 30.51160555 104.17911933 33.8151655 104.17658257 37.11897922 C104.17551006 39.88231477 104.18040335 42.64562739 104.185188 45.40895802 C104.19626848 51.93061525 104.19672873 58.45221487 104.19067383 64.97387695 C104.18463368 71.69041683 104.19694931 78.40674723 104.2182439 85.12325138 C104.23588498 90.90094217 104.24185734 96.67856643 104.23860615 102.45628315 C104.23679724 105.90217703 104.23939016 109.34792145 104.25332069 112.79379082 C104.268281 116.63791945 104.25890698 120.48178316 104.24731445 124.32592773 C104.25495819 125.46017685 104.26260193 126.59442596 104.27047729 127.76304626 C104.21959313 135.39983543 103.38467839 140.31203016 98.5625 146.4375 C93.60436339 150.19970416 86.70616129 149.22124049 80.875 148.5 C70.00510356 145.29743086 63.68721277 131.43593094 57.875 122.5 C57.38612305 121.75024902 56.89724609 121.00049805 56.39355469 120.22802734 C53.7088353 116.10991171 51.03016283 111.98791455 48.35546875 107.86328125 C44.74634189 102.29857076 41.12421221 96.74239374 37.5 91.1875 C36.88261963 90.24084473 36.26523926 89.29418945 35.62915039 88.31884766 C32.32046837 83.2460204 29.00924057 78.17487056 25.6953125 73.10546875 C25.01388184 72.06237549 24.33245117 71.01928223 23.63037109 69.94458008 C22.32417655 67.9452151 21.01724737 65.94632981 19.70947266 63.94799805 C19.11956543 63.04476807 18.5296582 62.14153809 17.921875 61.2109375 C17.40463867 60.41993652 16.88740234 59.62893555 16.35449219 58.81396484 C14.81308043 56.40315615 13.34276451 53.9561713 11.875 51.5 C11.86913376 52.54712158 11.86326752 53.59424316 11.85722351 54.6730957 C11.79991385 64.56000208 11.72710919 74.44669026 11.63928509 84.33337402 C11.59463185 89.41575523 11.55536457 94.49805721 11.52856445 99.58056641 C11.50248119 104.4890466 11.46204319 109.39722108 11.41181374 114.30551147 C11.39517898 116.17447089 11.38364364 118.04348314 11.37738609 119.9125061 C11.36770801 122.53834792 11.33960503 125.16341358 11.30737305 127.7890625 C11.30880814 128.55511307 11.31024323 129.32116364 11.3117218 130.11042786 C11.20084547 136.53230485 10.07193857 142.30306143 5.375 147 C0.46366012 149.10485995 -3.86208495 149.41494957 -9.125 148.5 C-13.05648042 146.53036724 -15.50039892 143.5561039 -17.125 139.5 C-17.37947559 137.04116249 -17.37947559 137.04116249 -17.38569641 134.23794556 C-17.39278122 133.17252029 -17.39986603 132.10709503 -17.40716553 131.00938416 C-17.40468811 129.84564774 -17.40221069 128.68191132 -17.3996582 127.48291016 C-17.40476913 126.25326035 -17.40988007 125.02361053 -17.41514587 123.75669861 C-17.42666581 120.38672424 -17.42911512 117.01699581 -17.42658257 113.64701891 C-17.42551227 110.83149768 -17.43039784 108.0159991 -17.435188 105.20048273 C-17.44628164 98.55616394 -17.44672168 91.91190169 -17.44067383 85.26757812 C-17.43463599 78.41927697 -17.44694041 71.57118137 -17.4682439 64.72291529 C-17.48587484 58.83827521 -17.49185883 52.95370045 -17.48860615 47.06903493 C-17.48679521 43.55663361 -17.48941032 40.04437885 -17.50332069 36.5320015 C-17.51825984 32.61321233 -17.50891579 28.69468367 -17.49731445 24.77587891 C-17.50495819 23.61619095 -17.51260193 22.45650299 -17.52047729 21.26167297 C-17.47815488 14.79916448 -17.2155916 9.81078642 -12.58984375 4.85546875 C-8.05677289 1.3890028 -5.70136574 0.26456454 0 0 Z " fill="#B75C24" transform="translate(758.125,457.5)"/>
<path d="M0 0 C1.64355469 -0.10828125 1.64355469 -0.10828125 3.3203125 -0.21875 C10.47061985 1.22702643 14.55168973 6.77840799 18.57421875 12.54296875 C19.91551129 14.58339519 21.24406168 16.6322321 22.5625 18.6875 C23.31210214 19.83599682 24.06296535 20.98367133 24.81494141 22.13061523 C26.52108202 24.73612938 28.22053931 27.34585946 29.91650391 29.95800781 C35.18155425 38.05555756 40.51970489 46.10535654 45.83999634 54.16665649 C47.70200481 56.98973231 49.56179282 59.81425554 51.4206543 62.6394043 C57.66002955 72.12077932 63.91409187 81.59120392 70.23947144 91.01551819 C70.70459137 91.71027756 71.1697113 92.40503693 71.64892578 93.12084961 C72.0565213 93.72803329 72.46411682 94.33521698 72.88406372 94.96080017 C73.875 96.5 73.875 96.5 74.875 98.5 C74.88379936 96.91052551 74.88379936 96.91052551 74.89277649 95.28894043 C74.95008328 85.28430655 75.02288648 75.27988838 75.11071491 65.27547455 C75.15537033 60.13255898 75.19463715 54.98972176 75.22143555 49.84667969 C75.24751661 44.87984669 75.2879531 39.91331592 75.33818626 34.94667053 C75.3548225 33.05538198 75.36635692 31.16404119 75.37261391 29.27268982 C75.38229035 26.61571858 75.41039151 23.95951491 75.44262695 21.30273438 C75.44047432 20.13963242 75.44047432 20.13963242 75.4382782 18.95303345 C75.5465736 12.607967 76.83862623 7.12757906 80.8125 2 C85.72976979 -0.40845867 90.51610876 -0.3339276 95.875 0.5 C99.43742078 2.10070532 101.34468162 4.36231797 103.00627136 7.92689514 C104.27312482 13.13749835 104.16130982 18.20063663 104.1496582 23.54467773 C104.15476913 24.75350616 104.15988007 25.96233459 104.16514587 27.20779419 C104.17664049 30.51160555 104.17911933 33.8151655 104.17658257 37.11897922 C104.17551006 39.88231477 104.18040335 42.64562739 104.185188 45.40895802 C104.19626848 51.93061525 104.19672873 58.45221487 104.19067383 64.97387695 C104.18463368 71.69041683 104.19694931 78.40674723 104.2182439 85.12325138 C104.23588498 90.90094217 104.24185734 96.67856643 104.23860615 102.45628315 C104.23679724 105.90217703 104.23939016 109.34792145 104.25332069 112.79379082 C104.268281 116.63791945 104.25890698 120.48178316 104.24731445 124.32592773 C104.25495819 125.46017685 104.26260193 126.59442596 104.27047729 127.76304626 C104.21959313 135.39983543 103.38467839 140.31203016 98.5625 146.4375 C93.60436339 150.19970416 86.70616129 149.22124049 80.875 148.5 C70.00510356 145.29743086 63.68721277 131.43593094 57.875 122.5 C57.38612305 121.75024902 56.89724609 121.00049805 56.39355469 120.22802734 C53.7088353 116.10991171 51.03016283 111.98791455 48.35546875 107.86328125 C44.74634189 102.29857076 41.12421221 96.74239374 37.5 91.1875 C36.88261963 90.24084473 36.26523926 89.29418945 35.62915039 88.31884766 C32.32046837 83.2460204 29.00924057 78.17487056 25.6953125 73.10546875 C25.01388184 72.06237549 24.33245117 71.01928223 23.63037109 69.94458008 C22.32417655 67.9452151 21.01724737 65.94632981 19.70947266 63.94799805 C19.11956543 63.04476807 18.5296582 62.14153809 17.921875 61.2109375 C17.40463867 60.41993652 16.88740234 59.62893555 16.35449219 58.81396484 C14.81308043 56.40315615 13.34276451 53.9561713 11.875 51.5 C11.86913376 52.54712158 11.86326752 53.59424316 11.85722351 54.6730957 C11.79991385 64.56000208 11.72710919 74.44669026 11.63928509 84.33337402 C11.59463185 89.41575523 11.55536457 94.49805721 11.52856445 99.58056641 C11.50248119 104.4890466 11.46204319 109.39722108 11.41181374 114.30551147 C11.39517898 116.17447089 11.38364364 118.04348314 11.37738609 119.9125061 C11.36770801 122.53834792 11.33960503 125.16341358 11.30737305 127.7890625 C11.30880814 128.55511307 11.31024323 129.32116364 11.3117218 130.11042786 C11.20084547 136.53230485 10.07193857 142.30306143 5.375 147 C0.46366012 149.10485995 -3.86208495 149.41494957 -9.125 148.5 C-13.05648042 146.53036724 -15.50039892 143.5561039 -17.125 139.5 C-17.37947559 137.04116249 -17.37947559 137.04116249 -17.38569641 134.23794556 C-17.39278122 133.17252029 -17.39986603 132.10709503 -17.40716553 131.00938416 C-17.40468811 129.84564774 -17.40221069 128.68191132 -17.3996582 127.48291016 C-17.40476913 126.25326035 -17.40988007 125.02361053 -17.41514587 123.75669861 C-17.42666581 120.38672424 -17.42911512 117.01699581 -17.42658257 113.64701891 C-17.42551227 110.83149768 -17.43039784 108.0159991 -17.435188 105.20048273 C-17.44628164 98.55616394 -17.44672168 91.91190169 -17.44067383 85.26757812 C-17.43463599 78.41927697 -17.44694041 71.57118137 -17.4682439 64.72291529 C-17.48587484 58.83827521 -17.49185883 52.95370045 -17.48860615 47.06903493 C-17.48679521 43.55663361 -17.48941032 40.04437885 -17.50332069 36.5320015 C-17.51825984 32.61321233 -17.50891579 28.69468367 -17.49731445 24.77587891 C-17.50495819 23.61619095 -17.51260193 22.45650299 -17.52047729 21.26167297 C-17.47815488 14.79916448 -17.2155916 9.81078642 -12.58984375 4.85546875 C-8.05677289 1.3890028 -5.70136574 0.26456454 0 0 Z " fill="#B75C24" transform="translate(345.125,457.5)"/>
<path d="M0 0 C4.53861925 2.14987228 6.85253931 4.47903012 9 9 C9.92287116 12.01450885 10.12180446 14.71430349 10.11352539 17.86035156 C10.11340454 18.83439941 10.11328369 19.80844727 10.11315918 20.81201172 C10.10548523 22.33592529 10.10548523 22.33592529 10.09765625 23.890625 C10.09664917 24.83019043 10.09564209 25.76975586 10.09460449 26.73779297 C10.08937916 30.24187442 10.07541788 33.74593846 10.0625 37.25 C10.041875 45.0875 10.02125 52.925 10 61 C31.12 61 52.24 61 74 61 C73.84206853 44.90500033 73.84206853 44.90500033 73.63964844 28.81054688 C73.62795659 26.7799565 73.61776594 24.7493567 73.609375 22.71875 C73.58891113 21.68008789 73.56844727 20.64142578 73.54736328 19.57128906 C73.54433347 13.21474417 74.23837119 8.26504166 78 3 C82.43094435 -0.6742642 86.57008301 -0.50148424 92.1171875 -0.3515625 C96.0210649 0.12452011 98.15730391 1.3030832 101 4 C104.57199173 8.80371302 105.12133451 13.46045444 105.14044189 19.32415771 C105.14615204 20.37820801 105.15186218 21.4322583 105.15774536 22.51824951 C105.15942215 24.23736542 105.15942215 24.23736542 105.16113281 25.99121094 C105.16858017 27.81404602 105.16858017 27.81404602 105.17617798 29.67370605 C105.18826321 33.00037052 105.19573869 36.32697232 105.20018864 39.65365124 C105.20312644 41.73539434 105.20723258 43.81713202 105.21169281 45.89887238 C105.22535703 52.42196938 105.23502874 58.94505389 105.2388947 65.46816421 C105.24337192 72.97987063 105.26090856 80.49139477 105.2898953 88.0030458 C105.31156319 93.82150189 105.32160171 99.63990689 105.32293582 105.45840287 C105.32398027 108.9278632 105.32981069 112.39715193 105.34775543 115.86656952 C105.3674088 119.74150884 105.36292683 123.61622312 105.35644531 127.49121094 C105.3656601 128.62919128 105.37487488 129.76717163 105.3843689 130.93963623 C105.35093973 137.33433934 104.92242842 143.2035163 102 149 C96.83887663 154.03524231 92.99413035 154.35733988 85.98828125 154.2734375 C81.92309038 153.90145925 79.88436831 152.88436831 77 150 C73.24327692 143.49294925 73.61238867 137.21611507 73.70703125 129.84765625 C73.71005249 128.73418823 73.71307373 127.62072021 73.71618652 126.47351074 C73.73181628 122.33641212 73.77370003 118.1994462 73.8125 114.0625 C73.9053125 100.1715625 73.9053125 100.1715625 74 86 C52.88 86 31.76 86 10 86 C10.11848755 103.74037339 10.11848755 103.74037339 10.27026367 121.48046875 C10.27903133 123.71614145 10.2866746 125.95181897 10.29296875 128.1875 C10.30831665 129.33412109 10.32366455 130.48074219 10.33947754 131.66210938 C10.34159174 138.16820389 9.878951 143.12308709 7 149 C1.8325938 153.9153376 -1.96235192 154.46880377 -8.94140625 154.41015625 C-12.89817848 153.87955461 -14.83924137 152.58399692 -17.6953125 149.8984375 C-21.95586919 143.69894483 -21.28960035 136.58978559 -21.2746582 129.38867188 C-21.27976913 128.11971573 -21.28488007 126.85075958 -21.29014587 125.54335022 C-21.30349772 122.07437553 -21.30411895 118.60551003 -21.30158257 115.13651466 C-21.30051053 112.23639222 -21.30540206 109.33629166 -21.310188 106.43617392 C-21.32126941 99.59333746 -21.32172792 92.75055592 -21.31567383 85.90771484 C-21.30963081 78.85601705 -21.32195638 71.80451861 -21.3432439 64.75285482 C-21.3608717 58.68983234 -21.36685951 52.62687325 -21.36360615 46.56382608 C-21.36179544 42.94638041 -21.36440841 39.32907705 -21.37832069 35.71165466 C-21.39325433 31.67808113 -21.38391869 27.64491259 -21.37231445 23.61132812 C-21.37995819 22.4173793 -21.38760193 21.22343048 -21.39547729 19.99330139 C-21.34770539 12.48913488 -20.52626485 7.97969701 -15.5625 2.125 C-11.05173133 -1.36830205 -5.38102518 -0.79718892 0 0 Z " fill="#417A7C" transform="translate(522,278)"/>
<path d="M0 0 C4.53861925 2.14987228 6.85253931 4.47903012 9 9 C9.92287116 12.01450885 10.12180446 14.71430349 10.11352539 17.86035156 C10.11340454 18.83439941 10.11328369 19.80844727 10.11315918 20.81201172 C10.10548523 22.33592529 10.10548523 22.33592529 10.09765625 23.890625 C10.09664917 24.83019043 10.09564209 25.76975586 10.09460449 26.73779297 C10.08937916 30.24187442 10.07541788 33.74593846 10.0625 37.25 C10.041875 45.0875 10.02125 52.925 10 61 C31.12 61 52.24 61 74 61 C73.84206853 44.90500033 73.84206853 44.90500033 73.63964844 28.81054688 C73.62795659 26.7799565 73.61776594 24.7493567 73.609375 22.71875 C73.58891113 21.68008789 73.56844727 20.64142578 73.54736328 19.57128906 C73.54433347 13.21474417 74.23837119 8.26504166 78 3 C82.43094435 -0.6742642 86.57008301 -0.50148424 92.1171875 -0.3515625 C96.0210649 0.12452011 98.15730391 1.3030832 101 4 C104.57199173 8.80371302 105.12133451 13.46045444 105.14044189 19.32415771 C105.14615204 20.37820801 105.15186218 21.4322583 105.15774536 22.51824951 C105.15942215 24.23736542 105.15942215 24.23736542 105.16113281 25.99121094 C105.16858017 27.81404602 105.16858017 27.81404602 105.17617798 29.67370605 C105.18826321 33.00037052 105.19573869 36.32697232 105.20018864 39.65365124 C105.20312644 41.73539434 105.20723258 43.81713202 105.21169281 45.89887238 C105.22535703 52.42196938 105.23502874 58.94505389 105.2388947 65.46816421 C105.24337192 72.97987063 105.26090856 80.49139477 105.2898953 88.0030458 C105.31156319 93.82150189 105.32160171 99.63990689 105.32293582 105.45840287 C105.32398027 108.9278632 105.32981069 112.39715193 105.34775543 115.86656952 C105.3674088 119.74150884 105.36292683 123.61622312 105.35644531 127.49121094 C105.3656601 128.62919128 105.37487488 129.76717163 105.3843689 130.93963623 C105.35093973 137.33433934 104.92242842 143.2035163 102 149 C96.83887663 154.03524231 92.99413035 154.35733988 85.98828125 154.2734375 C81.92309038 153.90145925 79.88436831 152.88436831 77 150 C73.24327692 143.49294925 73.61238867 137.21611507 73.70703125 129.84765625 C73.71005249 128.73418823 73.71307373 127.62072021 73.71618652 126.47351074 C73.73181628 122.33641212 73.77370003 118.1994462 73.8125 114.0625 C73.9053125 100.1715625 73.9053125 100.1715625 74 86 C52.88 86 31.76 86 10 86 C10.11848755 103.74037339 10.11848755 103.74037339 10.27026367 121.48046875 C10.27903133 123.71614145 10.2866746 125.95181897 10.29296875 128.1875 C10.30831665 129.33412109 10.32366455 130.48074219 10.33947754 131.66210938 C10.34159174 138.16820389 9.878951 143.12308709 7 149 C1.8325938 153.9153376 -1.96235192 154.46880377 -8.94140625 154.41015625 C-12.89817848 153.87955461 -14.83924137 152.58399692 -17.6953125 149.8984375 C-21.95586919 143.69894483 -21.28960035 136.58978559 -21.2746582 129.38867188 C-21.27976913 128.11971573 -21.28488007 126.85075958 -21.29014587 125.54335022 C-21.30349772 122.07437553 -21.30411895 118.60551003 -21.30158257 115.13651466 C-21.30051053 112.23639222 -21.30540206 109.33629166 -21.310188 106.43617392 C-21.32126941 99.59333746 -21.32172792 92.75055592 -21.31567383 85.90771484 C-21.30963081 78.85601705 -21.32195638 71.80451861 -21.3432439 64.75285482 C-21.3608717 58.68983234 -21.36685951 52.62687325 -21.36360615 46.56382608 C-21.36179544 42.94638041 -21.36440841 39.32907705 -21.37832069 35.71165466 C-21.39325433 31.67808113 -21.38391869 27.64491259 -21.37231445 23.61132812 C-21.37995819 22.4173793 -21.38760193 21.22343048 -21.39547729 19.99330139 C-21.34770539 12.48913488 -20.52626485 7.97969701 -15.5625 2.125 C-11.05173133 -1.36830205 -5.38102518 -0.79718892 0 0 Z " fill="#417A7C" transform="translate(97,278)"/>
<path d="M0 0 C0.89773636 -0.00817749 1.79547272 -0.01635498 2.72041321 -0.02478027 C5.6999952 -0.04965155 8.67952948 -0.06615531 11.65917969 -0.08056641 C13.18423756 -0.08855192 13.18423756 -0.08855192 14.74010468 -0.09669876 C20.12213894 -0.12343871 25.50414995 -0.14281035 30.88623047 -0.15722656 C36.44602876 -0.17387054 42.00523384 -0.21864408 47.56480789 -0.26959801 C51.83879274 -0.30325325 56.11263656 -0.31480217 60.38674164 -0.32045364 C62.43606852 -0.32717156 64.48538595 -0.3424076 66.53458405 -0.36634445 C69.40505792 -0.39795967 72.27392901 -0.39803808 75.14453125 -0.390625 C75.98943619 -0.40703033 76.83434113 -0.42343567 77.70484924 -0.44033813 C81.87970276 -0.39625946 84.53230249 -0.07152237 87.84832764 2.58676147 C91.00909219 5.90460461 91.29823004 7.64339117 91.50292969 12.04443359 C91.18601821 16.00582705 89.43226506 18.12771621 86.66497803 20.80439758 C83.41183753 22.73972225 80.9480865 22.55295919 77.17578125 22.53344727 C76.10688911 22.53410439 76.10688911 22.53410439 75.0164032 22.53477478 C72.66788048 22.53268961 70.32007724 22.5093723 67.97167969 22.48583984 C66.34072255 22.4802429 64.70976037 22.47597327 63.07879639 22.47297668 C58.79117855 22.46153558 54.50386675 22.43207487 50.21636963 22.39886475 C45.06937484 22.36274507 39.92227758 22.34899919 34.77519226 22.33150482 C26.96026704 22.30243691 19.14601302 22.2449451 11.33105469 22.19287109 C11.33105469 34.07287109 11.33105469 45.95287109 11.33105469 58.19287109 C16.10960937 58.15806641 20.88816406 58.12326172 25.81152344 58.08740234 C28.84213465 58.07207042 31.87269791 58.05762836 34.90332031 58.04638672 C39.71177117 58.02846586 44.52005035 58.00728461 49.32836914 57.96655273 C53.20575655 57.93391313 57.0829598 57.91600843 60.96047401 57.90823936 C62.43843802 57.90270408 63.91639215 57.8918949 65.39427757 57.87568092 C67.46741751 57.85384468 69.53980033 57.85090664 71.61303711 57.85229492 C72.79218185 57.84563309 73.9713266 57.83897125 75.186203 57.83210754 C78.66605798 58.2313012 80.52633776 59.13789176 83.33105469 61.19287109 C85.68962933 64.2253242 85.69039385 67.45352924 85.58496094 71.22802734 C85.20748001 74.14914902 84.18964096 75.93601633 82.33105469 78.19287109 C78.8484516 80.48906882 75.83321682 80.43536043 71.7265625 80.41992188 C71.07248917 80.42021393 70.41841583 80.42050598 69.74452209 80.42080688 C67.59093786 80.41941785 65.4377032 80.40387717 63.28417969 80.38818359 C61.78774199 80.38445194 60.29130185 80.38160569 58.79486084 80.37960815 C54.86241878 80.37198369 50.93012522 80.35234548 46.9977417 80.3302002 C42.27622038 80.30611263 37.55464933 80.29695512 32.83308411 80.28529358 C25.6656378 80.2659203 18.49851709 80.2275897 11.33105469 80.19287109 C11.33105469 93.72287109 11.33105469 107.25287109 11.33105469 121.19287109 C16.67550781 121.13486328 22.01996094 121.07685547 27.52636719 121.01708984 C30.91702263 120.99153482 34.30755895 120.96746491 37.69824219 120.94873047 C43.07740002 120.91886809 48.45613135 120.88358371 53.83496094 120.81567383 C58.17273499 120.7612519 62.51005155 120.73142923 66.84814072 120.71848488 C68.50116043 120.70926316 70.15415577 120.69125479 71.80698013 120.66422081 C74.12691119 120.62779277 76.44496458 120.62293113 78.76513672 120.62524414 C80.08417999 120.61414108 81.40322327 120.60303802 82.76223755 120.59159851 C87.43186207 121.37833459 89.01553603 122.87748919 92.33105469 126.19287109 C94.0732718 129.67730532 93.91780623 133.39174154 93.33105469 137.19287109 C91.6285375 140.26756632 89.5187896 142.59900364 86.33105469 144.19287109 C83.37281604 144.30723966 80.4375949 144.36074531 77.47851562 144.36987305 C76.56127213 144.37644424 75.64402863 144.38301544 74.69898987 144.38978577 C71.65446903 144.40954414 68.60999759 144.42118746 65.56542969 144.43115234 C64.52665932 144.43522787 63.48788895 144.4393034 62.41764069 144.44350243 C56.91889137 144.46437471 51.4201671 144.47867101 45.92138672 144.48803711 C40.24061578 144.49909966 34.56023675 144.53349469 28.87960434 144.57320881 C24.51297272 144.59935244 20.14643475 144.60772699 15.77973175 144.61131859 C13.68576666 144.61619092 11.59180592 144.62782324 9.49791718 144.64635658 C6.56535298 144.6706981 3.63380612 144.66979189 0.70117188 144.6628418 C-0.59423775 144.68205688 -0.59423775 144.68205688 -1.91581726 144.70166016 C-7.31221416 144.65509437 -10.39265371 143.79113407 -14.66894531 140.19287109 C-17.94695701 135.67147565 -18.7902706 131.78762483 -18.80938721 126.28594971 C-18.81509735 125.29914215 -18.8208075 124.31233459 -18.82669067 123.29562378 C-18.82780853 122.2191861 -18.82892639 121.14274841 -18.83007812 120.03369141 C-18.83504303 118.89503632 -18.84000793 117.75638123 -18.84512329 116.58322144 C-18.85974019 112.81247353 -18.86654634 109.04176769 -18.87207031 105.27099609 C-18.87782236 102.65028889 -18.88358009 100.02958169 -18.88934326 97.40887451 C-18.89891033 92.61374299 -18.90480967 87.81862054 -18.90784001 83.02348065 C-18.91231685 75.97925311 -18.92985006 68.93521998 -18.95884061 61.89105153 C-18.98311821 55.77856027 -18.99078708 49.66614886 -18.99251556 43.55361176 C-18.99553996 40.95892021 -19.00356125 38.36422944 -19.01670074 35.7695694 C-19.03378658 32.13610682 -19.03187437 28.50311554 -19.02539062 24.86962891 C-19.03460541 23.80128815 -19.04382019 22.73294739 -19.05331421 21.63223267 C-19.01880037 15.44676549 -18.35210106 10.79965174 -15.66894531 5.19287109 C-10.53459892 0.30898062 -6.85490486 0.03423386 0 0 Z " fill="#B85C24" transform="translate(624.6689453125,459.80712890625)"/>
<path d="M0 0 C14.59433 8.38510596 24.12723485 20.24858198 28.6484375 36.609375 C30.15792956 42.92126463 30.42456808 48.90771676 30.3125 55.375 C30.29904541 56.46917236 30.28559082 57.56334473 30.27172852 58.69067383 C30.01108463 72.79579978 28.2623622 83.68019662 21 96 C20.54753906 96.77214844 20.09507812 97.54429687 19.62890625 98.33984375 C13.75280661 107.14527497 4.15648295 113.56068687 -5.94140625 116.41015625 C-17.32763753 118.60596841 -28.959207 117.03350879 -39.08203125 111.234375 C-52.85243838 101.66478974 -61.05173677 87.92523132 -64.56787109 71.64941406 C-67.01572195 56.64146065 -66.03272728 40.96617685 -60 27 C-59.58105469 25.98292969 -59.16210938 24.96585938 -58.73046875 23.91796875 C-56.43381411 18.82158274 -54.84876411 16.83742492 -50 14 C-48.39923193 12.41268376 -46.83832118 10.78448816 -45.3125 9.125 C-33.68434925 -2.76309451 -15.4603394 -7.38895978 0 0 Z " fill="#427A7C" transform="translate(152,835)"/>
<path d="M0 0 C1.34375702 -0.00856522 1.34375702 -0.00856522 2.71466064 -0.01730347 C3.70014389 -0.01842133 4.68562714 -0.01953918 5.70097351 -0.02069092 C7.25481247 -0.02813828 7.25481247 -0.02813828 8.84004211 -0.03573608 C12.27896277 -0.05038297 15.71783729 -0.05716407 19.15678406 -0.06268311 C21.54091392 -0.06843266 23.92504376 -0.07419042 26.30917358 -0.07995605 C31.31363644 -0.09047337 36.31808319 -0.09631119 41.32255554 -0.09979248 C47.73871908 -0.10527742 54.15467043 -0.12930258 60.5707674 -0.15776443 C65.49752425 -0.17637828 70.42422987 -0.18159576 75.35101891 -0.18312836 C77.71653083 -0.18615845 80.08204179 -0.19419893 82.4475193 -0.20731354 C85.756127 -0.22434679 89.06421489 -0.22250016 92.37284851 -0.21600342 C93.35225906 -0.2252182 94.33166962 -0.23443298 95.34075928 -0.243927 C100.29422382 -0.21342089 103.72094782 -0.11136369 107.73100281 3.14044189 C110.70305737 6.21864126 111.47593033 8.88923393 111.73100281 13.14044189 C110.74358341 17.62871186 109.29209259 20.22682298 105.73100281 23.14044189 C101.84639234 24.43531205 98.17216325 24.26370229 94.12553406 24.23809814 C93.28632919 24.2366832 92.44712433 24.23526825 91.58248901 24.23381042 C88.90279065 24.22821405 86.22317591 24.21566224 83.54350281 24.20294189 C81.72644672 24.19792642 79.90938933 24.1933636 78.09233093 24.18927002 C73.63852268 24.17824581 69.18477692 24.16098368 64.73100281 24.14044189 C64.73376819 24.69482437 64.73653357 25.24920685 64.73938274 25.82038879 C64.80574838 39.33404274 64.85514297 52.84766798 64.88643932 66.3614502 C64.90208376 72.89672933 64.9233001 79.43189069 64.95732117 85.96710205 C64.98995762 92.27594152 65.00786501 98.58466782 65.01563454 104.89358521 C65.0211703 107.2984902 65.03198028 109.70338913 65.04819298 112.10824585 C65.07002371 115.48109237 65.0729673 118.8534734 65.07157898 122.22637939 C65.08236481 123.21684769 65.09315063 124.20731598 65.10426331 125.22779846 C65.07153396 132.59381838 64.0732421 138.25768584 59.29350281 144.14044189 C54.75920599 147.49286686 49.05719475 146.91489504 43.73100281 146.14044189 C39.10234742 144.11032988 37.22162728 141.94474421 35.33608055 137.28814507 C34.12370143 132.98484599 34.34316054 128.59449159 34.39042664 124.15631104 C34.38976952 122.53080826 34.38976952 122.53080826 34.38909912 120.87246704 C34.39118161 117.30665794 34.4144879 113.74132467 34.43803406 110.17559814 C34.44363191 107.69695798 34.44790112 105.21831448 34.45089722 102.7396698 C34.46233098 96.22782161 34.49178585 89.71617535 34.52500916 83.20440674 C34.55737077 76.55486867 34.56940935 69.90527168 34.58451843 63.25567627 C34.61665668 50.21717885 34.66725579 37.17882113 34.73100281 24.14044189 C33.58099792 24.16138916 32.43099304 24.18233643 31.24613953 24.20391846 C26.96355225 24.27653252 22.68101898 24.32231918 18.397995 24.36016846 C16.54731585 24.38023528 14.69669972 24.40749535 12.84623718 24.44219971 C10.18006304 24.49093622 7.51472994 24.51345977 4.84819031 24.53106689 C4.02608063 24.55171204 3.20397095 24.57235718 2.35694885 24.59362793 C-2.99936637 24.59570169 -6.01930322 23.70257639 -10.26899719 20.14044189 C-12.76075489 16.3486367 -12.48094603 12.6486041 -11.88618469 8.29669189 C-10.92485651 4.9381276 -8.96515071 3.24475683 -6.26899719 1.14044189 C-3.94306237 -0.02252552 -2.59033929 0.00986963 0 0 Z " fill="#B75C24" transform="translate(891.2689971923828,459.85955810546875)"/>
<path d="M0 0 C1.34375702 -0.00856522 1.34375702 -0.00856522 2.71466064 -0.01730347 C3.70014389 -0.01842133 4.68562714 -0.01953918 5.70097351 -0.02069092 C7.25481247 -0.02813828 7.25481247 -0.02813828 8.84004211 -0.03573608 C12.27896277 -0.05038297 15.71783729 -0.05716407 19.15678406 -0.06268311 C21.54091392 -0.06843266 23.92504376 -0.07419042 26.30917358 -0.07995605 C31.31363644 -0.09047337 36.31808319 -0.09631119 41.32255554 -0.09979248 C47.73871908 -0.10527742 54.15467043 -0.12930258 60.5707674 -0.15776443 C65.49752425 -0.17637828 70.42422987 -0.18159576 75.35101891 -0.18312836 C77.71653083 -0.18615845 80.08204179 -0.19419893 82.4475193 -0.20731354 C85.756127 -0.22434679 89.06421489 -0.22250016 92.37284851 -0.21600342 C93.35225906 -0.2252182 94.33166962 -0.23443298 95.34075928 -0.243927 C100.29422382 -0.21342089 103.72094782 -0.11136369 107.73100281 3.14044189 C110.70305737 6.21864126 111.47593033 8.88923393 111.73100281 13.14044189 C110.74358341 17.62871186 109.29209259 20.22682298 105.73100281 23.14044189 C101.84639234 24.43531205 98.17216325 24.26370229 94.12553406 24.23809814 C93.28632919 24.2366832 92.44712433 24.23526825 91.58248901 24.23381042 C88.90279065 24.22821405 86.22317591 24.21566224 83.54350281 24.20294189 C81.72644672 24.19792642 79.90938933 24.1933636 78.09233093 24.18927002 C73.63852268 24.17824581 69.18477692 24.16098368 64.73100281 24.14044189 C64.73376819 24.69482437 64.73653357 25.24920685 64.73938274 25.82038879 C64.80574838 39.33404274 64.85514297 52.84766798 64.88643932 66.3614502 C64.90208376 72.89672933 64.9233001 79.43189069 64.95732117 85.96710205 C64.98995762 92.27594152 65.00786501 98.58466782 65.01563454 104.89358521 C65.0211703 107.2984902 65.03198028 109.70338913 65.04819298 112.10824585 C65.07002371 115.48109237 65.0729673 118.8534734 65.07157898 122.22637939 C65.08236481 123.21684769 65.09315063 124.20731598 65.10426331 125.22779846 C65.07153396 132.59381838 64.0732421 138.25768584 59.29350281 144.14044189 C54.75920599 147.49286686 49.05719475 146.91489504 43.73100281 146.14044189 C39.10234742 144.11032988 37.22162728 141.94474421 35.33608055 137.28814507 C34.12370143 132.98484599 34.34316054 128.59449159 34.39042664 124.15631104 C34.38976952 122.53080826 34.38976952 122.53080826 34.38909912 120.87246704 C34.39118161 117.30665794 34.4144879 113.74132467 34.43803406 110.17559814 C34.44363191 107.69695798 34.44790112 105.21831448 34.45089722 102.7396698 C34.46233098 96.22782161 34.49178585 89.71617535 34.52500916 83.20440674 C34.55737077 76.55486867 34.56940935 69.90527168 34.58451843 63.25567627 C34.61665668 50.21717885 34.66725579 37.17882113 34.73100281 24.14044189 C33.58099792 24.16138916 32.43099304 24.18233643 31.24613953 24.20391846 C26.96355225 24.27653252 22.68101898 24.32231918 18.397995 24.36016846 C16.54731585 24.38023528 14.69669972 24.40749535 12.84623718 24.44219971 C10.18006304 24.49093622 7.51472994 24.51345977 4.84819031 24.53106689 C4.02608063 24.55171204 3.20397095 24.57235718 2.35694885 24.59362793 C-2.99936637 24.59570169 -6.01930322 23.70257639 -10.26899719 20.14044189 C-12.76075489 16.3486367 -12.48094603 12.6486041 -11.88618469 8.29669189 C-10.92485651 4.9381276 -8.96515071 3.24475683 -6.26899719 1.14044189 C-3.94306237 -0.02252552 -2.59033929 0.00986963 0 0 Z " fill="#B75C24" transform="translate(478.2689971923828,459.85955810546875)"/>
</svg>
