<svg version="1.1" id="Layer_1" xmlns="http://www.w3.org/2000/svg" xmlns:xlink="http://www.w3.org/1999/xlink" x="0px" y="0px"
	 width="100%" viewBox="0 0 1080 1080" enable-background="new 0 0 1080 1080" xml:space="preserve">
<path fill="#457C7E" opacity="1.000000" stroke="none" 
	d="
M829.834412,679.982239 
	C828.909729,692.477417 828.090759,704.981567 827.036865,717.465820 
	C825.229065,738.882324 819.793457,759.505310 812.617249,779.661926 
	C805.249146,800.357788 795.121399,819.698853 783.326172,838.244934 
	C769.702881,859.665405 752.763977,878.243896 734.108398,895.141724 
	C712.146545,915.034302 687.237671,930.618469 660.024414,942.615112 
	C640.075134,951.409546 619.415710,957.673584 598.131287,961.905151 
	C575.753662,966.354065 553.035767,966.685059 530.332581,965.944885 
	C501.496826,965.004944 473.674988,958.843018 446.614899,948.923950 
	C422.504059,940.085876 400.131592,928.018066 379.326874,913.054993 
	C361.527802,900.253723 345.681030,885.313110 331.193085,868.835083 
	C317.862885,853.673889 306.592896,837.182434 296.785583,819.575195 
	C285.460480,799.242920 276.826843,777.859802 271.070526,755.348145 
	C266.790649,738.610535 263.165039,721.746948 262.917847,704.318115 
	C262.788696,695.212402 262.007172,686.115906 261.494843,676.539307 
	C192.490417,660.290894 136.263412,623.540344 94.147591,566.038635 
	C64.835602,526.018372 46.348068,481.047913 42.262615,431.549683 
	C32.234138,310.047394 79.667458,216.550995 183.450073,152.645981 
	C211.378906,135.448578 242.525482,125.092155 275.248535,119.852341 
	C308.045288,114.600716 340.643127,114.419563 373.412537,119.908646 
	C406.000946,125.367416 436.524475,136.427460 465.108093,152.749115 
	C493.837097,169.153793 519.076782,189.981644 539.004944,213.423477 
	C546.120117,207.362534 553.203735,201.855881 559.675537,195.705460 
	C572.981018,183.060562 587.289062,171.836105 602.534729,161.563049 
	C625.012695,146.416550 649.309143,135.282532 675.103760,127.709236 
	C690.298157,123.248184 706.058960,119.948097 721.792969,118.291527 
	C740.542114,116.317513 759.609619,115.299156 778.405640,116.321106 
	C806.879700,117.869263 834.560852,124.274780 861.211731,134.951218 
	C880.706055,142.760696 899.264709,152.225662 916.605408,163.988739 
	C924.889709,169.608429 932.968079,175.643661 940.515320,182.208572 
	C949.404358,189.940521 957.865906,198.208817 966.068970,206.674637 
	C981.620422,222.724335 994.256592,240.921997 1005.229980,260.393219 
	C1015.299500,278.260468 1023.173401,296.981689 1029.239136,316.518768 
	C1034.021851,331.923340 1037.997192,347.551453 1038.919067,363.685638 
	C1039.996826,382.549774 1040.721924,401.454132 1040.817993,420.345001 
	C1040.859497,428.501495 1039.567139,436.808472 1037.778931,444.800659 
	C1034.097046,461.256409 1030.602661,477.851562 1025.349121,493.836578 
	C1016.359680,521.188721 1002.613159,546.247681 985.233643,569.281494 
	C973.227844,585.193237 959.719055,599.618774 944.807617,612.876526 
	C926.965759,628.739807 907.555115,642.395508 886.152466,652.632507 
	C869.340149,660.674072 851.388977,666.342651 833.904236,672.961365 
	C831.236084,673.971497 827.965942,674.038391 829.032349,678.755859 
	C829.462524,679.499878 829.644714,679.743835 829.834412,679.982239 
M772.215820,152.007690 
	C757.329956,152.667328 742.431396,153.121689 727.561523,154.039749 
	C709.892212,155.130646 692.876648,159.772034 676.292358,165.517731 
	C656.044250,172.532791 637.034424,182.233810 619.201111,194.301361 
	C597.781738,208.795532 579.483887,226.485336 563.440857,246.128281 
	C594.215454,294.995636 608.912109,347.972595 607.988831,405.503906 
	C616.766418,407.844788 625.487183,409.538605 633.754761,412.498260 
	C655.454712,420.266327 676.901306,428.850983 695.939148,442.099091 
	C710.360840,452.134888 724.720032,462.423706 738.025757,473.858124 
	C754.201233,487.758667 768.098022,504.106506 779.745605,521.948975 
	C788.861206,535.912781 796.778870,550.754822 804.153748,565.735779 
	C814.716919,587.193420 821.306396,610.048767 824.975647,633.701721 
	C825.362061,636.192749 825.870117,637.363831 828.753479,636.196777 
	C841.345215,631.100647 854.126038,626.455872 866.612915,621.120117 
	C887.216187,612.315979 905.182129,599.207581 921.758728,584.463623 
	C937.962097,570.051697 952.285339,553.787170 964.262695,535.520386 
	C979.830139,511.778351 991.420410,486.282257 997.758972,458.666260 
	C1001.129089,443.983093 1003.762451,428.946808 1004.741150,413.940338 
	C1006.359070,389.131683 1004.105225,364.462799 997.979492,340.210754 
	C991.566711,314.822601 981.767578,290.843719 967.801270,268.762085 
	C955.672363,249.585526 941.980408,231.433975 924.278198,216.955215 
	C911.445984,206.459702 898.407349,196.029739 884.470032,187.120285 
	C867.692322,176.395065 849.500977,168.068375 830.091309,163.005569 
	C818.533508,159.990845 806.850647,157.401443 795.135315,155.065353 
	C787.896973,153.621979 780.492065,153.013855 772.215820,152.007690 
M482.458038,208.980148 
	C481.501831,208.342468 480.483032,207.781128 479.598724,207.055786 
	C463.900818,194.179337 446.706024,183.774902 428.384003,175.025436 
	C400.258698,161.594498 370.517426,154.455261 339.650574,152.164780 
	C320.291870,150.728256 300.809235,151.835403 281.730225,155.403000 
	C268.414520,157.892929 255.240082,161.662491 242.389664,166.005814 
	C216.471771,174.765793 193.001114,188.098679 171.331131,204.933136 
	C153.007019,219.168320 136.955521,235.551620 123.593742,254.274017 
	C105.059593,280.243896 90.876221,308.570251 84.124100,340.021149 
	C81.062584,354.281464 78.077812,368.763916 77.338142,383.261932 
	C76.522942,399.240295 77.639267,415.419647 79.211159,431.383759 
	C80.393982,443.396423 82.490326,455.576660 86.217232,467.018768 
	C91.332016,482.721802 97.775490,498.074402 104.728722,513.077026 
	C115.292496,535.870056 130.723434,555.487549 148.144699,573.359802 
	C157.096512,582.543335 167.120132,590.829468 177.387512,598.553162 
	C200.188660,615.705505 225.526932,628.095703 252.838211,636.391541 
	C256.550446,637.519165 260.342499,638.383972 264.459198,639.465454 
	C265.393860,635.800903 266.273987,632.840576 266.883759,629.825684 
	C267.535004,626.605591 267.714783,623.282593 268.472565,620.092896 
	C275.045044,592.426147 284.898651,566.037476 299.232330,541.391541 
	C314.181732,515.686768 332.341766,492.695618 354.517303,472.699890 
	C367.689209,460.822723 381.711487,450.296539 396.651764,440.917206 
	C419.368439,426.655945 443.772827,416.121887 469.655853,409.143036 
	C473.150208,408.200867 473.959900,406.789612 474.082123,403.474304 
	C474.533112,391.243988 475.374451,379.028717 475.965912,366.802795 
	C476.871033,348.094025 481.651794,330.126801 487.155151,312.431335 
	C494.110199,290.068085 504.248718,269.039246 516.430725,249.007462 
	C517.154114,247.817963 517.457214,245.359573 516.740967,244.472687 
	C512.177795,238.822098 507.498871,233.226669 502.424286,228.037231 
	C496.162384,221.633560 489.477997,215.643021 482.458038,208.980148 
M302.369598,682.038025 
	C298.774750,681.381958 297.666412,683.003418 297.961273,686.442139 
	C298.441406,692.041016 298.359650,697.700317 299.060577,703.265442 
	C300.414276,714.013123 301.294159,724.928711 303.933838,735.379822 
	C307.500061,749.499329 311.948730,763.468750 317.073547,777.106201 
	C327.007416,803.541016 342.387634,826.831543 361.304504,847.625732 
	C378.044495,866.027161 396.769745,882.217163 418.353424,894.942139 
	C436.436493,905.603271 455.379089,914.163879 475.534393,920.036438 
	C491.828278,924.783813 508.375549,927.766602 525.345093,929.214294 
	C546.623596,931.029663 567.690857,929.959167 588.622681,926.547424 
	C605.816711,923.744934 622.496033,918.763794 638.625183,912.011353 
	C659.997192,903.064026 680.086060,891.925049 698.102600,877.304749 
	C704.942627,871.754028 711.411255,865.722473 717.809326,859.657104 
	C723.620178,854.148438 729.809509,848.826050 734.583008,842.481873 
	C743.638794,830.446228 752.177002,817.976318 760.238037,805.248474 
	C769.960876,789.896606 777.114319,773.192322 781.853516,755.695312 
	C785.917908,740.689697 789.130005,725.397095 791.682922,710.058960 
	C793.242004,700.692078 792.842407,690.999207 793.328491,681.333313 
	C692.005676,690.974243 608.059387,658.323547 541.289185,584.128052 
	C529.963928,594.817566 518.871704,605.664734 507.368073,616.056396 
	C490.172455,631.589661 470.840027,644.178894 449.866241,653.818542 
	C434.545410,660.860107 418.725311,667.244202 402.539032,671.854553 
	C386.050812,676.550964 368.953857,679.632080 351.914856,681.710693 
	C337.805481,683.432007 323.393158,682.701843 309.113220,682.955811 
	C307.173645,682.990295 305.223541,682.431580 302.369598,682.038025 
M602.971436,454.282990 
	C599.828979,466.167328 597.307678,478.259827 593.410645,489.891388 
	C586.000549,512.008667 576.178955,533.085449 563.023132,552.964966 
	C622.843445,623.051697 697.963623,654.250488 789.600647,645.229492 
	C789.831360,643.776184 789.971985,643.434326 789.922974,643.122314 
	C786.041321,618.439941 778.247681,594.994263 767.217834,572.634827 
	C757.929504,553.805664 746.149658,536.647888 732.384216,520.747498 
	C719.317810,505.654449 704.688293,492.388000 688.487671,480.824768 
	C666.131226,464.867859 641.678406,453.105713 615.391968,445.237946 
	C602.833191,441.479034 605.372681,441.552063 602.971436,454.282990 
M333.999878,554.500732 
	C317.007721,582.605164 305.702759,612.749756 300.945007,645.559204 
	C306.270569,646.066040 311.171204,646.876587 316.081146,646.937378 
	C333.116302,647.148499 350.032196,646.098999 366.889465,643.141541 
	C387.888885,639.457397 407.992737,633.148621 427.271729,624.247864 
	C445.093536,616.019836 461.709412,605.846619 477.197662,593.611633 
	C491.786560,582.087097 504.844910,569.204224 516.520081,554.840271 
	C517.285706,553.898315 517.536072,551.740906 516.999512,550.656982 
	C509.430695,535.366455 501.151093,520.405212 494.120026,504.876862 
	C486.037476,487.026276 481.382721,468.010345 478.091400,448.717407 
	C477.544678,445.512543 476.765686,444.964142 473.701630,445.902496 
	C451.740570,452.627991 431.112915,462.199646 411.809296,474.607422 
	C390.967133,488.004150 372.298645,504.005188 356.578918,523.139465 
	C348.574554,532.882507 341.815674,543.648804 333.999878,554.500732 
M570.548584,374.064911 
	C568.101257,355.003906 564.717224,336.112854 557.844910,318.103668 
	C553.023254,305.468445 547.364136,293.152771 542.079041,280.694397 
	C541.482910,280.823334 540.886841,280.952271 540.290710,281.081207 
	C519.991211,318.269653 510.179199,358.115021 510.024292,399.992432 
	C531.008667,399.992432 551.370117,399.992432 570.884827,399.992432 
	C570.884827,391.097626 570.884827,383.015564 570.548584,374.064911 
z"/>
<path fill="#467C7E" opacity="1.000000" stroke="none" 
	d="
M829.829956,679.727844 
	C829.644714,679.743835 829.462524,679.499878 829.159302,679.061523 
	C829.295776,679.072937 829.560669,679.273193 829.829956,679.727844 
z"/>
<path fill="#457C7E" opacity="1.000000" stroke="none" 
	d="
M678.207886,376.702515 
	C675.000732,373.029541 674.209290,369.328918 675.896667,365.016052 
	C683.971924,344.376495 691.934875,323.692963 700.000488,303.049622 
	C703.943970,292.956451 707.783813,282.811615 712.122986,272.887970 
	C715.323242,265.569061 721.374756,262.279144 729.346558,263.062744 
	C736.573120,263.773102 741.321106,268.005127 744.022217,274.653961 
	C752.366882,295.194427 760.784912,315.705444 769.041504,336.281219 
	C772.891663,345.875946 776.568787,355.545593 780.070496,365.272644 
	C782.311768,371.498291 779.711487,377.743530 774.203857,379.805664 
	C766.845947,382.560516 761.455872,379.838501 758.765442,374.222351 
	C756.148743,368.760223 754.050110,363.029938 752.028259,357.309906 
	C750.742310,353.671906 749.164551,351.734314 744.695923,351.865356 
	C731.719116,352.245819 718.723877,352.000214 705.747620,352.000214 
	C702.762817,359.344971 699.890564,366.445190 696.992798,373.535004 
	C693.522949,382.024689 685.317261,383.543396 678.207886,376.702515 
M729.911255,296.696625 
	C729.189697,295.413330 728.468140,294.130005 727.005249,291.528259 
	C721.778381,306.084381 717.043213,319.271362 712.172119,332.836700 
	C722.828674,332.836700 732.455017,332.836700 742.819763,332.836700 
	C738.497742,320.796204 734.309387,309.128113 729.911255,296.696625 
z"/>
<path fill="#457C7E" opacity="1.000000" stroke="none" 
	d="
M794.680908,290.722015 
	C802.244751,275.892609 814.422180,267.531738 829.930420,264.210724 
	C845.718506,260.829803 860.737793,263.365112 873.972961,273.063721 
	C881.286865,278.423279 886.856812,285.239716 888.764160,294.506226 
	C889.892883,299.990143 887.348816,306.027649 882.854431,307.939850 
	C877.598267,310.176208 872.802612,308.564972 869.146240,303.422516 
	C865.479187,298.264984 862.638428,292.042511 857.878662,288.231018 
	C844.842773,277.792328 825.754028,281.878540 818.205322,297.049408 
	C809.341797,314.862701 809.070923,333.234406 819.969971,350.613190 
	C827.493774,362.610168 848.067078,364.727051 858.421936,355.100342 
	C862.981201,350.861755 866.292114,345.986572 868.161011,339.952057 
	C870.143372,333.551514 873.817993,331.424835 880.525635,332.022644 
	C885.036499,332.424622 888.425415,335.163208 888.716797,339.318756 
	C889.052612,344.107544 888.688904,349.446442 886.852844,353.796814 
	C880.122620,369.743347 867.589783,378.079956 850.406311,380.087097 
	C836.234192,381.742493 822.665649,380.444183 810.738953,372.220428 
	C797.828552,363.318390 791.180298,350.386566 788.963440,334.970764 
	C787.103088,322.034241 787.504700,309.328918 791.956421,296.924622 
	C792.676270,294.918915 793.627563,292.996246 794.680908,290.722015 
z"/>
<path fill="#457C7E" opacity="1.000000" stroke="none" 
	d="
M373.059540,290.869080 
	C377.369446,306.555908 381.616302,321.833221 385.863190,337.110504 
	C386.269775,337.140015 386.676331,337.169495 387.082916,337.198975 
	C388.352203,332.152679 389.726654,327.130066 390.871490,322.055695 
	C394.623413,305.426361 398.251190,288.769012 402.009735,272.141205 
	C403.845215,264.020966 409.460297,259.940063 416.825470,262.207458 
	C423.280090,264.194550 426.669586,269.012665 424.606598,277.661865 
	C419.853241,297.590363 414.775146,317.441284 409.851288,337.329254 
	C407.528687,346.710449 405.189331,356.088348 402.979980,365.496490 
	C399.957275,378.368378 391.078918,382.296753 379.647858,376.954376 
	C377.138092,375.781464 375.001404,372.256317 374.135223,369.380035 
	C369.505127,354.005005 365.302277,338.500610 361.014313,323.023560 
	C358.914886,315.445862 356.980377,307.822449 354.882935,300.244171 
	C354.658508,299.433319 353.841766,298.786407 352.766083,297.351501 
	C349.699738,308.812347 346.910156,319.497711 343.974823,330.142883 
	C340.447571,342.934814 336.858856,355.710632 333.168884,368.456421 
	C331.610382,373.839752 328.365204,377.999298 322.545135,378.863037 
	C316.630890,379.740723 310.395111,379.586975 307.206177,373.461212 
	C304.823242,368.883759 303.384308,363.722687 302.115356,358.673126 
	C295.763702,333.398682 289.588226,308.079773 283.408295,282.762482 
	C282.748322,280.058868 282.174805,277.276520 282.054871,274.509277 
	C281.657684,265.344757 287.637146,260.042999 296.528961,262.264313 
	C299.045044,262.892883 302.185974,265.730377 302.877441,268.168243 
	C306.628967,281.395050 309.825012,294.785370 312.968781,308.176544 
	C315.215149,317.745148 317.065643,327.406464 319.144409,337.015259 
	C319.266296,337.578705 319.851166,338.041992 320.545685,339.000671 
	C323.451752,327.951233 326.206268,317.377075 329.017120,306.817932 
	C332.053406,295.411865 335.034119,283.989166 338.251617,272.633942 
	C339.996429,266.476135 345.820160,262.331055 351.732056,261.955811 
	C361.898102,261.310638 365.780090,265.811707 367.849884,272.004578 
	C369.871704,278.053864 371.304932,284.299896 373.059540,290.869080 
z"/>
<path fill="#457C7E" opacity="1.000000" stroke="none" 
	d="
M176.000000,338.000000 
	C176.000076,316.343445 175.995163,295.186920 176.003235,274.030365 
	C176.005707,267.536774 179.922455,262.507507 185.321030,262.012115 
	C193.201172,261.289001 198.164474,264.636841 198.916626,272.182404 
	C199.719299,280.234894 199.748276,288.369781 199.973312,296.472626 
	C200.116013,301.611450 200.000000,306.757507 200.000000,312.997650 
	C209.176285,303.377136 217.603500,294.432831 226.155701,285.609650 
	C233.224030,278.317352 240.250031,270.964752 247.667267,264.037689 
	C251.642593,260.325073 260.100983,261.457214 263.967102,265.476288 
	C267.590179,269.242706 267.792053,276.617798 263.716919,280.658234 
	C254.202347,290.091827 244.380035,299.215057 234.423447,308.710907 
	C244.654480,323.330414 255.034866,338.040466 265.267487,352.852539 
	C268.796143,357.960419 272.462524,362.925476 272.152374,369.868256 
	C271.932129,374.798523 269.161926,377.268616 265.459625,378.664886 
	C258.454315,381.306824 251.140015,377.910034 247.135803,371.541931 
	C237.526932,356.260529 227.653625,341.145416 217.432465,325.256561 
	C215.484528,327.130371 214.184494,328.869171 212.469955,329.951080 
	C201.195801,337.065247 198.063553,347.372467 199.881927,360.029663 
	C200.335327,363.185516 199.457642,366.571320 198.962906,369.816559 
	C197.963715,376.370789 193.227646,379.556213 185.583267,378.991547 
	C179.808655,378.565002 176.043961,374.303528 176.013443,367.986206 
	C175.965958,358.157654 176.000320,348.328766 176.000000,338.000000 
z"/>
<path fill="#457C7E" opacity="1.000000" stroke="none" 
	d="
M575.000000,798.983093 
	C574.998535,802.645203 575.099487,805.814758 574.974792,808.975525 
	C574.692383,816.134338 569.501770,821.173218 562.729919,820.992249 
	C556.259583,820.819336 551.164795,815.678833 551.037476,808.851685 
	C550.891479,801.023743 551.000305,793.191101 551.000183,785.360474 
	C550.999695,763.201538 550.989441,741.042603 551.005493,718.883667 
	C551.011780,710.228271 556.062012,705.084534 564.808289,705.023560 
	C577.303345,704.936462 589.818665,704.582397 602.288025,705.155396 
	C610.074280,705.513306 617.938965,706.503296 624.820740,711.218750 
	C631.936646,716.094604 636.075562,722.782471 637.405884,731.009033 
	C638.894409,740.213989 638.948364,749.540527 634.312927,758.051697 
	C629.240417,767.365173 620.761108,772.527222 610.629578,773.799805 
	C600.806824,775.033508 590.783142,774.672607 580.847046,774.992676 
	C579.192688,775.045959 577.535217,775.000122 575.000000,775.000122 
	C575.000000,782.991638 575.000000,790.739075 575.000000,798.983093 
M575.015137,726.795532 
	C575.015137,736.705750 575.015137,746.616028 575.015137,756.996948 
	C580.939087,756.996948 586.283630,757.503052 591.483704,756.853271 
	C596.592896,756.214905 601.809143,754.991089 606.519714,752.960205 
	C612.740417,750.278259 614.692261,744.402771 613.855652,738.124268 
	C613.089844,732.378052 610.384521,726.922180 603.982910,726.080566 
	C594.891541,724.885437 585.664734,724.704529 576.489563,724.206909 
	C576.044312,724.182800 575.538391,725.277649 575.015137,726.795532 
z"/>
<path fill="#457C7E" opacity="1.000000" stroke="none" 
	d="
M524.793640,819.000000 
	C506.164307,818.999878 488.008179,819.014832 469.852081,818.993591 
	C460.354156,818.982483 456.010712,814.612427 456.005829,805.059631 
	C455.990784,775.576782 455.983734,746.093872 456.009491,716.611023 
	C456.018433,706.385803 464.463623,700.445068 473.756439,704.463013 
	C478.651306,706.579468 480.003448,711.281616 480.002228,716.358765 
	C479.996094,741.677368 479.999756,766.996033 480.000000,792.314636 
	C480.000031,794.290466 480.000031,796.266296 480.000031,799.000000 
	C482.800873,799.000000 485.225769,799.000000 487.650635,799.000000 
	C500.143372,799.000000 512.636108,798.996521 525.128845,799.001221 
	C534.402039,799.004761 536.988281,801.160767 536.999634,808.874146 
	C537.011047,816.661438 534.349548,818.958435 524.793640,819.000000 
z"/>
</svg>