<svg version="1.1" id="Layer_1" xmlns="http://www.w3.org/2000/svg" xmlns:xlink="http://www.w3.org/1999/xlink" x="0px" y="0px"
	 width="100%" viewBox="0 0 1920 1920" enable-background="new 0 0 1920 1920" xml:space="preserve">
<path fill="#427B7D" opacity="1.000000" stroke="none" 
	d="
M1028.750000,852.250000 
	C1173.248169,996.748291 1317.413818,1141.079468 1461.902588,1285.086182 
	C1473.357422,1296.502808 1473.344604,1317.500977 1461.924561,1328.888184 
	C1302.007446,1488.343506 1142.321289,1648.030884 982.864136,1807.946167 
	C971.508423,1819.334473 950.513428,1819.364380 939.062805,1807.880127 
	C779.728821,1648.077515 620.165894,1488.502563 460.345825,1329.186035 
	C448.665680,1317.542725 448.584778,1296.520874 460.501343,1284.643799 
	C620.334412,1125.340332 779.887451,965.755493 939.233948,805.965210 
	C950.517639,794.650085 971.859680,794.252991 982.663086,805.883484 
	C997.405273,821.754272 1013.172302,836.673096 1028.750000,852.250000 
M729.500122,1166.000122 
	C682.550537,1212.948242 635.601013,1259.896240 589.385742,1306.109985 
	C713.829834,1430.554443 837.741821,1554.466797 961.165894,1677.891235 
	C1084.635864,1554.421265 1208.548950,1430.508301 1331.716919,1307.340454 
	C1208.082397,1183.705933 1084.087769,1059.711304 959.937317,935.560852 
	C883.645325,1011.853271 806.822571,1088.676514 729.500122,1166.000122 
z"/>
<path fill="#427B7D" opacity="1.000000" stroke="none" 
	d="
M1129.000000,58.000000 
	C1172.161011,58.000000 1214.827637,57.587410 1257.480469,58.178974 
	C1277.939941,58.462738 1298.376465,60.594818 1318.816895,61.985844 
	C1333.440674,62.981018 1347.307251,66.998802 1360.243896,73.751755 
	C1374.077148,80.972755 1386.000732,90.845352 1396.603638,102.245193 
	C1415.131226,122.165680 1427.111206,145.821686 1434.163940,171.813507 
	C1437.842041,185.368378 1439.889038,199.421402 1441.863892,213.364014 
	C1443.273438,223.314987 1443.863159,233.455154 1443.892578,243.513641 
	C1443.957764,265.821747 1441.731934,287.854523 1436.369019,309.660889 
	C1430.999390,331.493958 1422.551636,351.781128 1410.192627,370.476318 
	C1396.399048,391.341370 1379.218506,408.775635 1356.184570,419.089294 
	C1345.355225,423.938202 1333.646729,427.470093 1321.972290,429.629974 
	C1305.354126,432.704498 1288.442139,435.167206 1271.581543,435.750427 
	C1237.502563,436.929199 1203.373779,436.668732 1169.265503,436.997284 
	C1167.117310,437.017975 1164.968994,437.000000 1162.128418,437.000000 
	C1162.128418,513.692200 1162.128418,590.049561 1162.128418,666.701782 
	C1128.194214,666.701782 1094.953369,666.701782 1061.355957,666.701782 
	C1061.355957,463.991852 1061.355957,261.433655 1061.355957,58.000000 
	C1083.683838,58.000000 1106.091919,58.000000 1129.000000,58.000000 
M1328.110718,292.593201 
	C1333.040161,282.995087 1336.066895,272.919678 1337.196899,262.099976 
	C1339.470581,240.330505 1338.095825,219.216080 1327.224854,199.674606 
	C1317.747314,182.638168 1304.058350,170.342377 1284.559082,166.488770 
	C1272.335205,164.072983 1259.791016,162.966232 1247.333008,162.130280 
	C1233.933960,161.231186 1220.468994,161.202850 1207.029907,161.038620 
	C1193.374634,160.871765 1179.715576,160.990768 1166.058228,161.022507 
	C1164.797363,161.025436 1163.536865,161.302979 1162.325073,161.447189 
	C1162.325073,219.055008 1162.325073,276.271393 1162.325073,333.999939 
	C1164.593628,333.999939 1166.556519,334.025696 1168.518555,333.996002 
	C1190.116699,333.668976 1211.724121,333.610504 1233.309814,332.898682 
	C1246.818115,332.453247 1260.318237,331.273315 1273.778931,329.975830 
	C1298.400513,327.602570 1315.846191,314.366150 1328.110718,292.593201 
z"/>
<path fill="#427B7D" opacity="1.000000" stroke="none" 
	d="
M261.759674,680.021362 
	C238.730392,678.873962 217.064285,673.839111 196.406754,664.718628 
	C172.251221,654.053894 151.223129,638.843506 133.223511,619.610596 
	C119.574516,605.026306 107.856598,588.979980 98.050171,571.479797 
	C86.850304,551.492981 76.639938,531.058899 70.625412,508.924133 
	C65.729149,490.904846 61.329041,472.666016 58.228691,454.268433 
	C55.415974,437.577667 54.025177,420.573669 53.152798,403.648712 
	C52.126747,383.742279 51.437660,363.734894 52.264790,343.840393 
	C53.063614,324.626617 55.784241,305.478333 58.009674,286.341858 
	C60.998726,260.639038 67.266716,235.647644 75.992294,211.335052 
	C79.805840,200.709167 84.932259,190.557449 89.386192,180.157715 
	C97.738571,160.655258 109.419342,143.076920 122.482323,126.625275 
	C131.183777,115.666580 141.598343,105.884232 152.189117,96.657761 
	C164.476669,85.953110 178.189148,77.124367 193.163239,70.309143 
	C209.126450,63.043732 225.787277,58.327129 242.932480,55.000809 
	C263.625916,50.986084 284.620789,50.967171 305.397766,52.285866 
	C336.865845,54.283115 366.498199,63.605164 392.971161,81.122551 
	C410.313171,92.597878 426.398010,105.978554 438.871490,122.703148 
	C452.249603,140.640686 463.881683,159.843918 470.909668,181.336899 
	C475.750763,196.141968 480.010315,211.137238 484.526337,226.048523 
	C485.546936,229.418457 485.126495,231.085678 480.908478,232.277420 
	C452.342499,240.348328 423.908081,248.884857 395.430725,257.269470 
	C392.301636,258.190765 389.169952,259.103424 385.752777,260.104004 
	C382.819916,250.606842 380.264771,241.199829 377.007904,232.042404 
	C371.628754,216.917679 364.304260,202.932861 353.441864,190.762711 
	C338.763123,174.316833 320.881195,164.016266 299.314270,159.940399 
	C268.485779,154.114258 240.579391,161.102814 215.737656,179.873901 
	C195.941849,194.832169 183.157745,215.065613 174.508011,238.036163 
	C167.399887,256.912750 163.272034,276.577606 160.185654,296.428528 
	C158.794830,305.374115 158.478226,314.507812 158.027008,323.573730 
	C157.211685,339.955322 155.713654,356.380310 156.236069,372.731750 
	C156.915100,393.985046 158.477768,415.288574 161.191711,436.373291 
	C163.312851,452.852509 166.949921,469.257965 171.392822,485.286102 
	C176.885483,505.101196 186.556152,522.969177 200.112396,538.736938 
	C217.206421,558.619629 238.753891,570.570862 264.443390,573.672607 
	C285.962433,576.270752 306.719330,572.813538 325.830322,560.925720 
	C347.145935,547.666565 360.344086,528.305786 369.974976,506.005249 
	C374.129272,496.385864 377.603363,486.431915 380.749878,476.429657 
	C383.828156,466.644501 386.096436,456.604523 388.993164,445.643951 
	C421.470520,458.265503 454.130371,470.957977 487.342529,483.865082 
	C483.894684,496.382355 481.187897,509.097809 476.860657,521.235596 
	C470.527100,539.000916 463.901672,556.766174 455.806519,573.772644 
	C446.216797,593.918945 433.672241,612.500916 417.379211,627.928101 
	C390.650452,653.236511 359.502380,670.403320 322.889893,677.104553 
	C304.547180,680.461731 286.119110,681.347290 267.564728,680.959106 
	C265.779663,680.921814 264.005737,680.355042 261.759674,680.021362 
z"/>
<path fill="#427B7D" opacity="1.000000" stroke="none" 
	d="
M1609.991943,203.034073 
	C1606.597900,215.253647 1603.063232,227.036819 1600.181641,238.977600 
	C1599.405762,242.192612 1598.325928,243.368469 1595.366211,242.979675 
	C1587.380127,241.930618 1579.394653,240.867386 1571.428955,239.675461 
	C1561.523682,238.193314 1551.647949,236.513306 1541.742065,235.035110 
	C1531.357422,233.485504 1520.952148,232.073715 1509.781128,230.491974 
	C1510.528198,224.092911 1510.785034,217.682800 1512.096924,211.496429 
	C1515.223877,196.751907 1517.817871,181.773636 1522.512329,167.510254 
	C1529.727295,145.588226 1541.496948,126.110771 1557.319946,108.955635 
	C1573.148193,91.794861 1590.674438,77.186272 1612.017578,67.533867 
	C1626.893433,60.806267 1642.274658,55.299591 1658.666870,54.104256 
	C1675.179443,52.900162 1691.810303,51.564491 1708.302368,52.283596 
	C1728.390747,53.159534 1747.929199,58.086552 1766.460327,66.214523 
	C1789.507568,76.323402 1809.328857,91.063042 1826.074707,109.710983 
	C1844.739136,130.495651 1857.689453,154.404968 1864.076294,181.835022 
	C1868.468506,200.698380 1870.262207,219.804672 1868.810303,238.953964 
	C1866.472656,269.784363 1856.104858,297.827454 1837.064209,322.573273 
	C1822.470337,341.539703 1807.573120,360.184906 1790.524292,377.047791 
	C1782.196533,385.284943 1774.046021,393.723602 1766.190063,402.409943 
	C1755.806274,413.891052 1744.844971,425.212128 1738.955444,439.753540 
	C1735.452759,448.401642 1733.221558,457.870361 1732.241821,467.162354 
	C1730.804199,480.798584 1730.997925,494.606873 1730.484619,508.670898 
	C1701.590210,508.670898 1672.682617,508.670898 1643.238525,508.670898 
	C1643.158203,506.877197 1643.013062,505.112732 1643.010620,503.348083 
	C1642.991455,489.850189 1642.548706,476.333862 1643.099121,462.858459 
	C1644.077515,438.907715 1647.270508,415.109375 1657.677979,393.330322 
	C1663.792114,380.535522 1672.112793,368.621674 1680.635620,357.203125 
	C1688.275391,346.967590 1697.372681,337.785889 1706.148071,328.440796 
	C1716.957642,316.929535 1728.430786,306.028961 1738.996216,294.304840 
	C1747.837524,284.494202 1756.533691,274.387817 1763.948608,263.496307 
	C1774.182983,248.463058 1776.050903,231.356033 1774.211792,213.352509 
	C1772.188477,193.546097 1764.508667,176.954163 1749.971802,163.480667 
	C1735.138794,149.732803 1717.901611,142.126083 1697.366333,141.889816 
	C1682.817749,141.722443 1668.621948,142.825623 1655.403442,149.318420 
	C1638.734863,157.505814 1626.361572,170.214478 1617.786865,186.615295 
	C1615.041138,191.867157 1612.650024,197.304443 1609.991943,203.034073 
z"/>
<path fill="#B45F2E" opacity="1.000000" stroke="none" 
	d="
M677.273560,340.037842 
	C693.506897,329.531067 709.574585,318.756683 726.013733,308.582336 
	C748.737732,294.518219 771.893127,281.149689 794.579041,267.025940 
	C813.776794,255.073776 832.823242,242.839401 851.443420,230.013855 
	C861.968872,222.763931 872.152283,214.744125 881.323914,205.866531 
	C894.887024,192.738342 898.499084,176.251328 892.865112,158.240005 
	C889.089661,146.170349 879.962463,138.685822 868.622986,134.103790 
	C855.845825,128.940826 842.445679,126.597954 828.599731,126.942108 
	C826.210144,127.001503 823.801819,126.304558 821.233276,125.932526 
	C821.233276,105.578087 821.233276,85.642410 821.233276,66.019760 
	C828.578369,66.019760 835.853027,65.322327 842.940430,66.177284 
	C854.629883,67.587418 866.325073,69.453377 877.791016,72.106972 
	C900.608093,77.387543 921.170105,87.476471 937.690979,104.358284 
	C951.701172,118.674614 960.754150,135.779633 963.010681,156.015732 
	C965.242920,176.034454 964.862305,195.829544 958.075867,215.122437 
	C954.095215,226.438858 947.234070,235.977173 940.111450,245.409546 
	C923.430237,267.500305 900.986694,282.968933 878.342590,297.869873 
	C851.515198,315.523621 823.911133,332.005402 796.503296,348.765442 
	C779.588806,359.108704 762.412354,369.023560 744.772827,379.444824 
	C743.284058,380.121338 742.286133,380.345123 741.481201,380.866730 
	C726.514343,390.565277 711.560303,400.283905 696.643311,410.058990 
	C695.602356,410.741119 694.871704,411.896698 693.996704,412.832153 
	C676.321472,425.174927 659.220276,438.291229 644.052002,453.626221 
	C631.441162,466.375702 621.490173,480.941986 617.483582,498.935120 
	C612.969910,519.205688 618.308960,537.009888 630.631042,553.098328 
	C641.966675,567.898682 656.850891,578.398499 672.889893,587.457214 
	C674.836548,588.556702 676.556091,590.060547 678.509583,591.145264 
	C683.231873,593.767273 689.816040,595.139832 692.289001,599.109619 
	C694.698242,602.977234 692.982971,609.445435 692.990723,614.771973 
	C693.015625,631.938599 693.000000,649.105286 693.000000,666.271912 
	C693.000000,668.073181 693.000000,669.874451 693.000000,672.691528 
	C686.048645,670.017761 679.700745,667.928711 673.650757,665.183350 
	C655.096497,656.763611 637.178894,647.149658 620.241577,635.769470 
	C604.779236,625.380371 592.084839,612.044983 579.619690,598.365479 
	C564.557922,581.836487 555.055359,562.452332 549.658447,541.061279 
	C545.769897,525.648499 545.849670,509.933014 547.767761,494.083740 
	C550.497986,471.523590 559.351746,451.577667 572.040405,433.131073 
	C576.157532,427.145630 580.849182,421.527985 585.567017,415.988159 
	C599.561646,399.555115 615.719482,385.414276 632.658813,372.127838 
	C632.904602,371.935089 633.284790,371.913910 634.178223,371.482330 
	C642.274048,365.696442 649.810608,360.263458 657.309082,354.778564 
	C663.985779,349.894806 670.620361,344.953644 677.273560,340.037842 
z"/>
<path fill="#427B7D" opacity="1.000000" stroke="none" 
	d="
M694.347900,412.912170 
	C694.871704,411.896698 695.602356,410.741119 696.643311,410.058990 
	C711.560303,400.283905 726.514343,390.565277 741.481201,380.866730 
	C742.286133,380.345123 743.284058,380.121338 744.562317,379.702606 
	C758.572083,387.238770 772.292419,394.690521 785.832886,402.455902 
	C807.431458,414.842621 829.239502,426.911194 850.344177,440.098267 
	C870.114502,452.451569 889.642639,465.345520 908.238586,479.378265 
	C923.897095,491.194427 937.534058,505.424500 948.572144,521.963562 
	C959.637207,538.543213 964.048462,556.672668 964.176758,576.456970 
	C964.275452,591.660156 963.359131,606.672974 957.689026,620.717529 
	C954.047729,629.736633 948.714722,638.266235 943.030151,646.222290 
	C934.205505,658.573181 922.580444,668.160095 909.137268,675.225769 
	C895.842529,682.213318 881.654785,686.931458 866.943176,689.970459 
	C844.872009,694.529602 822.460815,694.916382 800.137695,693.813721 
	C773.833923,692.514465 747.795166,688.597717 722.308105,681.639526 
	C715.664917,679.825806 709.006653,678.033264 702.476746,675.865417 
	C701.053528,675.392883 699.164978,673.363770 699.153442,672.037109 
	C698.951050,648.717041 699.007141,625.394653 699.007141,601.473083 
	C704.931702,603.429626 710.381348,605.522522 715.988953,607.026184 
	C732.601990,611.480957 749.149597,616.307190 765.960571,619.864319 
	C787.209167,624.360535 808.891479,626.105103 830.573792,624.826050 
	C847.159119,623.847595 863.710266,621.412415 877.701172,611.064636 
	C888.497559,603.079468 894.562317,592.765503 895.164673,578.865417 
	C895.863708,562.732727 889.289062,550.208191 878.591492,539.057434 
	C865.709473,525.629639 850.872375,514.610779 835.523254,504.299133 
	C814.435974,490.132538 793.147949,476.260712 771.820496,462.456451 
	C746.182190,445.862000 720.412048,429.471191 694.347900,412.912170 
z"/>
<path fill="#427B7D" opacity="1.000000" stroke="none" 
	d="
M677.081421,339.737701 
	C670.620361,344.953644 663.985779,349.894806 657.309082,354.778564 
	C649.810608,360.263458 642.274048,365.696442 634.408630,371.247650 
	C621.810120,361.163452 609.195007,351.383057 597.403137,340.694427 
	C584.966797,329.421539 573.078796,317.433197 564.403137,302.857574 
	C554.722656,286.593842 547.965820,269.476685 546.799866,250.083542 
	C545.151672,222.668259 552.597900,198.083725 567.182068,175.375778 
	C582.964783,150.801605 604.216614,131.747864 628.667236,116.119934 
	C647.748291,103.924049 668.075256,94.142746 689.563904,87.132042 
	C706.576233,81.581734 723.824402,76.521172 741.276794,72.628296 
	C754.699402,69.634293 768.588074,68.672653 782.297791,67.045921 
	C789.986755,66.133591 797.732117,65.691589 805.455017,65.075325 
	C806.749817,64.972000 808.059998,65.060738 809.676941,65.060738 
	C809.676941,85.680687 809.676941,105.933456 809.676941,126.457588 
	C803.310608,126.970284 796.947266,127.590332 790.569824,127.977264 
	C766.024414,129.466476 741.894897,133.452621 718.463623,140.903992 
	C704.873596,145.225754 690.983887,149.318604 678.332947,155.702148 
	C661.955872,163.965775 645.865173,173.004837 632.262024,185.962372 
	C620.578552,197.091415 611.779358,209.737396 605.637024,224.574448 
	C599.145874,240.253815 599.602356,255.647461 606.491577,270.880249 
	C612.615540,284.421021 622.093262,295.319641 632.750610,305.722565 
	C646.180298,318.831726 661.878540,328.603271 677.081421,339.737701 
z"/>
<path fill="#427B7D" opacity="1.000000" stroke="none" 
	d="
M1643.000000,659.892700 
	C1643.000000,622.814148 1643.000000,586.223633 1643.000000,549.317749 
	C1675.415771,549.317749 1707.306641,549.317749 1739.599243,549.317749 
	C1739.599243,588.363098 1739.599243,627.367249 1739.599243,666.686279 
	C1707.576050,666.686279 1675.685181,666.686279 1643.000000,666.686279 
	C1643.000000,664.555359 1643.000000,662.468079 1643.000000,659.892700 
z"/>
<path fill="#B75D26" opacity="1.000000" stroke="none" 
	d="
M908.103333,1201.104004 
	C907.469910,1195.173950 906.963013,1189.591797 906.147705,1184.055054 
	C905.308105,1178.353149 904.062317,1172.711792 903.188599,1167.014160 
	C902.315857,1161.322998 901.735107,1155.587524 900.934021,1149.884521 
	C899.776733,1141.644653 898.571594,1133.411011 897.320007,1125.184937 
	C896.340088,1118.744507 894.966858,1112.350220 894.284668,1105.880981 
	C892.976501,1093.475098 897.704956,1083.447510 906.681091,1074.942383 
	C919.267822,1063.016235 934.706360,1058.188599 951.337036,1055.998535 
	C969.770020,1053.570801 987.736450,1056.039185 1004.614136,1063.364868 
	C1017.739502,1069.061890 1028.977173,1077.952637 1033.291504,1092.455811 
	C1034.816650,1097.582520 1033.919189,1103.519287 1033.654785,1109.063843 
	C1033.390015,1114.611206 1032.668701,1120.149414 1031.900024,1125.656982 
	C1031.112305,1131.299927 1029.943604,1136.888916 1029.090942,1142.524048 
	C1028.263916,1147.991089 1027.647461,1153.489746 1026.900146,1158.969360 
	C1026.127441,1164.635010 1025.322021,1170.296265 1024.505859,1175.955933 
	C1023.669006,1181.759888 1022.851257,1187.567139 1021.933228,1193.358521 
	C1021.087585,1198.693848 1020.081299,1204.003540 1019.216736,1209.335938 
	C1018.333801,1214.781738 1017.450684,1220.230103 1016.726929,1225.698364 
	C1015.991028,1231.257690 1015.575439,1236.860352 1014.788330,1242.411377 
	C1013.949524,1248.326416 1012.842285,1254.203369 1011.847778,1260.096313 
	C1010.846619,1266.028320 1009.760620,1271.947388 1008.859314,1277.894531 
	C1008.070129,1283.101562 1007.549744,1288.348877 1006.794067,1293.561523 
	C1005.912659,1299.641724 1004.816711,1305.691284 1003.977722,1311.776855 
	C1003.197266,1317.437622 1002.605896,1323.125000 1001.976990,1328.805908 
	C1000.130981,1345.480103 993.984680,1359.418823 977.176331,1365.916992 
	C971.831726,1367.983276 966.312683,1368.891846 960.099243,1368.102051 
	C952.260620,1367.105591 945.389709,1364.204468 940.277344,1359.189575 
	C935.066772,1354.078491 930.121887,1348.200317 929.366760,1339.717773 
	C928.491577,1329.887939 925.731079,1320.241455 924.235962,1310.447144 
	C922.687012,1300.300537 921.841614,1290.047974 920.371704,1279.887451 
	C919.233704,1272.021240 917.456177,1264.248901 916.240967,1256.391846 
	C915.061157,1248.763916 914.365234,1241.061768 913.223206,1233.427124 
	C911.627258,1222.758423 909.814514,1212.122192 908.103333,1201.104004 
z"/>
<path fill="#B75E27" opacity="1.000000" stroke="none" 
	d="
M949.243347,1402.100098 
	C953.862122,1401.710083 958.130005,1401.222290 962.406616,1400.829346 
	C978.468323,1399.353394 992.090271,1404.880859 1002.899902,1416.426636 
	C1010.290955,1424.320801 1016.120361,1433.758423 1017.894470,1444.564575 
	C1020.039856,1457.631470 1018.984497,1470.510010 1012.988586,1482.907837 
	C1005.168030,1499.078125 992.567566,1509.238770 975.625671,1513.674927 
	C970.010559,1515.145142 963.608887,1513.347534 957.591003,1513.605713 
	C948.772888,1513.984131 941.413208,1510.137573 934.943726,1505.198486 
	C928.402466,1500.204712 922.357361,1494.596558 918.081055,1486.970825 
	C912.575684,1477.153564 909.761169,1466.860107 910.160645,1455.971924 
	C910.760010,1439.636230 915.661804,1424.537231 928.820129,1413.839111 
	C934.773254,1408.999023 942.160095,1405.922485 949.243347,1402.100098 
z"/>
</svg>