<svg version="1.1" id="Layer_1" xmlns="http://www.w3.org/2000/svg" xmlns:xlink="http://www.w3.org/1999/xlink" x="0px" y="0px"
	 width="100%" viewBox="0 0 700 700" enable-background="new 0 0 700 700" xml:space="preserve">
<path fill="none" opacity="1.000000" stroke="none" 
	d="
M461.000000,701.000000 
	C307.333344,701.000000 154.166672,701.000000 1.000000,701.000000 
	C1.000000,467.666656 1.000000,234.333328 1.000000,1.000000 
	C234.333328,1.000000 467.666656,1.000000 701.000000,1.000000 
	C701.000000,234.333328 701.000000,467.666656 701.000000,701.000000 
	C621.166687,701.000000 541.333313,701.000000 461.000000,701.000000 
M408.514923,350.009857 
	C442.648468,375.941650 479.955688,375.683960 518.928772,363.444183 
	C519.276672,370.178131 519.631348,377.043060 520.011047,384.392609 
	C521.777527,383.799103 522.597656,383.661194 523.276733,383.275116 
	C536.993774,375.477264 550.715637,367.687286 564.382935,359.802856 
	C567.520142,357.993073 567.048950,356.183350 564.034302,354.492218 
	C558.164856,351.199677 552.369751,347.774719 547.096802,344.724487 
	C552.659485,336.947449 559.120361,329.503510 563.799377,321.070770 
	C577.060303,297.171356 579.857483,271.279205 577.147522,244.386383 
	C575.554138,228.574234 571.418579,213.721985 563.469116,199.990128 
	C552.076965,180.311295 535.889038,166.389465 514.332214,158.600220 
	C496.267303,152.072723 477.808258,151.890854 459.125336,153.993652 
	C432.168823,157.027649 410.277832,169.525497 393.907776,190.921997 
	C379.834167,209.316910 372.688782,230.524811 372.033112,253.757797 
	C371.815399,261.471802 371.763275,269.206024 372.053497,276.915283 
	C372.527985,289.519958 375.512268,301.622223 380.623199,313.136108 
	C386.931885,327.348297 395.799225,339.700256 408.514923,350.009857 
M138.988159,305.909424 
	C142.069382,314.667542 138.627716,323.779877 130.511551,327.753723 
	C114.775276,335.458557 98.528893,334.108551 82.216614,330.094635 
	C69.420998,326.946106 58.220943,320.489136 47.038895,312.150909 
	C47.038895,328.037323 46.971710,343.120331 47.173546,358.199768 
	C47.188778,359.337830 48.906185,360.936646 50.192051,361.499603 
	C63.291355,367.234314 77.223671,370.132965 91.325432,370.784363 
	C107.823654,371.546509 124.474930,372.066528 140.780029,367.991821 
	C152.737762,365.003510 163.957199,360.483490 173.301544,352.174835 
	C184.066757,342.602814 189.653946,330.237946 190.822464,316.190125 
	C191.954651,302.578979 190.597977,289.222656 183.082993,277.073059 
	C174.531860,263.248230 161.311890,255.349701 147.420227,248.384918 
	C136.830551,243.075638 125.563469,239.058197 115.218918,233.341904 
	C109.173912,230.001511 103.145340,225.293365 99.246239,219.708649 
	C92.748009,210.401154 99.048515,198.112289 111.564339,194.040802 
	C131.098694,187.686127 149.961319,190.951981 168.341370,198.779205 
	C172.822754,200.687622 177.076843,203.129776 181.999588,205.610870 
	C181.999588,192.914368 181.999847,180.795639 181.999496,168.676910 
	C181.999252,160.197433 181.901077,160.513672 173.461853,157.903519 
	C156.401062,152.626801 138.899307,152.716812 121.365822,153.024246 
	C103.966164,153.329361 87.497711,157.201416 72.409302,166.230881 
	C46.253578,181.883469 40.460773,214.535690 50.458729,238.895645 
	C56.898197,254.585373 69.345184,264.494751 83.894722,271.860168 
	C96.079010,278.028259 108.803566,283.121368 121.080315,289.117493 
	C128.399734,292.692383 134.990479,297.447083 138.988159,305.909424 
M272.999786,223.499039 
	C272.999786,214.418381 272.999786,205.337738 272.999786,195.761017 
	C298.120941,195.761017 322.365814,195.761017 346.674316,195.761017 
	C346.674316,182.659073 346.674316,170.083603 346.674316,157.441269 
	C305.990906,157.441269 265.635162,157.441269 225.373077,157.441269 
	C225.373077,227.449829 225.373077,297.016510 225.373077,366.688721 
	C267.317535,366.688721 308.888245,366.688721 350.566589,366.688721 
	C350.566589,353.679901 350.566589,340.986938 350.566589,327.774658 
	C324.559540,327.774658 298.981995,327.774658 273.318909,327.774658 
	C273.318909,312.006531 273.318909,296.764893 273.318909,280.828552 
	C296.328766,280.828552 319.030121,280.828552 341.626282,280.828552 
	C341.626282,267.550507 341.626282,254.973450 341.626282,241.882477 
	C318.674591,241.882477 296.096222,241.882477 272.999786,241.882477 
	C272.999786,235.746170 272.999786,230.122162 272.999786,223.499039 
M617.099792,416.376923 
	C613.708435,411.154480 610.685486,405.642273 606.851562,400.767975 
	C597.983887,389.494110 588.804321,378.460022 579.477234,367.563232 
	C578.685120,366.637787 575.462708,366.778870 574.015503,367.584778 
	C559.794617,375.504639 545.753540,383.746399 531.572998,391.739990 
	C522.022644,397.123474 521.370239,398.633270 525.408997,408.798950 
	C525.752808,409.664459 526.096130,410.530304 526.452026,411.390900 
	C531.736206,424.169342 536.676086,437.105743 542.434570,449.666840 
	C546.052856,457.559479 550.746338,464.981232 555.238831,472.444885 
	C559.807983,480.035980 564.146667,487.874878 569.618713,494.788055 
	C578.062439,505.455444 586.819946,516.001221 596.496826,525.529724 
	C605.920532,534.808960 616.440369,542.880005 629.805359,546.543640 
	C637.731934,548.716492 648.811890,544.546204 651.166687,537.246887 
	C653.033813,531.459351 654.880798,525.287476 654.791565,519.315369 
	C654.486694,498.905579 648.718811,479.536987 640.377258,461.145660 
	C633.540649,446.072510 625.183289,431.689178 617.099792,416.376923 
M228.308502,499.999878 
	C230.913025,499.667786 233.508530,499.193268 236.123611,499.027588 
	C249.758759,498.163757 264.777069,487.441925 268.435577,473.280304 
	C273.213409,454.785889 266.517426,434.861328 245.537903,429.866852 
	C241.886215,428.997528 238.127350,428.144226 234.405029,428.084045 
	C221.133270,427.869476 207.855927,428.000153 194.385986,428.000153 
	C194.385986,465.588593 194.385986,502.599640 194.385986,539.670166 
	C201.018372,539.670166 207.258881,539.670166 214.192093,539.670166 
	C214.192093,526.319458 214.192093,513.285522 214.192093,500.000092 
	C219.042007,500.000092 223.197418,500.000092 228.308502,499.999878 
M362.149384,450.527313 
	C360.328400,447.079803 359.049500,443.171875 356.585327,440.270660 
	C349.041748,431.389160 338.888336,428.035675 327.483612,428.006439 
	C316.153625,427.977386 304.823425,427.989166 293.493408,428.012085 
	C291.742126,428.015625 289.991180,428.174530 288.378815,428.254700 
	C288.378815,465.790955 288.378815,502.694580 288.378815,539.674805 
	C295.004913,539.674805 301.247925,539.674805 308.187958,539.674805 
	C308.187958,526.324951 308.187958,513.285645 308.187958,500.517761 
	C316.161865,499.978973 323.426117,499.579956 330.673553,498.978577 
	C344.080902,497.866028 358.001831,487.845184 362.052185,474.639343 
	C364.460083,466.788666 364.339569,459.084320 362.149384,450.527313 
M416.304932,474.105865 
	C412.940338,472.420990 409.393829,471.017456 406.252808,468.986725 
	C401.260559,465.759155 397.231384,461.909058 397.914825,454.962189 
	C398.497681,449.038116 402.620728,445.540649 407.050415,444.396790 
	C413.750702,442.666626 421.046234,442.220886 427.978638,442.730042 
	C433.637390,443.145660 439.134827,445.757599 444.999176,447.482574 
	C444.999176,442.565063 444.813965,437.735474 445.064728,432.928650 
	C445.229980,429.761414 443.942596,428.252838 440.983795,428.028381 
	C431.615265,427.317596 422.229004,425.997009 412.873627,426.174896 
	C401.722839,426.386871 391.445679,429.969574 383.797943,438.744598 
	C373.147430,450.964935 375.147888,469.175720 386.586517,478.574371 
	C393.736908,484.449524 402.475098,488.398102 410.524963,493.170441 
	C415.045776,495.850586 419.768066,498.219940 424.129364,501.133728 
	C431.410553,505.998322 430.736816,518.173706 423.115570,522.431885 
	C413.270599,527.932617 403.005859,526.777100 392.874237,523.777405 
	C387.544891,522.199585 382.541473,519.520874 377.000000,517.173645 
	C377.000000,522.182251 377.425751,526.722778 376.882568,531.144287 
	C376.317322,535.745300 378.864044,537.716553 382.342041,538.616760 
	C398.036804,542.679199 413.763794,544.026672 429.618256,539.015564 
	C453.197723,531.562683 455.321014,503.103821 440.869385,490.066650 
	C433.598633,483.507538 425.501282,478.801361 416.304932,474.105865 
M53.662270,443.998932 
	C62.268719,443.998932 70.875168,443.998932 80.147339,443.998932 
	C80.147339,476.311462 80.147339,507.997833 80.147339,539.642944 
	C87.076195,539.642944 93.319206,539.642944 100.235504,539.642944 
	C100.235504,507.608246 100.235504,475.924316 100.235504,443.728424 
	C111.161095,443.728424 121.406898,443.728424 131.658264,443.728424 
	C131.658264,438.290283 131.658264,433.381866 131.658264,428.445099 
	C103.631371,428.445099 75.948540,428.445099 48.211948,428.445099 
	C48.211948,433.682312 48.211948,438.473022 48.211948,443.641235 
	C49.826885,443.769623 51.264351,443.883911 53.662270,443.998932 
M146.999527,467.500000 
	C146.999527,491.549377 146.999527,515.598755 146.999527,539.661499 
	C154.045044,539.661499 160.283035,539.661499 166.598511,539.661499 
	C166.598511,502.334106 166.598511,465.346649 166.598511,428.338196 
	C159.954391,428.338196 153.716415,428.338196 146.999527,428.338196 
	C146.999527,441.280701 146.999527,453.890350 146.999527,467.500000 
z"/>
<path fill="#427B7D" opacity="1.000000" stroke="none" 
	d="
M408.259583,349.757935 
	C395.799225,339.700256 386.931885,327.348297 380.623199,313.136108 
	C375.512268,301.622223 372.527985,289.519958 372.053497,276.915283 
	C371.763275,269.206024 371.815399,261.471802 372.033112,253.757797 
	C372.688782,230.524811 379.834167,209.316910 393.907776,190.921997 
	C410.277832,169.525497 432.168823,157.027649 459.125336,153.993652 
	C477.808258,151.890854 496.267303,152.072723 514.332214,158.600220 
	C535.889038,166.389465 552.076965,180.311295 563.469116,199.990128 
	C571.418579,213.721985 575.554138,228.574234 577.147522,244.386383 
	C579.857483,271.279205 577.060303,297.171356 563.799377,321.070770 
	C559.120361,329.503510 552.659485,336.947449 547.096802,344.724487 
	C552.369751,347.774719 558.164856,351.199677 564.034302,354.492218 
	C567.048950,356.183350 567.520142,357.993073 564.382935,359.802856 
	C550.715637,367.687286 536.993774,375.477264 523.276733,383.275116 
	C522.597656,383.661194 521.777527,383.799103 520.011047,384.392609 
	C519.631348,377.043060 519.276672,370.178131 518.928772,363.444183 
	C479.955688,375.683960 442.648468,375.941650 408.259583,349.757935 
M496.495972,325.130554 
	C508.176514,319.482605 515.923523,310.253357 521.031128,298.506104 
	C526.716614,285.429810 527.238953,271.671600 527.049622,257.722443 
	C526.853943,243.308701 523.960632,229.672546 516.589539,217.166534 
	C507.932312,202.478516 494.680786,194.830399 478.005157,194.143753 
	C454.795288,193.188049 435.801819,206.742065 427.938904,228.739624 
	C422.699310,243.397995 421.045197,258.336975 422.839111,273.945099 
	C424.975250,292.530823 430.968628,308.831665 446.173859,320.596954 
	C454.805969,327.276154 465.094757,330.045715 475.731445,329.741577 
	C482.477997,329.548706 489.158630,327.050385 496.495972,325.130554 
z"/>
<path fill="#427B7D" opacity="1.000000" stroke="none" 
	d="
M138.848572,305.535278 
	C134.990479,297.447083 128.399734,292.692383 121.080315,289.117493 
	C108.803566,283.121368 96.079010,278.028259 83.894722,271.860168 
	C69.345184,264.494751 56.898197,254.585373 50.458729,238.895645 
	C40.460773,214.535690 46.253578,181.883469 72.409302,166.230881 
	C87.497711,157.201416 103.966164,153.329361 121.365822,153.024246 
	C138.899307,152.716812 156.401062,152.626801 173.461853,157.903519 
	C181.901077,160.513672 181.999252,160.197433 181.999496,168.676910 
	C181.999847,180.795639 181.999588,192.914368 181.999588,205.610870 
	C177.076843,203.129776 172.822754,200.687622 168.341370,198.779205 
	C149.961319,190.951981 131.098694,187.686127 111.564339,194.040802 
	C99.048515,198.112289 92.748009,210.401154 99.246239,219.708649 
	C103.145340,225.293365 109.173912,230.001511 115.218918,233.341904 
	C125.563469,239.058197 136.830551,243.075638 147.420227,248.384918 
	C161.311890,255.349701 174.531860,263.248230 183.082993,277.073059 
	C190.597977,289.222656 191.954651,302.578979 190.822464,316.190125 
	C189.653946,330.237946 184.066757,342.602814 173.301544,352.174835 
	C163.957199,360.483490 152.737762,365.003510 140.780029,367.991821 
	C124.474930,372.066528 107.823654,371.546509 91.325432,370.784363 
	C77.223671,370.132965 63.291355,367.234314 50.192051,361.499603 
	C48.906185,360.936646 47.188778,359.337830 47.173546,358.199768 
	C46.971710,343.120331 47.038895,328.037323 47.038895,312.150909 
	C58.220943,320.489136 69.420998,326.946106 82.216614,330.094635 
	C98.528893,334.108551 114.775276,335.458557 130.511551,327.753723 
	C138.627716,323.779877 142.069382,314.667542 138.848572,305.535278 
z"/>
<path fill="#427B7D" opacity="1.000000" stroke="none" 
	d="
M272.999786,223.998596 
	C272.999786,230.122162 272.999786,235.746170 272.999786,241.882477 
	C296.096222,241.882477 318.674591,241.882477 341.626282,241.882477 
	C341.626282,254.973450 341.626282,267.550507 341.626282,280.828552 
	C319.030121,280.828552 296.328766,280.828552 273.318909,280.828552 
	C273.318909,296.764893 273.318909,312.006531 273.318909,327.774658 
	C298.981995,327.774658 324.559540,327.774658 350.566589,327.774658 
	C350.566589,340.986938 350.566589,353.679901 350.566589,366.688721 
	C308.888245,366.688721 267.317535,366.688721 225.373077,366.688721 
	C225.373077,297.016510 225.373077,227.449829 225.373077,157.441269 
	C265.635162,157.441269 305.990906,157.441269 346.674316,157.441269 
	C346.674316,170.083603 346.674316,182.659073 346.674316,195.761017 
	C322.365814,195.761017 298.120941,195.761017 272.999786,195.761017 
	C272.999786,205.337738 272.999786,214.418381 272.999786,223.998596 
z"/>
<path fill="#427B7D" opacity="1.000000" stroke="none" 
	d="
M617.299927,416.688477 
	C625.183289,431.689178 633.540649,446.072510 640.377258,461.145660 
	C648.718811,479.536987 654.486694,498.905579 654.791565,519.315369 
	C654.880798,525.287476 653.033813,531.459351 651.166687,537.246887 
	C648.811890,544.546204 637.731934,548.716492 629.805359,546.543640 
	C616.440369,542.880005 605.920532,534.808960 596.496826,525.529724 
	C586.819946,516.001221 578.062439,505.455444 569.618713,494.788055 
	C564.146667,487.874878 559.807983,480.035980 555.238831,472.444885 
	C550.746338,464.981232 546.052856,457.559479 542.434570,449.666840 
	C536.676086,437.105743 531.736206,424.169342 526.452026,411.390900 
	C526.096130,410.530304 525.752808,409.664459 525.408997,408.798950 
	C521.370239,398.633270 522.022644,397.123474 531.572998,391.739990 
	C545.753540,383.746399 559.794617,375.504639 574.015503,367.584778 
	C575.462708,366.778870 578.685120,366.637787 579.477234,367.563232 
	C588.804321,378.460022 597.983887,389.494110 606.851562,400.767975 
	C610.685486,405.642273 613.708435,411.154480 617.299927,416.688477 
z"/>
<path fill="#427B7D" opacity="1.000000" stroke="none" 
	d="
M227.830673,500.000000 
	C223.197418,500.000092 219.042007,500.000092 214.192093,500.000092 
	C214.192093,513.285522 214.192093,526.319458 214.192093,539.670166 
	C207.258881,539.670166 201.018372,539.670166 194.385986,539.670166 
	C194.385986,502.599640 194.385986,465.588593 194.385986,428.000153 
	C207.855927,428.000153 221.133270,427.869476 234.405029,428.084045 
	C238.127350,428.144226 241.886215,428.997528 245.537903,429.866852 
	C266.517426,434.861328 273.213409,454.785889 268.435577,473.280304 
	C264.777069,487.441925 249.758759,498.163757 236.123611,499.027588 
	C233.508530,499.193268 230.913025,499.667786 227.830673,500.000000 
M241.221588,447.089996 
	C232.572922,442.290863 223.369675,444.272766 214.343063,444.234436 
	C214.343063,457.772522 214.343063,470.655945 214.343063,483.996552 
	C217.304550,483.996552 219.936264,484.126282 222.549133,483.960052 
	C225.161835,483.793854 227.747437,483.152740 230.359344,483.031952 
	C239.039032,482.630432 245.472809,477.971161 248.076996,470.013916 
	C250.967819,461.180817 248.657547,452.759003 241.221588,447.089996 
z"/>
<path fill="#427B7D" opacity="1.000000" stroke="none" 
	d="
M362.356873,450.885681 
	C364.339569,459.084320 364.460083,466.788666 362.052185,474.639343 
	C358.001831,487.845184 344.080902,497.866028 330.673553,498.978577 
	C323.426117,499.579956 316.161865,499.978973 308.187958,500.517761 
	C308.187958,513.285645 308.187958,526.324951 308.187958,539.674805 
	C301.247925,539.674805 295.004913,539.674805 288.378815,539.674805 
	C288.378815,502.694580 288.378815,465.790955 288.378815,428.254700 
	C289.991180,428.174530 291.742126,428.015625 293.493408,428.012085 
	C304.823425,427.989166 316.153625,427.977386 327.483612,428.006439 
	C338.888336,428.035675 349.041748,431.389160 356.585327,440.270660 
	C359.049500,443.171875 360.328400,447.079803 362.356873,450.885681 
M311.744751,444.004303 
	C310.504883,444.870636 308.202637,445.716400 308.185425,446.606354 
	C307.948120,458.875610 308.025177,471.150940 308.025177,484.893158 
	C316.301025,483.637299 324.003693,483.108521 331.341980,481.187683 
	C339.892975,478.949432 343.451202,471.716705 342.996429,460.287323 
	C342.701416,452.871826 337.770355,446.556335 329.985199,445.122925 
	C324.344635,444.084381 318.467834,444.328918 311.744751,444.004303 
z"/>
<path fill="#427B7D" opacity="1.000000" stroke="none" 
	d="
M416.633057,474.298157 
	C425.501282,478.801361 433.598633,483.507538 440.869385,490.066650 
	C455.321014,503.103821 453.197723,531.562683 429.618256,539.015564 
	C413.763794,544.026672 398.036804,542.679199 382.342041,538.616760 
	C378.864044,537.716553 376.317322,535.745300 376.882568,531.144287 
	C377.425751,526.722778 377.000000,522.182251 377.000000,517.173645 
	C382.541473,519.520874 387.544891,522.199585 392.874237,523.777405 
	C403.005859,526.777100 413.270599,527.932617 423.115570,522.431885 
	C430.736816,518.173706 431.410553,505.998322 424.129364,501.133728 
	C419.768066,498.219940 415.045776,495.850586 410.524963,493.170441 
	C402.475098,488.398102 393.736908,484.449524 386.586517,478.574371 
	C375.147888,469.175720 373.147430,450.964935 383.797943,438.744598 
	C391.445679,429.969574 401.722839,426.386871 412.873627,426.174896 
	C422.229004,425.997009 431.615265,427.317596 440.983795,428.028381 
	C443.942596,428.252838 445.229980,429.761414 445.064728,432.928650 
	C444.813965,437.735474 444.999176,442.565063 444.999176,447.482574 
	C439.134827,445.757599 433.637390,443.145660 427.978638,442.730042 
	C421.046234,442.220886 413.750702,442.666626 407.050415,444.396790 
	C402.620728,445.540649 398.497681,449.038116 397.914825,454.962189 
	C397.231384,461.909058 401.260559,465.759155 406.252808,468.986725 
	C409.393829,471.017456 412.940338,472.420990 416.633057,474.298157 
z"/>
<path fill="#427B7D" opacity="1.000000" stroke="none" 
	d="
M53.182045,443.998535 
	C51.264351,443.883911 49.826885,443.769623 48.211948,443.641235 
	C48.211948,438.473022 48.211948,433.682312 48.211948,428.445099 
	C75.948540,428.445099 103.631371,428.445099 131.658264,428.445099 
	C131.658264,433.381866 131.658264,438.290283 131.658264,443.728424 
	C121.406898,443.728424 111.161095,443.728424 100.235504,443.728424 
	C100.235504,475.924316 100.235504,507.608246 100.235504,539.642944 
	C93.319206,539.642944 87.076195,539.642944 80.147339,539.642944 
	C80.147339,507.997833 80.147339,476.311462 80.147339,443.998932 
	C70.875168,443.998932 62.268719,443.998932 53.182045,443.998535 
z"/>
<path fill="#427B7D" opacity="1.000000" stroke="none" 
	d="
M146.999527,467.000000 
	C146.999527,453.890350 146.999527,441.280701 146.999527,428.338196 
	C153.716415,428.338196 159.954391,428.338196 166.598511,428.338196 
	C166.598511,465.346649 166.598511,502.334106 166.598511,539.661499 
	C160.283035,539.661499 154.045044,539.661499 146.999527,539.661499 
	C146.999527,515.598755 146.999527,491.549377 146.999527,467.000000 
z"/>
<path fill="none" opacity="1.000000" stroke="none" 
	d="
M496.182373,325.358276 
	C489.158630,327.050385 482.477997,329.548706 475.731445,329.741577 
	C465.094757,330.045715 454.805969,327.276154 446.173859,320.596954 
	C430.968628,308.831665 424.975250,292.530823 422.839111,273.945099 
	C421.045197,258.336975 422.699310,243.397995 427.938904,228.739624 
	C435.801819,206.742065 454.795288,193.188049 478.005157,194.143753 
	C494.680786,194.830399 507.932312,202.478516 516.589539,217.166534 
	C523.960632,229.672546 526.853943,243.308701 527.049622,257.722443 
	C527.238953,271.671600 526.716614,285.429810 521.031128,298.506104 
	C515.923523,310.253357 508.176514,319.482605 496.182373,325.358276 
z"/>
<path fill="none" opacity="1.000000" stroke="none" 
	d="
M241.555450,447.273621 
	C248.657547,452.759003 250.967819,461.180817 248.076996,470.013916 
	C245.472809,477.971161 239.039032,482.630432 230.359344,483.031952 
	C227.747437,483.152740 225.161835,483.793854 222.549133,483.960052 
	C219.936264,484.126282 217.304550,483.996552 214.343063,483.996552 
	C214.343063,470.655945 214.343063,457.772522 214.343063,444.234436 
	C223.369675,444.272766 232.572922,442.290863 241.555450,447.273621 
z"/>
<path fill="none" opacity="1.000000" stroke="none" 
	d="
M312.220581,444.002808 
	C318.467834,444.328918 324.344635,444.084381 329.985199,445.122925 
	C337.770355,446.556335 342.701416,452.871826 342.996429,460.287323 
	C343.451202,471.716705 339.892975,478.949432 331.341980,481.187683 
	C324.003693,483.108521 316.301025,483.637299 308.025177,484.893158 
	C308.025177,471.150940 307.948120,458.875610 308.185425,446.606354 
	C308.202637,445.716400 310.504883,444.870636 312.220581,444.002808 
z"/>
</svg>