<?xml version="1.0" encoding="UTF-8"?>
<svg version="1.1" xmlns="http://www.w3.org/2000/svg" width="420" height="420">
<path d="M0 0 C1.17497543 -0.01018158 1.17497543 -0.01018158 2.37368774 -0.02056885 C4.889791 -0.03744771 7.40571891 -0.04375746 9.921875 -0.046875 C10.77348206 -0.04921143 11.62508911 -0.05154785 12.50250244 -0.05395508 C24.78872219 -0.0667245 36.65455868 0.40685195 48.671875 3.203125 C48.65616455 3.86731445 48.6404541 4.53150391 48.62426758 5.21582031 C47.96873932 22.49269388 47.96873932 22.49269388 51.671875 39.203125 C52.02378906 40.20085937 52.37570313 41.19859375 52.73828125 42.2265625 C55.44407952 49.31700418 59.01154631 55.23587804 63.671875 61.203125 C64.18234375 61.89019531 64.6928125 62.57726562 65.21875 63.28515625 C75.008223 75.57046023 91.29130507 83.85826375 106.671875 86.203125 C110.3024881 86.4644501 113.90812806 86.48844652 117.546875 86.453125 C118.99344482 86.44732422 118.99344482 86.44732422 120.46923828 86.44140625 C127.01956544 86.36172665 133.31645166 85.90601355 139.671875 84.203125 C139.36443359 85.15058594 139.36443359 85.15058594 139.05078125 86.1171875 C134.46962379 101.3292606 134.55561619 115.58848834 141.796875 129.953125 C149.71193407 143.57631892 159.45964785 151.15341026 174.53125 155.45703125 C178.59825165 156.42319707 182.50388836 156.92054963 186.671875 157.203125 C194.79641318 195.53259947 179.93113782 239.09519303 159.4453125 271.12060547 C148.56425701 287.55187676 135.20715938 302.10664055 119.671875 314.203125 C118.2178125 315.35941406 118.2178125 315.35941406 116.734375 316.5390625 C80.40694369 344.05174945 33.16358644 355.06626379 -11.765625 349.015625 C-41.54991614 344.6015502 -70.67881726 333.02722273 -94.328125 314.203125 C-94.8737207 313.77032227 -95.41931641 313.33751953 -95.98144531 312.89160156 C-133.10796118 283.11644033 -156.65037922 240.72471198 -161.91796875 193.31640625 C-166.26945446 145.71884532 -151.39946638 98.48385512 -120.89428711 61.72094727 C-93.60779957 29.64082772 -57.23386971 7.70086969 -15.328125 1.203125 C-14.25651123 1.0280542 -13.18489746 0.8529834 -12.08081055 0.67260742 C-8.04092271 0.16719435 -4.06420757 0.02417149 0 0 Z M-77.328125 67.203125 C-78.28332031 67.97269531 -78.28332031 67.97269531 -79.2578125 68.7578125 C-106.36461072 91.04562437 -123.22507199 128.80978615 -127.15380859 163.07055664 C-130.01147317 198.03092086 -121.06930989 233.29467237 -98.953125 260.890625 C-97.42644859 262.67439795 -95.88416201 264.44490555 -94.328125 266.203125 C-93.69003906 266.93958252 -93.69003906 266.93958252 -93.0390625 267.69091797 C-69.8226854 294.44575606 -37.36445661 311.83201905 -1.9597168 315.0222168 C34.92887651 317.55811508 70.63831485 308.75937763 99.671875 285.203125 C100.19491211 284.78691895 100.71794922 284.37071289 101.25683594 283.94189453 C128.30256564 262.36216365 146.38949867 232.6568333 151.671875 198.203125 C152.13913418 193.53969511 152.46552878 188.88504962 152.671875 184.203125 C151.22167969 183.47609375 151.22167969 183.47609375 149.7421875 182.734375 C141.6711676 178.61054931 134.45893532 174.2927993 127.671875 168.203125 C127.06214844 167.68621094 126.45242188 167.16929687 125.82421875 166.63671875 C116.56975754 158.22548863 107.04634678 143.00559323 105.12109375 130.67578125 C104.48110079 126.80534765 103.9601974 124.41408437 101.671875 121.203125 C96.25751342 118.51180795 90.02494575 117.82596243 84.13330078 116.73779297 C78.55924868 115.52700403 73.6713192 112.89257301 68.671875 110.203125 C67.20427734 109.45289063 67.20427734 109.45289063 65.70703125 108.6875 C41.44807636 95.55387396 25.86012176 73.21508131 17.34423828 47.48144531 C16.41662099 44.33819022 15.73397169 41.16262625 15.09936523 37.94873047 C14.82761011 36.18598857 14.82761011 36.18598857 13.671875 35.203125 C-20.92062017 33.13638435 -50.84230868 45.14699225 -77.328125 67.203125 Z " fill="#427B7D" transform="translate(197.328125,34.796875)"/>
<path d="M0 0 C5.99910572 4.33268747 9.23850828 9.86022585 11 17 C12.26037968 26.2124659 9.85519429 32.63323227 4.875 40.25 C-1.30530565 46.16159671 -7.05842077 48.31505897 -15.625 48.5625 C-24.75610187 48.19542053 -29.18941233 46.17810178 -35.375 39.5625 C-41.01297268 33.10466277 -41.62729868 27.18962177 -41.3671875 18.80078125 C-40.61165687 10.98023543 -37.57731391 5.95815741 -31.5625 1 C-21.7288347 -5.86257431 -10.40733472 -5.98510546 0 0 Z " fill="#427B7D" transform="translate(164,214)"/>
<path d="M0 0 C6.04107907 3.54409972 9.84504558 8.75259117 12.9375 14.9375 C14.50539499 23.64802771 13.9676012 31.29391156 9.5 39.0625 C5.16731253 45.06160572 -0.36022585 48.30100828 -7.5 50.0625 C-16.7124659 51.32287968 -23.13323227 48.91769429 -30.75 43.9375 C-36.66159671 37.75719435 -38.81505897 32.00407923 -39.0625 23.4375 C-38.69542053 14.30639813 -36.67810178 9.87308767 -30.0625 3.6875 C-21.88483286 -3.45195896 -9.89839328 -4.40942251 0 0 Z " fill="#427B7D" transform="translate(196.5,124.9375)"/>
<path d="M0 0 C4.46876455 3.07848225 8.07974831 6.73924494 9.8125 11.9375 C10.3760668 17.62735711 10.14046433 22.10658403 6.8125 26.9375 C2.4133792 31.36782024 -1.0744593 34.05432817 -7.5 34.1875 C-12.64111534 34.09599147 -16.1144603 32.99594083 -19.8515625 29.28515625 C-24.22813597 24.37966039 -25.51148913 20.78184407 -25.39453125 14.2109375 C-24.84009493 8.12259905 -21.34705236 4.84712599 -16.90625 1.13671875 C-11.97162911 -2.30630083 -5.46614795 -1.82204932 0 0 Z " fill="#427B7D" transform="translate(270.1875,246.0625)"/>
</svg>
