<?xml version="1.0" encoding="UTF-8"?>
<svg id="Ebene_1" data-name="Ebene 1" xmlns="http://www.w3.org/2000/svg" viewBox="0 0 750 750">
  <defs>
    <style>
      .cls-1, .cls-2 {
        stroke-width: 0px;
		fill: #427b7d;
      }
    </style>
  </defs>
  <path class="cls-1" d="m265.42,205.86c-30.68-13.11-62.31-26.62-94.69-40.45,2.58-6.57,4.75-13.15,7.68-19.38,24.26-51.61,60.6-91.28,113.96-113.64,22.63-9.48,46.57-13.59,71-14.43,33-1.14,65.69,1.4,96.9,12.94,62.35,23.07,100.01,68.29,114.61,132.44,7.86,34.53,6.42,69.18-6.81,102.6-8.21,20.73-21.47,38.4-36.14,54.8-16.1,17.99-33.4,34.9-49.93,52.51-9.69,10.32-18.99,21-28.31,31.66-14.22,16.26-19.85,35.88-21.52,56.87-1.13,14.23-1.8,28.49-2.68,43h-106.53c0-7.18-.5-14.17.09-21.07,1.83-21.2,3.29-42.49,6.36-63.52,3.94-26.97,17.92-49.39,36.44-68.65,16.72-17.4,35.02-33.27,52.06-50.38,13.03-13.08,26.42-26.11,37.52-40.76,36.57-48.26,15.73-130.58-60.14-140.43-17.69-2.3-35.17-1.88-52.51,2.48-23.77,5.99-40.28,21.55-53.04,41.38-8.6,13.36-15.97,27.5-24.32,42.03Z"/>
  <path class="cls-1" d="m412.95,667.03c-11.16,0-22.32-.14-33.48.07-4.62.09-6.67-1.39-6.54-6.28.24-9.66.18-19.33.02-28.99-.07-4.3,1.68-5.88,5.92-5.86,23.49.11,46.98.05,70.47.05,5.76,0,6.86,1.11,7.69,7.07,2.35,16.88,1.01,33.33-4.8,49.46-6.11,16.94-17.21,29.81-32.09,39.35-15.54,9.97-33.16,12.55-51.09,10.92-17.42-1.59-32.81-8.43-46.29-20.26-15.33-13.45-25-30-28.46-49.6-4.57-25.89-.12-50.66,16.3-71.72,13.77-17.65,31.58-29.44,54.69-32.4,18.95-2.43,36.62.37,53,10.03,5.17,3.05,10.01,7,14.05,11.4,1.48,1.61,1.43,6.79-.05,8.56-6.37,7.63-13.33,14.83-20.59,21.63-1.38,1.29-5.83,1.04-7.67-.23-7.64-5.27-15.37-10.02-24.95-10.2-17.54-.33-33.37,9.97-40.74,27.08-8.83,20.5-2.57,39.43,11.1,52.5,16.23,15.52,38.92,15.03,55.82,1.33,3.94-3.2,6.14-8.54,9.14-12.89-.48-.35-.96-.7-1.44-1.04Z"/>
</svg>