<?xml version="1.0" standalone="no"?>
<!DOCTYPE svg PUBLIC "-//W3C//DTD SVG 20010904//EN"
 "http://www.w3.org/TR/2001/REC-SVG-20010904/DTD/svg10.dtd">
<svg version="1.0" xmlns="http://www.w3.org/2000/svg"
 width="498.000000pt" height="299.000000pt" viewBox="0 0 498.000000 299.000000"
 preserveAspectRatio="xMidYMid meet">

<g transform="translate(0.000000,299.000000) scale(0.100000,-0.100000)"
fill="#fff" stroke="none">
<path d="M2295 2966 c-135 -38 -272 -104 -370 -180 -161 -123 -281 -259 -349
-395 -24 -47 -69 -127 -99 -178 -95 -154 -179 -324 -347 -693 -179 -393 -294
-623 -391 -778 -195 -315 -411 -530 -648 -649 l-85 -43 39 -1 c126 -5 202 10
302 57 146 69 256 175 485 467 229 291 435 481 738 680 178 116 470 270 485
255 3 -3 -2 -25 -10 -49 -9 -24 -41 -132 -71 -239 -30 -107 -97 -321 -149
-475 -122 -366 -137 -475 -82 -593 59 -127 259 -183 382 -107 70 44 101 109
195 415 45 146 135 427 200 626 211 638 288 947 306 1214 11 172 12 174 274
357 147 103 171 115 223 111 35 -3 44 -8 62 -38 31 -55 28 -242 -9 -419 -56
-269 -169 -657 -301 -1026 -133 -377 -258 -746 -276 -820 -23 -98 -25 -224 -3
-287 32 -95 145 -168 258 -168 172 0 243 97 341 470 24 91 80 272 124 402 142
417 278 876 322 1083 10 50 31 184 46 299 l28 210 70 55 c86 69 295 211 352
240 55 28 84 27 114 -5 23 -24 24 -32 23 -147 0 -97 -6 -147 -28 -242 -44
-190 -116 -435 -230 -780 -57 -176 -125 -392 -151 -480 -26 -88 -80 -262 -121
-387 -107 -328 -123 -422 -88 -537 21 -73 92 -144 165 -165 186 -56 318 34
374 254 26 103 118 398 235 755 226 690 289 930 325 1240 23 200 20 328 -10
423 -60 190 -184 282 -381 282 -179 0 -428 -109 -602 -263 -54 -48 -72 -57
-72 -34 0 31 -71 156 -111 196 -68 68 -135 94 -250 99 -119 5 -219 -18 -353
-81 -106 -51 -186 -102 -280 -182 l-64 -55 -13 38 c-37 116 -109 206 -198 249
-49 24 -70 27 -166 30 -72 2 -127 -2 -160 -11z m30 -200 c67 -67 35 -305 -101
-756 -31 -102 -60 -192 -65 -202 -5 -9 -55 -41 -112 -71 -282 -149 -593 -365
-809 -561 -65 -59 -118 -102 -118 -96 0 19 427 874 500 1000 189 329 344 524
511 643 104 74 152 85 194 43z"/>
</g>
</svg>
