<?xml version="1.0" encoding="UTF-8"?>
<svg version="1.1" xmlns="http://www.w3.org/2000/svg" width="420" height="420">
<path d="M0 0 C4.08105751 1.62254865 6.81685299 4.54124412 9.84894943 7.60285378 C10.43267698 8.18427364 11.01640453 8.7656935 11.6178208 9.36473215 C13.5842064 11.32579899 15.54334231 13.2939535 17.50262451 15.26211548 C18.92045624 16.67907552 20.33872719 18.09559619 21.75740075 19.51171339 C25.6636152 23.41344296 29.56354457 27.32140304 33.46250796 31.23037672 C37.66473061 35.44121515 41.8727096 39.64629402 46.08000183 43.85206604 C53.37164965 51.14266382 60.65965446 58.43688801 67.94512177 65.73366165 C75.58709704 73.38746614 83.23113252 81.03920332 90.87793732 88.68818283 C91.3531793 89.1635623 91.82842129 89.63894176 92.31806455 90.12872667 C94.73153475 92.54287352 97.14504189 94.95698344 99.55856326 97.37107913 C116.65876705 114.47548507 133.75432804 131.5845245 150.84716797 148.69628906 C167.45387054 165.32135682 184.06266992 181.94432523 200.67431641 198.56445312 C201.18625148 199.07665125 201.69818655 199.58884938 202.22563481 200.11656866 C207.36664361 205.26021447 212.50769511 210.4038176 217.64877789 215.54738946 C228.12199539 226.02567955 238.59492785 236.50425451 249.06768799 246.98300171 C249.7899883 247.70571389 249.7899883 247.70571389 250.52688054 248.44302632 C282.68936217 280.62391299 314.84517744 312.81146065 347 345 C344.4600323 350.40589123 340.27859839 354.13083287 336.09667969 358.32885742 C334.62434584 359.81315947 333.1716937 361.31510259 331.71875 362.81835938 C330.79320312 363.75099609 329.86765625 364.68363281 328.9140625 365.64453125 C328.0679541 366.50409424 327.2218457 367.36365723 326.35009766 368.24926758 C324 370 324 370 322.16262817 369.89764404 C319.12206103 368.63559307 317.3648773 366.72336862 315.04785156 364.38842773 C314.5693425 363.91035675 314.09083344 363.43228577 313.5978241 362.93972778 C312.02154039 361.36135786 310.45614271 359.77263658 308.890625 358.18359375 C307.79840572 357.08577794 306.70552121 355.9886236 305.61199951 354.8921051 C302.73825127 352.00691268 299.87362664 349.1128243 297.01080322 346.21679688 C294.08687331 343.26215704 291.15441274 340.31601101 288.22265625 337.36914062 C282.47338291 331.58771064 276.73371936 325.79685575 271 320 C269.56155731 320.82587112 269.56155731 320.82587112 268.09405518 321.66842651 C266.82216958 322.39732325 265.55025651 323.12617204 264.27832031 323.85498047 C263.33268723 324.3981617 263.33268723 324.3981617 262.36795044 324.95231628 C222.07831547 348.02215009 174.12702557 354.28059185 129.125 342.6875 C126.06618555 341.84384097 123.02984059 340.94213159 120 340 C119.3390332 339.79568359 118.67806641 339.59136719 117.99707031 339.38085938 C99.6944483 333.53663643 82.01120053 323.95266842 67 312 C66.45730469 311.56864746 65.91460937 311.13729492 65.35546875 310.69287109 C28.22185189 280.91858053 4.73562465 238.57149734 -0.58984375 191.17578125 C-4.44696555 148.98568757 6.27586167 112.26724208 27 76 C10.17 59.17 -6.66 42.34 -24 25 C-20.51466895 20.93378044 -17.23815147 17.11323733 -13.4765625 13.37890625 C-12.68378906 12.58935547 -11.89101563 11.79980469 -11.07421875 10.98632812 C-10.26597656 10.18646484 -9.45773438 9.38660156 -8.625 8.5625 C-7.79355469 7.73556641 -6.96210938 6.90863281 -6.10546875 6.05664062 C-4.0725896 4.03544469 -2.03740037 2.01663665 0 0 Z M53 103 C33.97072691 134.58049577 29.18747267 172.2099743 37.52172852 207.95483398 C42.71453626 228.78700847 52.78164628 247.93419571 67 264 C67.63808594 264.73645752 67.63808594 264.73645752 68.2890625 265.48779297 C91.50386164 292.24081259 123.96133091 309.62846706 159.36401367 312.8190918 C189.37606052 314.87882383 218.00348187 309.66456862 244 294 C242.65288246 291.00051353 241.1588373 288.90848534 238.83904266 286.58736038 C237.85782716 285.59832163 237.85782716 285.59832163 236.85678911 284.5893023 C235.776163 283.51536835 235.776163 283.51536835 234.67370605 282.41973877 C233.90978405 281.65269678 233.14586204 280.88565479 232.35879087 280.0953691 C229.79016873 277.51875066 227.21443394 274.94936227 224.63867188 272.37988281 C222.79886497 270.53736683 220.95948403 268.69442542 219.12049866 266.85108948 C214.6391866 262.36087914 210.15247813 257.87609865 205.66381848 253.39323458 C202.01747525 249.751405 198.37308502 246.10763181 194.73008728 242.46245575 C193.95287109 241.68477986 193.95287109 241.68477986 193.15995356 240.89139335 C192.10744461 239.83824496 191.05494016 238.78509208 190.00244015 237.73193476 C180.13117549 227.85496581 170.25378747 217.98413879 160.37430018 208.11539552 C151.89009717 199.64013339 143.41115911 191.15963367 134.93603516 182.67529297 C125.09990411 172.82847012 115.26055126 162.98488534 105.41599894 153.14648128 C104.36729933 152.09841879 103.31860391 151.05035211 102.26991272 150.00228119 C101.7538955 149.48657252 101.23787828 148.97086385 100.70622417 148.43952765 C97.06295593 144.79798922 93.42201976 141.15412901 89.78196716 137.50937653 C84.8882558 132.60948567 79.98929622 127.7148958 75.08669853 122.82389641 C73.28294941 121.02280327 71.48092128 119.2199848 69.68069649 117.41536903 C67.23380218 114.96305496 64.78090518 112.51691286 62.32629395 110.07232666 C61.60587654 109.34744781 60.88545913 108.62256896 60.14321089 107.87572408 C59.48906722 107.2267959 58.83492354 106.57786772 58.16095734 105.90927505 C57.59473931 105.34338173 57.02852128 104.77748841 56.44514513 104.1944468 C55.05554665 102.78763948 55.05554665 102.78763948 53 103 Z " fill="#427B7D" transform="translate(36,37)"/>
<path d="M0 0 C-0.02094727 0.648479 -0.04189453 1.29695801 -0.06347656 1.96508789 C-0.6979025 24.64179978 2.53914518 43.9429668 17.69921875 61.6640625 C29.27702084 73.41877498 45.3428313 82.76138399 62.171875 83.265625 C64.03124038 83.27355547 65.89070446 83.26796111 67.75 83.25 C69.19947021 83.24419922 69.19947021 83.24419922 70.67822266 83.23828125 C77.62618312 83.15427568 84.21923984 82.60220493 91 81 C90.566875 82.20269531 90.566875 82.20269531 90.125 83.4296875 C86.15770957 95.57951446 84.33201585 109.42108864 89.6171875 121.48828125 C97.96909906 136.65856128 110.1596321 146.94442341 126.6484375 152.15234375 C130.4661443 153.1178943 134.09056106 153.58848011 138 154 C145.62296272 187.18885281 134.28467596 227.22161515 118 256 C117.66129883 256.5995752 117.32259766 257.19915039 116.97363281 257.81689453 C115.03052965 261.24085267 113.04045861 264.63324329 111 268 C105.00499003 263.03805145 99.53572963 257.6523376 94.0625 252.125 C93.18787109 251.24585938 92.31324219 250.36671875 91.41210938 249.4609375 C89.27242952 247.3095654 87.13513403 245.15588208 85 243 C85.50789062 241.98164063 86.01578125 240.96328125 86.5390625 239.9140625 C95.8444871 220.91974176 101.04138661 201.95394426 104 181 C103.12601563 180.73058594 102.25203125 180.46117187 101.3515625 180.18359375 C80.90820662 172.96408695 67.00882582 154.98993701 57.94384766 136.10986328 C55.4008573 130.42529974 53 124.27280166 53 118 C51.845 117.938125 50.69 117.87625 49.5 117.8125 C31.82125978 115.78652192 15.53192223 107.17534258 2 96 C1.06285156 95.22785156 0.12570313 94.45570313 -0.83984375 93.66015625 C-17.98290439 78.82527769 -30.66364981 57.79283984 -34.45922852 35.27563477 C-34.63768311 34.52467529 -34.8161377 33.77371582 -35 33 C-47.23202025 26.88398987 -71.21818846 35.47385667 -83.20800781 39.43823242 C-89.39597352 41.60295307 -95.17628196 44.39980007 -100.87475586 47.63549805 C-102.7421875 48.65625 -102.7421875 48.65625 -106 50 C-109.90154209 48.74749039 -112.3773407 45.85082976 -115.203125 42.9921875 C-115.6857782 42.50670441 -116.1684314 42.02122131 -116.66571045 41.52102661 C-118.19858562 39.97700134 -119.72434004 38.42615176 -121.25 36.875 C-122.29120361 35.82375991 -123.33286541 34.77297343 -124.375 33.72265625 C-126.92199464 31.15366996 -129.46265177 28.57851839 -132 26 C-112.39025616 5.49780116 -72.64287319 -3.11321449 -45.33203125 -3.96826172 C-30.01625317 -4.1767051 -15.04039459 -2.82007399 0 0 Z " fill="#427B7D" transform="translate(246,38)"/>
<path d="M0 0 C5.99910572 4.33268747 9.23850828 9.86022585 11 17 C12.26037968 26.2124659 9.85519429 32.63323227 4.875 40.25 C-1.30530565 46.16159671 -7.05842077 48.31505897 -15.625 48.5625 C-24.75610187 48.19542053 -29.18941233 46.17810178 -35.375 39.5625 C-41.01297268 33.10466277 -41.62729868 27.18962177 -41.3671875 18.80078125 C-40.61165687 10.98023543 -37.57731391 5.95815741 -31.5625 1 C-21.7288347 -5.86257431 -10.40733472 -5.98510546 0 0 Z " fill="#427B7D" transform="translate(164,214)"/>
</svg>
