<?xml version="1.0" standalone="no"?>
<!DOCTYPE svg PUBLIC "-//W3C//DTD SVG 20010904//EN"
 "http://www.w3.org/TR/2001/REC-SVG-20010904/DTD/svg10.dtd">
<svg version="1.0" xmlns="http://www.w3.org/2000/svg"
 width="722.000000pt" height="607.000000pt" viewBox="0 0 722.000000 607.000000"
 preserveAspectRatio="xMidYMid meet">

<g transform="translate(0.000000,607.000000) scale(0.100000,-0.100000)"
fill="#fff" stroke="none">
<path d="M2058 6036 c-106 -20 -242 -93 -326 -177 -62 -62 -74 -80 -106 -162
-47 -124 -71 -197 -95 -291 -21 -79 -44 -119 -110 -188 -44 -48 -86 -53 -78
-10 3 15 16 54 31 88 14 33 33 105 41 160 15 92 15 105 -2 197 -29 162 -84
242 -154 224 -36 -9 -208 -183 -260 -262 -25 -39 -55 -95 -68 -125 -32 -79
-55 -255 -47 -363 9 -120 34 -183 101 -251 59 -60 95 -121 95 -162 0 -15 -30
-94 -66 -175 -57 -128 -70 -149 -89 -149 -22 0 -23 4 -30 118 -12 208 -23 286
-46 338 -12 27 -27 60 -32 74 -23 53 -142 170 -174 170 -23 0 -72 -56 -96
-110 -6 -14 -33 -62 -60 -108 -27 -46 -57 -107 -67 -135 -10 -29 -26 -71 -34
-93 -31 -85 -17 -236 37 -394 19 -56 65 -117 122 -163 63 -50 125 -138 160
-227 24 -60 26 -72 19 -167 -6 -100 -7 -103 -30 -103 -18 0 -27 8 -35 28 -31
82 -137 249 -208 327 -15 17 -36 44 -46 60 -28 46 -136 165 -150 165 -60 0
-165 -284 -165 -447 0 -200 77 -393 206 -520 91 -88 174 -133 250 -133 47 0
56 -4 86 -36 18 -19 48 -44 66 -55 17 -12 32 -28 32 -37 0 -20 46 -192 66
-245 21 -56 18 -77 -9 -77 -17 0 -30 13 -52 55 -44 80 -194 203 -295 240 -25
10 -58 23 -75 30 -16 7 -55 20 -85 30 -30 9 -64 21 -75 26 -11 5 -46 10 -78
12 -53 2 -61 -1 -83 -26 -21 -25 -23 -35 -18 -85 3 -31 12 -86 19 -122 8 -36
22 -103 32 -150 10 -46 28 -99 40 -117 13 -19 30 -48 39 -65 32 -61 135 -151
224 -195 113 -55 150 -63 358 -69 159 -5 184 -8 242 -31 70 -28 95 -51 186
-169 58 -76 69 -114 32 -114 -12 0 -31 9 -43 20 -19 18 -78 41 -220 86 -27 9
-59 20 -70 24 -11 5 -45 11 -75 15 -137 15 -183 17 -203 7 -12 -6 -33 -13 -47
-16 -115 -23 -163 -40 -195 -71 -43 -40 -44 -59 -6 -150 47 -115 91 -186 155
-253 83 -87 127 -115 237 -154 86 -30 104 -33 204 -32 121 1 244 22 325 56 14
6 34 14 45 18 11 5 36 14 55 21 23 9 78 14 162 14 118 -1 130 -3 160 -25 18
-13 39 -32 46 -42 7 -10 19 -18 25 -18 26 0 87 -61 87 -87 0 -24 -1 -25 -52
-18 -29 4 -57 11 -62 16 -6 5 -33 9 -61 9 -28 0 -56 5 -62 11 -16 16 -189 5
-248 -15 -27 -9 -68 -22 -90 -28 -22 -7 -58 -19 -80 -29 -22 -10 -51 -21 -65
-24 -23 -7 -53 -19 -120 -48 -14 -6 -42 -27 -63 -46 -55 -52 -51 -76 26 -143
34 -31 85 -76 112 -102 62 -58 152 -103 300 -151 92 -30 222 -34 312 -9 32 9
70 18 84 21 50 9 249 119 303 167 42 38 71 54 118 67 35 9 84 25 110 35 l48
18 82 -33 c46 -18 101 -41 123 -52 22 -11 60 -26 85 -33 36 -11 46 -18 48 -39
l3 -25 -93 1 c-95 0 -156 -14 -265 -64 -24 -10 -45 -19 -48 -19 -3 0 -42 -23
-88 -51 -85 -52 -251 -210 -302 -288 -26 -38 -26 -40 -10 -65 10 -15 34 -34
54 -43 20 -9 47 -24 61 -33 43 -30 212 -74 320 -84 153 -15 375 53 488 147 24
21 47 37 51 37 14 0 108 124 132 172 21 43 30 50 123 97 135 66 143 68 226 40
60 -19 70 -26 70 -46 0 -16 -6 -23 -20 -23 -11 0 -28 -4 -38 -9 -9 -5 -42 -21
-72 -35 -133 -62 -282 -168 -388 -276 -60 -60 -92 -134 -92 -210 l0 -60 60 0
60 0 0 36 c0 123 197 307 440 411 118 51 231 93 250 93 56 0 366 -136 441
-193 26 -19 56 -40 68 -47 35 -18 134 -127 158 -173 12 -24 22 -61 23 -84 l0
-43 66 0 67 0 -6 69 c-8 94 -34 141 -131 234 -69 66 -231 187 -251 187 -4 0
-26 14 -50 30 -24 17 -48 30 -52 30 -5 0 -28 9 -51 20 -22 11 -48 20 -57 20
-9 0 -15 9 -15 23 0 18 11 26 63 45 34 12 71 22 81 22 11 0 51 -15 90 -34 39
-18 88 -41 108 -50 29 -13 45 -31 70 -79 20 -38 64 -93 115 -143 66 -66 99
-90 175 -127 90 -44 134 -57 263 -78 60 -10 86 -8 220 12 124 20 277 83 326
135 32 35 18 67 -69 158 -120 124 -142 144 -214 192 -139 91 -356 168 -421
148 -9 -3 -31 -3 -47 1 -23 5 -30 12 -30 29 0 18 9 25 42 35 23 7 69 25 102
40 180 81 171 80 301 35 113 -39 119 -42 172 -92 26 -24 86 -63 133 -86 47
-24 94 -47 105 -53 40 -22 162 -46 250 -51 92 -4 160 7 245 39 165 63 175 69
281 164 30 27 76 69 102 91 59 52 61 79 10 124 -39 35 -105 67 -206 101 -34
11 -66 24 -72 29 -5 4 -41 15 -80 25 -38 9 -84 24 -102 32 -46 21 -249 7 -368
-27 -86 -25 -95 -25 -95 2 0 17 15 35 53 63 28 22 70 56 93 76 38 34 46 37
126 44 91 7 183 1 233 -17 44 -15 95 -35 145 -56 27 -12 51 -15 205 -32 112
-12 162 -8 250 22 111 38 149 62 241 153 73 72 98 105 126 165 91 191 91 194
35 247 -52 49 -293 103 -374 83 -23 -5 -58 -10 -79 -10 -38 0 -140 -29 -212
-61 -23 -10 -51 -19 -60 -19 -10 0 -39 -14 -65 -30 -101 -64 -116 -24 -29 81
31 39 66 83 77 99 11 16 36 37 55 46 19 9 49 23 65 31 18 9 65 17 115 18 206
7 310 18 380 37 191 54 365 240 400 428 7 36 18 88 25 115 8 28 16 86 20 131
5 71 4 83 -14 105 -33 41 -122 28 -321 -46 -133 -50 -158 -64 -254 -141 -70
-57 -97 -86 -115 -124 -19 -40 -29 -50 -48 -50 -23 0 -25 3 -20 33 4 28 57
218 75 273 4 11 35 46 69 77 58 53 66 57 111 57 82 0 211 75 287 167 56 69
134 226 151 306 7 34 13 109 13 167 0 206 -92 460 -168 460 -9 0 -72 -76 -178
-215 -21 -27 -54 -67 -73 -90 -35 -40 -49 -62 -81 -123 -10 -18 -22 -38 -27
-45 -5 -7 -17 -36 -27 -64 -15 -42 -24 -53 -40 -53 -20 0 -23 8 -34 99 -10 83
-10 105 3 137 8 22 17 50 20 64 10 46 91 153 149 199 90 71 112 112 171 312
18 63 20 152 5 219 -11 53 -87 238 -100 246 -5 3 -26 37 -47 76 -66 126 -92
158 -128 158 -30 0 -137 -118 -174 -190 -42 -84 -48 -113 -60 -275 -16 -224
-18 -235 -45 -235 -19 0 -27 10 -45 57 -12 32 -25 62 -29 68 -5 5 -25 52 -46
103 -36 88 -38 96 -25 130 16 45 39 77 101 142 64 65 89 146 90 281 0 169 -16
250 -74 369 -46 95 -61 115 -158 212 -59 59 -122 114 -139 123 -29 15 -34 15
-56 0 -70 -45 -121 -221 -109 -372 7 -93 35 -205 65 -258 27 -48 26 -75 -2
-75 -38 0 -168 160 -168 205 0 31 -82 277 -119 360 -24 52 -49 86 -107 142
-41 40 -82 73 -91 73 -8 0 -28 9 -43 20 -48 34 -101 52 -190 66 -106 17 -165
17 -249 3 -75 -13 -106 -30 -126 -69 -25 -48 20 -139 154 -315 56 -73 180
-205 193 -205 5 0 26 -13 46 -29 20 -16 60 -37 87 -46 28 -9 64 -22 80 -29 60
-26 101 -35 180 -42 44 -4 86 -12 94 -18 23 -18 131 -164 131 -176 0 -7 14
-29 30 -50 36 -45 40 -80 9 -80 -13 0 -59 36 -119 93 -152 144 -241 179 -450
178 -69 0 -138 -4 -155 -10 -83 -27 -141 -53 -160 -71 -18 -19 -19 -22 -5 -45
8 -13 37 -61 64 -106 51 -84 194 -238 289 -310 72 -56 165 -98 230 -104 52 -6
57 -9 57 -31 0 -22 -4 -24 -42 -24 -85 0 -188 -56 -188 -102 0 -10 11 -40 24
-66 13 -26 26 -66 29 -90 9 -76 85 -157 277 -299 170 -126 251 -163 356 -163
36 0 85 -5 110 -11 36 -9 53 -8 93 5 28 9 58 16 68 16 28 0 93 -48 105 -78 13
-33 29 -359 21 -424 -5 -41 -9 -48 -28 -48 -18 0 -32 21 -83 123 -63 126 -100
172 -203 249 -86 65 -272 130 -424 149 -79 10 -100 6 -132 -24 -41 -37 -25
-169 31 -267 14 -25 33 -58 42 -75 37 -69 113 -173 167 -231 64 -69 74 -104
29 -104 -15 0 -32 4 -37 9 -6 6 -35 16 -65 24 -30 8 -72 22 -94 31 -21 9 -49
16 -61 16 -26 0 -85 -50 -85 -72 0 -31 59 -315 75 -361 9 -27 32 -79 51 -117
19 -38 34 -72 34 -77 0 -35 280 -273 322 -273 9 0 20 -5 23 -10 3 -5 14 -10
25 -10 13 0 23 -14 34 -47 33 -96 22 -126 -93 -268 -127 -157 -222 -255 -247
-255 -32 0 -31 14 8 118 31 85 32 91 32 252 0 156 -2 169 -27 228 -32 76 -92
170 -204 318 -80 106 -112 134 -152 134 -24 0 -58 -38 -66 -75 -4 -16 -14 -50
-22 -75 -22 -67 -29 -355 -13 -483 10 -80 22 -120 52 -183 21 -45 38 -85 38
-89 0 -11 49 -87 107 -166 60 -82 80 -154 48 -172 -10 -5 -34 -24 -54 -42 -55
-49 -147 -107 -243 -153 -47 -23 -89 -42 -93 -42 -3 0 -26 -13 -50 -30 -60
-41 -85 -40 -85 4 0 18 10 48 23 67 13 19 46 68 74 109 59 86 82 139 113 265
20 80 22 105 16 225 -7 158 -15 196 -63 310 -56 131 -112 210 -146 210 -37 0
-131 -118 -192 -241 -30 -61 -64 -122 -75 -137 -58 -80 -78 -361 -40 -562 23
-121 56 -236 76 -264 8 -12 14 -45 14 -77 l0 -56 -42 -21 c-24 -11 -63 -26
-88 -33 -25 -7 -49 -15 -55 -19 -5 -4 -30 -13 -55 -20 -25 -7 -49 -17 -55 -21
-5 -3 -39 -16 -75 -28 -36 -12 -74 -26 -85 -30 -45 -18 -93 -30 -142 -37 -52
-6 -53 -6 -53 19 0 15 11 34 28 49 15 12 81 79 147 148 128 133 175 208 217
345 27 89 24 221 -7 341 -15 60 -25 124 -25 168 0 63 -3 75 -23 94 -13 12 -31
22 -39 22 -30 0 -323 -279 -400 -380 -44 -58 -105 -224 -119 -325 -15 -110
-12 -248 7 -334 22 -95 0 -197 -52 -242 -32 -27 -94 -59 -114 -59 -10 0 -21
-4 -24 -9 -12 -19 -82 -22 -127 -7 -24 9 -49 16 -56 16 -7 0 -33 13 -59 30
-93 59 -122 157 -89 304 18 80 17 162 -4 321 -10 79 -16 100 -59 203 -36 87
-49 104 -194 252 -130 133 -240 230 -260 230 -8 0 -27 -13 -42 -29 -24 -25
-26 -33 -21 -77 5 -36 0 -77 -18 -154 -52 -218 -45 -328 34 -487 44 -89 98
-154 251 -304 65 -65 98 -104 98 -119 0 -21 -3 -22 -62 -15 -34 4 -69 11 -78
15 -8 4 -46 17 -85 29 -38 12 -80 26 -92 32 -13 5 -35 14 -50 20 -16 6 -36 15
-45 20 -10 5 -25 9 -33 9 -8 0 -25 5 -38 12 -46 24 -57 28 -72 28 -8 0 -35 10
-60 22 -44 21 -45 23 -45 68 0 32 10 66 29 106 52 105 98 391 87 539 -6 83
-26 191 -44 236 -5 14 -23 45 -40 70 -16 24 -50 87 -75 139 -35 71 -62 110
-107 155 l-60 59 -35 -34 c-38 -37 -125 -203 -150 -285 -8 -27 -20 -113 -26
-190 -12 -139 -12 -141 16 -250 31 -122 77 -219 160 -338 63 -89 73 -137 30
-137 -13 0 -41 12 -62 26 -21 14 -54 32 -73 41 -143 63 -251 128 -320 192 -25
22 -48 41 -52 41 -5 0 -8 20 -8 44 0 36 8 55 43 102 185 255 237 422 222 714
-10 181 -38 324 -73 363 -19 21 -55 22 -87 1 -48 -31 -243 -301 -293 -404 -61
-128 -66 -337 -10 -499 43 -127 45 -141 18 -141 -26 0 -123 101 -253 263 -127
159 -131 168 -98 262 16 44 22 51 62 65 64 22 271 180 309 236 77 115 133 254
159 395 21 110 29 155 36 179 5 20 -1 34 -28 65 l-35 40 -48 -14 c-27 -8 -71
-20 -97 -27 -27 -7 -62 -20 -79 -29 -17 -8 -42 -15 -55 -15 -32 0 -31 39 3 71
36 33 131 160 176 234 66 111 98 184 110 255 11 62 10 74 -4 98 -27 45 -58 55
-141 44 -89 -12 -180 -35 -272 -68 -95 -33 -122 -49 -209 -122 -67 -55 -82
-74 -126 -160 -28 -53 -54 -104 -59 -112 -5 -8 -15 -30 -21 -47 -9 -25 -19
-33 -36 -33 -23 0 -24 2 -24 83 0 45 3 154 6 242 l7 160 48 48 c27 26 57 47
66 47 9 0 37 -10 61 -21 40 -20 50 -21 94 -10 27 6 72 11 99 11 102 0 184 30
304 112 139 95 169 118 218 165 87 84 127 141 127 179 0 19 14 61 30 94 17 33
30 66 30 74 0 21 -58 66 -106 82 -21 8 -58 14 -81 14 -39 0 -43 2 -43 24 0 26
21 36 82 36 103 0 341 193 465 375 103 152 110 177 58 204 -86 47 -160 62
-288 62 -117 0 -157 -5 -247 -33 -47 -14 -135 -75 -208 -143 -138 -127 -138
-23 -1 142 69 82 70 83 117 83 26 1 65 5 87 10 22 5 54 12 70 15 17 4 49 15
72 26 24 10 48 19 55 20 15 1 62 28 140 80 60 40 113 98 231 249 48 61 127
212 127 241 0 10 -15 33 -33 52 -27 26 -47 35 -99 45 -80 15 -181 14 -270 -2z
m-675 -1388 c80 -41 125 -58 160 -58 22 0 27 -5 27 -24 0 -22 -6 -25 -52 -31
-126 -15 -281 -81 -344 -146 -42 -43 -84 -53 -84 -20 0 22 21 76 59 151 16 30
34 76 41 102 10 39 17 48 39 51 66 10 94 6 154 -25z m4610 23 c25 -5 32 -15
52 -76 12 -38 37 -98 54 -133 17 -34 31 -71 31 -82 0 -31 -36 -25 -80 13 -21
17 -61 44 -89 60 -60 32 -189 77 -223 77 -47 0 -68 12 -68 36 0 20 5 24 29 24
17 0 33 5 36 10 3 6 14 10 25 10 10 0 44 15 76 34 59 34 97 41 157 27z m-4663
-1622 c0 -12 -18 -42 -41 -66 -44 -48 -126 -211 -153 -306 -19 -67 -25 -203
-12 -294 9 -62 9 -63 -15 -63 -20 0 -32 15 -71 93 -27 51 -48 95 -48 99 0 4
-13 35 -29 70 -16 35 -38 83 -49 108 -26 62 -66 225 -59 243 3 7 34 29 69 47
54 28 78 34 168 41 95 7 168 24 186 42 4 4 18 7 31 7 17 0 23 -6 23 -21z
m4658 -5 c20 -8 84 -19 142 -23 149 -12 240 -55 240 -114 0 -50 -49 -207 -94
-302 -13 -27 -48 -101 -77 -162 -44 -94 -56 -113 -75 -113 -21 0 -22 1 -20
158 1 178 1 181 -91 369 -31 65 -67 123 -84 137 -37 32 -39 66 -4 66 14 0 42
-7 63 -16z"/>
<path d="M2725 4964 c-16 -3 -48 -10 -69 -15 l-39 -11 181 -181 c142 -142 182
-188 182 -208 0 -45 -59 -146 -121 -208 -62 -62 -163 -121 -208 -121 -20 0
-66 40 -207 181 l-181 181 -12 -33 c-19 -54 -25 -179 -12 -255 19 -107 80
-223 159 -303 116 -115 260 -171 437 -171 169 0 103 54 865 -705 755 -752 707
-712 842 -703 40 3 88 12 105 22 47 24 102 82 124 130 26 57 25 166 -2 226
-15 34 -175 201 -683 710 -365 366 -672 681 -682 700 -13 26 -20 70 -25 170
-5 107 -12 150 -32 209 -78 223 -276 373 -508 385 -46 2 -97 2 -114 0z"/>
<path d="M4427 4777 l-267 -52 -196 -195 c-107 -107 -241 -244 -296 -303
l-101 -108 56 -57 57 -57 288 288 c158 158 291 287 296 287 23 0 46 -23 46
-48 0 -22 -52 -78 -282 -309 l-283 -283 50 -50 c27 -27 54 -50 60 -50 6 0 135
126 288 280 172 174 284 280 296 280 24 0 51 -26 51 -48 0 -9 -126 -142 -280
-297 -154 -154 -280 -285 -280 -291 0 -12 92 -104 105 -104 6 0 144 134 307
298 l298 297 59 288 59 287 -32 -1 c-17 -1 -151 -24 -299 -52z"/>
<path d="M2660 3225 l-415 -415 238 -237 237 -238 361 360 c198 198 383 386
411 418 l51 59 -57 56 -57 57 -347 -353 c-290 -294 -351 -353 -374 -352 -27 0
-48 23 -48 52 0 7 159 171 352 365 l353 353 -56 56 -55 55 -339 -346 c-186
-190 -346 -350 -357 -356 -27 -15 -57 -2 -64 28 -6 23 25 58 317 352 179 179
337 340 352 356 l27 31 -58 57 -57 57 -415 -415z"/>
</g>
</svg>
