<?xml version="1.0" standalone="no"?>
<!DOCTYPE svg PUBLIC "-//W3C//DTD SVG 20010904//EN"
 "http://www.w3.org/TR/2001/REC-SVG-20010904/DTD/svg10.dtd">
<svg version="1.0" xmlns="http://www.w3.org/2000/svg"
 width="546.000000pt" height="504.000000pt" viewBox="0 0 546.000000 504.000000"
 preserveAspectRatio="xMidYMid meet">

<g transform="translate(0.000000,504.000000) scale(0.100000,-0.100000)"
fill="#fff" stroke="none">
<path d="M2590 5024 c-108 -23 -204 -77 -290 -163 -68 -69 -89 -101 -216 -331
-78 -140 -566 -1020 -1085 -1955 -581 -1046 -953 -1727 -967 -1769 -32 -93
-39 -218 -18 -316 25 -121 76 -212 170 -305 88 -88 161 -132 266 -162 62 -17
162 -18 2275 -18 2426 0 2253 -5 2395 62 103 49 223 169 273 274 38 79 67 198
67 274 0 56 -25 180 -46 231 -8 20 -273 501 -588 1068 -315 567 -802 1445
-1082 1950 -499 902 -510 921 -584 996 -56 57 -94 86 -150 113 -129 64 -278
82 -420 51z m210 -493 c27 -19 35 -33 1353 -2408 666 -1199 817 -1478 817
-1508 0 -45 -23 -87 -60 -109 -26 -15 -206 -16 -2182 -16 -2102 0 -2154 1
-2184 19 -20 12 -38 36 -49 64 -15 39 -15 48 -2 78 8 19 241 444 519 944 278
501 754 1358 1058 1905 303 547 561 1005 573 1018 39 42 106 48 157 13z"/>
<path d="M1984 2870 c-97 -14 -98 -11 66 -175 97 -97 150 -157 150 -170 0 -89
-186 -275 -274 -275 -13 0 -74 53 -173 152 l-151 151 -12 -44 c-8 -27 -10 -82
-8 -141 5 -88 9 -106 43 -175 88 -178 246 -272 460 -273 58 0 92 -6 125 -21
34 -15 176 -151 595 -568 303 -302 564 -556 580 -564 114 -55 255 -6 306 108
24 53 24 138 0 190 -13 27 -197 217 -566 585 -326 325 -555 561 -567 585 -17
31 -23 67 -28 160 -5 87 -13 135 -29 174 -84 208 -300 334 -517 301z"/>
<path d="M3408 2716 l-218 -41 -250 -250 -250 -250 51 -50 50 -50 232 238
c128 130 239 237 248 237 19 0 39 -20 39 -40 0 -8 -72 -87 -161 -175 -88 -88
-192 -195 -231 -238 l-71 -78 39 -40 c21 -21 43 -39 50 -39 7 0 110 101 230
225 120 124 228 228 241 231 26 7 53 -11 53 -34 0 -8 -106 -121 -236 -249
l-237 -234 49 -50 49 -49 249 249 249 249 48 229 c27 125 48 234 49 241 0 18
-31 14 -272 -32z"/>
<path d="M1933 1422 l-341 -349 194 -194 194 -194 242 241 c134 133 272 268
307 300 35 33 81 81 104 107 l40 49 -46 46 -47 47 -293 -293 c-244 -244 -298
-293 -318 -290 -16 2 -25 11 -27 27 -3 20 46 74 289 317 l294 294 -45 45 -45
45 -296 -296 c-248 -248 -300 -295 -317 -290 -12 4 -24 16 -28 28 -5 17 42 69
285 312 160 160 291 296 291 301 0 11 -81 95 -91 95 -2 0 -158 -157 -346 -348z"/>
</g>
</svg>
