<?xml version="1.0" standalone="no"?>
<!DOCTYPE svg PUBLIC "-//W3C//DTD SVG 20010904//EN"
 "http://www.w3.org/TR/2001/REC-SVG-20010904/DTD/svg10.dtd">
<svg version="1.0" xmlns="http://www.w3.org/2000/svg"
 width="498.000000pt" height="452.000000pt" viewBox="0 0 498.000000 452.000000"
 preserveAspectRatio="xMidYMid meet">

<g transform="translate(0.000000,452.000000) scale(0.100000,-0.100000)"
fill="#fff" stroke="none">
<path d="M250 4511 c-104 -32 -199 -127 -230 -229 -20 -66 -20 -85 -18 -1717
l3 -1650 33 -67 c39 -79 92 -129 181 -172 l66 -31 773 -3 c424 -1 772 -6 772
-10 -1 -4 -31 -65 -68 -137 l-67 -130 -125 -3 c-167 -4 -160 4 -160 -179 0
-130 2 -145 20 -163 20 -20 33 -20 989 -20 l970 0 15 22 c21 29 23 294 4 321
-11 14 -35 17 -143 19 l-130 3 -68 135 -67 135 837 5 c551 4 850 10 874 17
107 31 192 103 238 202 l26 56 3 1650 c2 1632 2 1651 -18 1717 -24 80 -95 165
-174 206 l-51 27 -2230 2 c-1227 1 -2241 -2 -2255 -6z m4456 -168 c52 -28 90
-72 104 -121 6 -25 10 -496 10 -1409 l0 -1373 -2330 0 -2330 0 0 1373 c0 913
4 1384 10 1409 20 69 81 123 160 139 19 4 1003 6 2185 5 l2150 -1 41 -22z"/>
<path d="M3111 4248 c-61 -30 -103 -90 -99 -143 l3 -40 67 -3 c66 -3 67 -2 83
27 18 35 43 51 79 51 28 0 66 -31 66 -54 0 -8 -27 -40 -61 -73 -72 -69 -89
-98 -89 -153 l0 -40 75 0 c64 0 75 3 75 17 0 9 33 51 74 93 64 66 75 82 81
122 13 84 -31 164 -110 199 -59 27 -186 26 -244 -3z"/>
<path d="M407 4152 c-27 -30 -22 -87 9 -111 26 -21 34 -21 709 -21 675 0 683
0 709 21 20 16 26 29 26 58 0 76 47 71 -737 71 -665 0 -701 -1 -716 -18z"/>
<path d="M410 3880 c-30 -30 -27 -83 6 -109 26 -21 35 -21 584 -21 l557 0 21
23 c28 29 29 87 4 110 -17 15 -72 17 -585 17 -554 0 -567 0 -587 -20z"/>
<path d="M3991 3868 c-61 -30 -103 -90 -99 -143 l3 -40 67 -3 c66 -3 67 -2 83
27 18 35 43 51 79 51 28 0 66 -31 66 -54 0 -8 -27 -40 -61 -73 -73 -70 -89
-98 -89 -158 l0 -45 75 0 c70 0 75 1 75 22 0 13 28 50 74 98 64 66 75 82 81
122 13 84 -31 164 -110 199 -59 27 -186 26 -244 -3z"/>
<path d="M3162 3708 l3 -63 75 0 75 0 3 63 3 62 -81 0 -81 0 3 -62z"/>
<path d="M2451 3578 c-61 -30 -103 -90 -99 -143 l3 -40 67 -3 c66 -3 67 -2 83
27 18 35 43 51 79 51 28 0 66 -31 66 -54 0 -8 -27 -40 -61 -73 -73 -70 -89
-98 -89 -158 l0 -45 75 0 c70 0 75 1 75 22 0 13 28 50 74 98 64 66 75 82 81
122 13 84 -31 164 -110 199 -59 27 -186 26 -244 -3z"/>
<path d="M1095 3390 c-362 -57 -653 -334 -721 -688 -62 -322 57 -644 311 -847
170 -135 360 -194 588 -182 256 14 468 123 629 325 69 87 130 208 159 318 30
112 30 316 0 429 -100 375 -418 631 -804 649 -56 3 -129 1 -162 -4z m65 -488
l0 -337 -244 -244 -243 -243 -32 46 c-159 230 -172 528 -34 766 54 92 181 216
273 265 78 41 205 84 253 84 l27 1 0 -338z m294 301 c203 -73 366 -236 439
-440 14 -37 28 -87 32 -110 l7 -43 -306 0 -306 0 0 315 0 315 33 -7 c17 -3 63
-17 101 -30z m471 -788 c-20 -134 -94 -275 -200 -380 -93 -93 -160 -135 -282
-178 -80 -28 -99 -31 -213 -32 -142 0 -223 19 -340 81 -123 65 -138 32 141
309 l245 245 328 0 328 0 -7 -45z"/>
<path d="M4042 3328 l3 -63 75 0 75 0 3 63 3 62 -81 0 -81 0 3 -62z"/>
<path d="M3135 3255 l-25 -24 0 -806 0 -806 25 -24 c24 -25 24 -25 238 -25
210 0 214 0 235 23 l22 23 0 810 0 811 -23 21 c-22 21 -31 22 -236 22 -212 0
-212 0 -236 -25z m345 -830 l0 -705 -110 0 -110 0 0 705 0 705 110 0 110 0 0
-705z"/>
<path d="M2502 3043 l3 -68 75 0 75 0 3 68 3 67 -81 0 -81 0 3 -67z"/>
<path d="M3762 2684 l-22 -15 0 -528 0 -528 23 -21 c22 -21 31 -22 236 -22
212 0 212 0 236 25 l25 24 0 519 0 519 -23 21 c-22 21 -31 22 -238 22 -178 0
-218 -3 -237 -16z m348 -549 l0 -415 -110 0 -110 0 0 415 0 415 110 0 110 0 0
-415z"/>
<path d="M2515 2565 l-25 -24 0 -465 0 -465 26 -20 c25 -20 39 -21 234 -21
195 0 209 1 234 21 l26 20 0 468 0 468 -23 21 c-22 21 -31 22 -236 22 -212 0
-212 0 -236 -25z m345 -485 l0 -360 -110 0 -110 0 0 360 0 360 110 0 110 0 0
-360z"/>
</g>
</svg>
