<?xml version="1.0" encoding="UTF-8"?>
<svg id="Ebene_1" data-name="Ebene 1" xmlns="http://www.w3.org/2000/svg" viewBox="0 0 480 480">
  <defs>
    <style>
      .cls-1, .cls-2 {
        stroke-width: 0px; fill: #427B7D;
      }

      .cls-2 {
        fill: none;
      }
    </style>
  </defs>
  <path class="cls-2" d="m480,480H0V0h480v480Zm-177.11-53.33h145.73v-165.67c-47.41,0-94.41.03-141.4-.06-3.87,0-4.26,1.9-4.24,4.99.08,18.5.04,37,.04,55.5v5.19h-43.73v-173.29h43.73c0,19.98.16,39.62-.11,59.26-.07,4.96,1.15,6.55,6.34,6.53,44.83-.2,89.66-.12,134.5-.12,1.62,0,3.23,0,4.99,0V53.34h-145.84v62.33h-126.08v-62.45H31.27v165.41h145.84v-65.34h45.07v210.84h80.71v62.54Z"/>
  <path class="cls-1" d="m302.89,426.67v-62.54h-80.71v-210.84h-45.07v65.34H31.27V53.22h145.52v62.45h126.08v-62.33h145.84v165.66c-1.75,0-3.37,0-4.99,0-44.83,0-89.67-.09-134.5.12-5.19.02-6.41-1.57-6.34-6.53.27-19.64.11-39.29.11-59.26h-43.73v173.29h43.73v-5.19c0-18.5.04-37-.04-55.5-.01-3.09.37-5,4.24-4.99,47,.09,93.99.06,141.4.06v165.67h-145.73Zm-163.26-244.9v-91.39h-71.39v91.39h71.39Zm200.61-.13h71.39v-91.4h-71.39v91.4Zm71.4,208.2v-91.57h-71.32v91.57h71.32Z"/>
  <path class="cls-2" d="m139.63,181.77h-71.39v-91.39h71.39v91.39Z"/>
  <path class="cls-2" d="m340.24,181.64v-91.4h71.39v91.4h-71.39Z"/>
  <path class="cls-2" d="m411.64,389.84h-71.32v-91.57h71.32v91.57Z"/>
</svg>